<svg width="20" height="20" viewBox="0 0 20 20" fill="none" xmlns="http://www.w3.org/2000/svg">
<path d="M9.48908 6.57036C9.61955 6.39209 9.5808 6.14181 9.40253 6.01134C9.22426 5.88087 8.97398 5.91962 8.84351 6.09789L9.48908 6.57036ZM4.17129 13.1591L4.49405 13.3954L4.49408 13.3954L4.17129 13.1591ZM4.25463 14.2408L4.53764 13.9581L4.53739 13.9579L4.25463 14.2408ZM4.93546 14.9225L4.65244 15.2051L4.65277 15.2055L4.93546 14.9225ZM6.03046 14.995L5.78777 14.677L5.78755 14.6772L6.03046 14.995ZM12.8173 10.3179C12.9929 10.1839 13.0266 9.93287 12.8926 9.75727C12.7586 9.58166 12.5075 9.54796 12.3319 9.682L12.8173 10.3179ZM13.5261 17.9767C13.7093 18.1001 13.9578 18.0517 14.0813 17.8685C14.2048 17.6853 14.1564 17.4367 13.9732 17.3133L13.5261 17.9767ZM4.8484 14.8825C5.01366 14.7359 5.02879 14.4831 4.8822 14.3179C4.7356 14.1526 4.48278 14.1375 4.31752 14.2841L4.8484 14.8825ZM17.1 5.83329C17.1 7.92235 15.543 9.59996 13.3333 9.59996V10.4C16.0021 10.4 17.9 8.34661 17.9 5.83329H17.1ZM13.3333 9.59996C11.1236 9.59996 9.56663 7.92235 9.56663 5.83329H8.76663C8.76663 8.34661 10.6644 10.4 13.3333 10.4V9.59996ZM9.56663 5.83329C9.56663 3.74424 11.1236 2.06663 13.3333 2.06663V1.26663C10.6644 1.26663 8.76663 3.31997 8.76663 5.83329H9.56663ZM13.3333 2.06663C15.543 2.06663 17.1 3.74424 17.1 5.83329H17.9C17.9 3.31997 16.0021 1.26663 13.3333 1.26663V2.06663ZM8.84351 6.09789L3.84851 12.9229L4.49408 13.3954L9.48908 6.57036L8.84351 6.09789ZM3.84853 12.9229C3.67459 13.1605 3.5914 13.4525 3.61402 13.7461L4.41166 13.6847C4.40371 13.5815 4.43294 13.4789 4.49405 13.3954L3.84853 12.9229ZM3.61402 13.7461C3.63664 14.0397 3.76357 14.3155 3.97187 14.5237L4.53739 13.9579C4.4642 13.8847 4.41961 13.7878 4.41166 13.6847L3.61402 13.7461ZM3.97161 14.5235L4.65244 15.2051L5.21848 14.6398L4.53764 13.9581L3.97161 14.5235ZM4.65277 15.2055C4.8641 15.4166 5.14486 15.5438 5.44292 15.5635L5.49577 14.7653C5.39105 14.7583 5.2924 14.7136 5.21815 14.6395L4.65277 15.2055ZM5.44292 15.5635C5.74097 15.5833 6.03605 15.4942 6.27337 15.3128L5.78755 14.6772C5.70417 14.7409 5.60049 14.7722 5.49577 14.7653L5.44292 15.5635ZM6.27315 15.3129L12.8173 10.3179L12.3319 9.682L5.78777 14.677L6.27315 15.3129ZM13.9732 17.3133C13.0991 16.7241 12.0818 16.2666 10.833 16.2666V17.0666C11.8708 17.0666 12.7335 17.4425 13.5261 17.9767L13.9732 17.3133ZM10.833 16.2666C10.3285 16.2666 9.85263 16.4109 9.41202 16.6017C8.97515 16.7909 8.54346 17.0399 8.14363 17.2612C7.30506 17.7254 6.60522 18.0601 5.90069 17.9391L5.76523 18.7275C6.78736 18.9031 7.73003 18.4045 8.53104 17.9612C8.951 17.7287 9.33838 17.5054 9.72999 17.3358C10.1179 17.1678 10.48 17.0666 10.833 17.0666V16.2666ZM5.90069 17.9391C5.23214 17.8242 4.74666 17.2727 4.54586 16.5879C4.34067 15.8882 4.47673 15.2122 4.8484 14.8825L4.31752 14.2841C3.62669 14.8969 3.52441 15.9476 3.77818 16.813C4.03634 17.6934 4.70711 18.5457 5.76523 18.7275L5.90069 17.9391ZM17.1 5.83329C17.1 7.91357 15.4136 9.59996 13.3333 9.59996V10.4C15.8554 10.4 17.9 8.35539 17.9 5.83329H17.1ZM13.3333 9.59996C11.253 9.59996 9.56663 7.91357 9.56663 5.83329H8.76663C8.76663 8.35539 10.8112 10.4 13.3333 10.4V9.59996ZM9.56663 5.83329C9.56663 3.75302 11.253 2.06663 13.3333 2.06663V1.26663C10.8112 1.26663 8.76663 3.31119 8.76663 5.83329H9.56663ZM13.3333 2.06663C15.4136 2.06663 17.1 3.75302 17.1 5.83329H17.9C17.9 3.31119 15.8554 1.26663 13.3333 1.26663V2.06663Z" fill="white"/>
</svg>
