<?xml version="1.0" encoding="UTF-8"?>
<svg id="Calque_1" data-name="Calque 1" xmlns="http://www.w3.org/2000/svg" viewBox="0 0 20 20">
  <path d="m17.8,4.86c-.35-1.61-1.55-2.9-3.11-3.39-.14-.04-.29-.08-.43-.11-.31-.06-.61-.09-.93-.09v.8c.14,0,.27.01.41.02,1.76.19,3.16,1.59,3.34,3.35.01.13.02.26.02.39h.8c0-.33-.04-.66-.1-.97Zm-4.96-3.57c-.3.04-.59.1-.87.18-1.42.45-2.55,1.58-3,3-.03.11-.06.23-.08.34-.08.33-.12.67-.12,1.02h.8c0-.13.01-.26.02-.39.18-1.76,1.57-3.16,3.33-3.35.14-.01.27-.02.41-.02v-.8c-.16,0-.33.01-.49.02Zm.08,8.29c-1.76-.19-3.15-1.6-3.33-3.36-.01-.13-.02-.26-.02-.39h-.8c0,.12,0,.24.01.35.02.22.05.44.1.66.03.14.07.28.11.41h-.01c.42,1.34,1.41,2.41,2.76,2.88h.02c.32.11.65.19,1,.23h0c.19.03.38.04.57.04v-.8c-.14,0-.27,0-.41-.02Zm4.18-3.75c0,.13,0,.26-.02.39-.18,1.76-1.58,3.17-3.34,3.36-.14.01-.27.02-.41.02v.8c.32,0,.62-.03.93-.09,1.77-.36,3.16-1.75,3.54-3.51.07-.32.1-.64.1-.97h-.8Zm-12.55,10.76c-.16-.52-.12-1.04.08-1.4.05-.12.13-.23.22-.31l-.53-.6c-.11.1-.2.2-.27.32-.45.62-.49,1.48-.27,2.21.26.88.93,1.74,1.99,1.92l.13-.79c-.67-.12-1.15-.67-1.35-1.35Zm4.86,0c-.43.19-.87.44-1.27.66-.83.47-1.53.8-2.24.68l-.13.79c1.02.17,1.96-.33,2.76-.77.42-.23.81-.45,1.2-.62.39-.17.75-.27,1.1-.27v-.8c-.5,0-.98.14-1.42.33Zm1.42-.33v.8c1.04,0,1.9.37,2.7.91l.44-.67c-.87-.59-1.89-1.04-3.14-1.04Zm1.5-6.59l-.57.44h-.02s-5.95,4.56-5.95,4.56l.48.63,6.49-4.94h0s.06-.05.06-.05l-.49-.64Zm-6.54,5c-.09.06-.19.09-.29.09l-.06.79c.3.02.6-.07.83-.25l-.48-.63Zm-.57-.04l-.57.57c.21.21.49.33.79.35l.06-.79c-.11-.01-.21-.06-.28-.13Zm-.68-.68l-.57.56.08.08.58.59.02.02.57-.57-.68-.68Zm-.13-.28l-.8.07c.03.29.15.57.36.77l.57-.56c-.08-.08-.12-.17-.13-.28Zm-.56-.76c-.18.24-.26.53-.24.83l.8-.07c0-.1.02-.2.08-.28l-.64-.48Zm4.99-6.82l-.06.08-4.93,6.74.64.48,4.49-6.14h.01s.5-.69.5-.69l-.65-.47Zm8.96-1.24c-.33-1.62-1.49-2.93-3.11-3.39-.14-.04-.29-.08-.43-.11-.31-.06-.61-.09-.93-.09v.8c.14,0,.27.01.41.02,1.76.19,3.16,1.59,3.34,3.35.01.13.02.26.02.39h.8c0-.33-.04-.66-.1-.97Zm-4.96-3.57c-.3.04-.59.1-.87.18-1.49.43-2.58,1.56-3,3-.03.11-.06.23-.08.34-.08.33-.12.67-.12,1.02h.8c0-.13.01-.26.02-.39.18-1.76,1.57-3.16,3.33-3.35.14-.01.27-.02.41-.02v-.8c-.16,0-.33.01-.49.02Zm.08,8.29c-1.76-.19-3.15-1.6-3.33-3.36-.01-.13-.02-.26-.02-.39h-.8c0,.12,0,.24.01.35.02.22.05.44.1.66.02.14.06.28.1.42.42,1.33,1.41,2.4,2.76,2.87.32.12.66.2,1.02.24.19.02.38.03.57.03v-.8c-.14,0-.27,0-.41-.02Zm4.18-3.75c0,.13,0,.26-.02.39-.18,1.76-1.58,3.17-3.34,3.36-.14.01-.27.02-.41.02v.8c.32,0,.62-.03.93-.09,1.85-.35,3.18-1.74,3.54-3.51.07-.32.1-.64.1-.97h-.8ZM4.88,14.32c-.14-.17-.4-.18-.56-.04l.53.6c.16-.14.18-.4.03-.56Zm9.09,2.99l-.44.67c.18.12.43.07.55-.11s.08-.43-.11-.56Zm-1.08-7.55c-.13-.18-.38-.21-.56-.08l.49.64c.17-.14.21-.39.07-.56Zm-3.49-3.75c-.18-.13-.43-.09-.56.09l.65.47c.13-.18.09-.43-.09-.56Z" style="fill: #f8f9fa; stroke-width: 0px;"/>
  <path d="m17.1,5.83c0,.13,0,.26-.02.39-.18,1.76-1.58,3.17-3.34,3.36-.14.01-.27.02-.41.02s-.27,0-.41-.02c-1.76-.19-3.15-1.6-3.33-3.36-.01-.13-.02-.26-.02-.39s.01-.26.02-.39c.18-1.76,1.57-3.16,3.33-3.35.14-.01.27-.02.41-.02s.27.01.41.02c1.76.19,3.16,1.59,3.34,3.35.01.13.02.26.02.39Z" style="fill: #f8f9fa; stroke-width: 0px;"/>
</svg>