<svg width="24" height="24" viewBox="0 0 24 24" fill="none" xmlns="http://www.w3.org/2000/svg">
<path d="M19.5 8.5H16.5V6.25C16.5 5.05653 16.0259 3.91193 15.182 3.06802C14.3381 2.22411 13.1935 1.75 12 1.75C10.8065 1.75 9.66193 2.22411 8.81802 3.06802C7.97411 3.91193 7.5 5.05653 7.5 6.25V8.5H4.5C4.10218 8.5 3.72064 8.65804 3.43934 8.93934C3.15804 9.22064 3 9.60218 3 10V20.5C3 20.8978 3.15804 21.2794 3.43934 21.5607C3.72064 21.842 4.10218 22 4.5 22H19.5C19.8978 22 20.2794 21.842 20.5607 21.5607C20.842 21.2794 21 20.8978 21 20.5V10C21 9.60218 20.842 9.22064 20.5607 8.93934C20.2794 8.65804 19.8978 8.5 19.5 8.5ZM12.75 15.8716V18.25C12.75 18.4489 12.671 18.6397 12.5303 18.7803C12.3897 18.921 12.1989 19 12 19C11.8011 19 11.6103 18.921 11.4697 18.7803C11.329 18.6397 11.25 18.4489 11.25 18.25V15.8716C10.7496 15.6946 10.3278 15.3465 10.0593 14.8887C9.79072 14.4309 9.69265 13.8929 9.7824 13.3698C9.87216 12.8466 10.144 12.3721 10.5498 12.03C10.9556 11.6879 11.4692 11.5002 12 11.5002C12.5308 11.5002 13.0444 11.6879 13.4502 12.03C13.856 12.3721 14.1278 12.8466 14.2176 13.3698C14.3073 13.8929 14.2093 14.4309 13.9407 14.8887C13.6722 15.3465 13.2504 15.6946 12.75 15.8716ZM15 8.5H9V6.25C9 5.45435 9.31607 4.69129 9.87868 4.12868C10.4413 3.56607 11.2044 3.25 12 3.25C12.7956 3.25 13.5587 3.56607 14.1213 4.12868C14.6839 4.69129 15 5.45435 15 6.25V8.5Z" fill="#F8F9FA"/>
</svg>
