<svg width="16" height="16" viewBox="0 0 16 16" fill="none" xmlns="http://www.w3.org/2000/svg">
<path d="M11.3333 7.33331H12C12.5304 7.33331 13.0391 7.54403 13.4142 7.9191C13.7893 8.29417 14 8.80288 14 9.33331C14 9.86375 13.7893 10.3725 13.4142 10.7475C13.0391 11.1226 12.5304 11.3333 12 11.3333H11.3333M6 7.99998V12M8.66667 7.99998V12M3.33333 5.33331V13.3333C3.33333 13.6869 3.47381 14.0261 3.72386 14.2761C3.97391 14.5262 4.31304 14.6666 4.66667 14.6666H10C10.3536 14.6666 10.6928 14.5262 10.9428 14.2761C11.1929 14.0261 11.3333 13.6869 11.3333 13.3333V5.33331M9.33333 4.99998C8.66667 4.99998 8.37333 5.33331 7.33333 5.33331C6.29333 5.33331 6 4.99998 5.33333 4.99998C4.66667 4.99998 4.18667 5.33331 3.66667 5.33331C3.22464 5.33331 2.80072 5.15772 2.48816 4.84516C2.17559 4.5326 2 4.10867 2 3.66665C2 3.22462 2.17559 2.8007 2.48816 2.48813C2.80072 2.17557 3.22464 1.99998 3.66667 1.99998C4.18667 1.99998 4.71333 2.33331 5.33333 2.33331C5.95333 2.33331 6.29333 1.33331 7.33333 1.33331C8.37333 1.33331 8.66667 2.33331 9.33333 2.33331C10 2.33331 10.48 1.99998 11 1.99998C11.442 1.99998 11.866 2.17557 12.1785 2.48813C12.4911 2.8007 12.6667 3.22462 12.6667 3.66665C12.6667 4.10867 12.4911 4.5326 12.1785 4.84516C11.866 5.15772 11.442 5.33331 11 5.33331C10.48 5.33331 10 4.99998 9.33333 4.99998Z" stroke="white" stroke-width="0.8" stroke-linecap="round" stroke-linejoin="round"/>
</svg>
