<svg width="24" height="24" viewBox="0 0 24 24" fill="none" xmlns="http://www.w3.org/2000/svg">
<path d="M23.4109 11.9351C23.3781 11.8611 22.584 10.0995 20.8187 8.3342C18.4665 5.98202 15.4956 4.73889 12.2256 4.73889C8.95558 4.73889 5.98464 5.98202 3.63245 8.3342C1.86714 10.0995 1.06933 11.8639 1.04026 11.9351C0.997621 12.0311 0.975586 12.1349 0.975586 12.2398C0.975586 12.3448 0.997621 12.4486 1.04026 12.5445C1.07308 12.6186 1.86714 14.3792 3.63245 16.1445C5.98464 18.4958 8.95558 19.7389 12.2256 19.7389C15.4956 19.7389 18.4665 18.4958 20.8187 16.1445C22.584 14.3792 23.3781 12.6186 23.4109 12.5445C23.4535 12.4486 23.4756 12.3448 23.4756 12.2398C23.4756 12.1349 23.4535 12.0311 23.4109 11.9351ZM12.2256 18.2389C9.33995 18.2389 6.81901 17.1898 4.73214 15.1217C3.87587 14.2702 3.14738 13.2992 2.56933 12.2389C3.14722 11.1785 3.87573 10.2075 4.73214 9.35608C6.81901 7.28795 9.33995 6.23889 12.2256 6.23889C15.1112 6.23889 17.6321 7.28795 19.719 9.35608C20.577 10.2073 21.307 11.1783 21.8865 12.2389C21.2106 13.5008 18.2659 18.2389 12.2256 18.2389ZM12.2256 7.73889C11.3356 7.73889 10.4655 8.00281 9.72551 8.49728C8.98549 8.99175 8.40871 9.69455 8.06812 10.5168C7.72752 11.3391 7.63841 12.2439 7.81204 13.1168C7.98568 13.9897 8.41426 14.7915 9.0436 15.4209C9.67293 16.0502 10.4748 16.4788 11.3477 16.6524C12.2206 16.8261 13.1254 16.7369 13.9477 16.3963C14.7699 16.0558 15.4727 15.479 15.9672 14.739C16.4617 13.9989 16.7256 13.1289 16.7256 12.2389C16.7243 11.0458 16.2498 9.90193 15.4062 9.05828C14.5625 8.21464 13.4187 7.74013 12.2256 7.73889ZM12.2256 15.2389C11.6322 15.2389 11.0522 15.0629 10.5589 14.7333C10.0655 14.4037 9.681 13.9351 9.45394 13.3869C9.22688 12.8388 9.16747 12.2356 9.28322 11.6536C9.39898 11.0717 9.6847 10.5371 10.1043 10.1176C10.5238 9.69801 11.0584 9.41229 11.6403 9.29654C12.2222 9.18078 12.8254 9.24019 13.3736 9.46725C13.9218 9.69432 14.3903 10.0788 14.72 10.5722C15.0496 11.0655 15.2256 11.6455 15.2256 12.2389C15.2256 13.0345 14.9095 13.7976 14.3469 14.3602C13.7843 14.9228 13.0212 15.2389 12.2256 15.2389Z" fill="#F8F9FA"/>
</svg>
