<?xml version="1.0" encoding="UTF-8"?>
<svg id="Calque_1" data-name="Calque 1" xmlns="http://www.w3.org/2000/svg" viewBox="0 0 1078.65 772.45">
  <g>
    <path d="m356.01,209.68c30.68,3.19,39.04,9.16,44.62,34.66,2.79,11.95,6.77,41.03,6.77,75.29,0,7.57-.79,9.96-7.17,10.36-18.32.8-41.83.8-53.38.8-8.37,0-43.02,0-52.58-.8-6.38-.4-7.17-1.59-7.57-6.38-.4-4.78-.4-31.87-1.19-38.24-.4-3.98-1.59-5.58-6.38-6.37-1.99-.4-6.78-.8-9.96-.8s-7.96.4-9.96.8c-3.98.8-5.98,1.99-6.37,6.37-1.2,15.94-1.2,39.04-1.2,62.54,0,21.11,0,46.61,1.2,62.54.39,4.38,2.39,5.58,6.38,6.37,1.99.4,6.77.8,9.95.8s7.97-.4,9.96-.8c4.78-.8,5.98-2.39,6.38-6.37.79-6.38,1.19-37.85,1.59-42.63.4-4.78,1.2-5.98,7.57-6.37,9.56-.8,43.82-.8,52.19-.8,11.55,0,35.06,0,53.38.8,6.38.4,7.57,2.79,7.57,10.36-.8,34.26-4.38,67.72-7.17,79.67-5.58,25.5-13.94,31.47-44.62,34.66-21.11,2.39-62.54,3.98-86.84,3.98-25.89,0-64.13-1.59-86.84-3.98-30.67-3.19-38.64-8.77-44.62-34.66-4.38-19.12-8.36-56.97-8.36-103.58s3.98-84.45,8.36-103.58c5.98-27.09,15.54-31.47,44.62-34.66,21.11-2.39,62.55-3.98,86.84-3.98s65.74,1.59,86.84,3.98Z" style="stroke-width: 0px;"/>
    <path d="m537.05,485.75c-7.97.8-27.89,1.59-48.2,1.59s-38.24-.8-47.4-1.59c-8.37-.8-12.35-4.38-12.75-14.34-1.2-32.27-1.2-76.88-1.2-123.49s0-91.23,1.2-123.49c.4-9.96,4.38-13.54,12.75-14.34,18.72-1.59,77.28-1.59,99.19-1.59,20.31,0,94.81.4,105.96,1.59,8.37.8,13.55,4.38,13.95,14.34.39,7.97.39,19.12.39,27.88s0,18.72-.39,26.69c-.4,8.37-2.79,11.15-9.96,11.15h-96.81c-3.58,0-4.78,1.59-4.78,7.17v22.31c0,5.58,1.19,6.37,4.78,6.37h88.04c6.78,0,9.56,1.2,9.96,7.97.4,7.97.4,17.93.4,25.89s0,17.93-.4,25.89c-.39,6.77-3.18,7.97-9.96,7.97h-88.04c-3.58,0-4.78,1.59-4.78,7.17v70.51c0,9.96-3.59,13.54-11.95,14.34Z" style="stroke-width: 0px;"/>
    <path d="m949.31,347.91c0,46.61-3.98,84.45-8.36,103.58-5.98,27.09-15.54,31.47-44.62,34.66-12.35,1.59-31.87,2.39-50.59,3.18v10.76c0,6.38,2.39,8.37,9.16,9.16,3.58.4,13.54.4,25.49.4,5.98,0,7.97,1.99,7.97,7.97,0,3.98,0,20.32-.79,27.88-.4,5.98-2.39,7.57-8.76,8.37-9.96.4-29.88.8-45.02.8-13.15,0-26.3-.4-40.24-1.19-15.14-.8-21.51-6.77-21.91-21.51-.25-5.05-.5-14.56-.65-24.81-.15-9.97-7.97-18.15-17.93-18.73-11.63-.68-22.44-1.48-30.41-2.27-29.08-3.19-38.64-7.57-44.62-34.66-4.39-19.12-8.37-56.97-8.37-103.58s3.98-84.45,8.37-103.58c5.98-27.09,15.53-31.47,44.62-34.66,21.11-2.39,62.54-3.98,86.84-3.98s65.73,1.59,86.84,3.98c29.08,3.19,38.64,7.57,44.62,34.66,4.38,19.12,8.36,56.97,8.36,103.58Zm-157.35,0c0,22.31,0,46.61,1.19,62.54.4,4.78,2.39,5.58,6.38,6.37,2.39.4,6.78.8,9.96.8s7.56-.4,9.96-.8c3.98-.8,5.98-1.99,6.37-6.37,1.2-15.94,1.2-40.24,1.2-62.54s0-46.61-1.2-62.54c-.39-4.78-2.39-5.58-6.37-6.37-2.39-.4-6.77-.8-9.96-.8s-7.97.4-9.96.8c-3.98.8-5.98,1.99-6.38,6.37-1.19,15.94-1.19,40.24-1.19,62.54Z" style="stroke-width: 0px;"/>
  </g>
  <rect x="901.01" y="509.22" width="48.3" height="45.38" rx="4.27" ry="4.27" style="stroke-width: 0px;"/>
  <g>
    <path d="m197.6,503.43c5.95.58,7.57,1.68,8.65,6.36.54,2.19,1.31,7.53,1.31,13.81,0,1.39-.16,1.83-1.39,1.9-3.55.15-8.11.15-10.35.15-1.62,0-8.34,0-10.19-.15-1.24-.07-1.39-.29-1.47-1.17-.08-.88-.08-5.85-.23-7.02-.08-.73-.31-1.02-1.24-1.17-.39-.07-1.31-.15-1.93-.15s-1.54.07-1.93.15c-.77.15-1.16.37-1.23,1.17-.23,2.92-.23,7.16-.23,11.48,0,3.87,0,8.55.23,11.48.08.8.46,1.02,1.24,1.17.39.07,1.31.15,1.93.15s1.54-.07,1.93-.15c.93-.15,1.16-.44,1.24-1.17.15-1.17.23-6.94.31-7.82.08-.88.23-1.1,1.47-1.17,1.85-.15,8.5-.15,10.12-.15,2.24,0,6.8,0,10.35.15,1.24.07,1.47.51,1.47,1.9-.15,6.29-.85,12.43-1.39,14.62-1.08,4.68-2.7,5.77-8.65,6.36-4.09.44-12.13.73-16.84.73-5.02,0-12.43-.29-16.84-.73-5.95-.58-7.49-1.61-8.65-6.36-.85-3.51-1.62-10.45-1.62-19s.77-15.49,1.62-19c1.16-4.97,3.01-5.77,8.65-6.36,4.09-.44,12.13-.73,16.84-.73s12.74.29,16.84.73Z" style="stroke-width: 0px;"/>
    <path d="m267.41,551.97c0,1.32-.7,2.05-2.24,2.19-1.54.15-5.87.29-9.42.29s-7.03-.07-8.57-.22c-2.55-.22-2.93-.58-3.4-3.44l-.7-4.24h-8.19l-.69,4.24c-.46,2.85-.85,3.22-3.4,3.44-1.54.15-5.02.22-8.57.22s-7.88-.15-9.42-.29c-1.54-.15-2.24-.88-2.24-2.19,0-1.17.39-3,.85-4.82l10.19-41.44c.39-1.68,1.39-2.27,3.24-2.34,1.85-.07,9.5-.22,14.13-.22s12.28.15,14.13.22c1.85.07,2.86.66,3.24,2.34l10.19,41.44c.46,1.83.85,3.65.85,4.82Zm-31.2-17.47h5.56l-2.63-16.81h-.31l-2.63,16.81Z" style="stroke-width: 0px;"/>
    <path d="m313.2,554.09c-1.54.15-5.41.29-9.34.29s-7.41-.15-9.19-.29c-1.62-.15-2.39-.8-2.47-2.63-.23-5.92-.23-14.11-.23-22.66s0-16.74.23-22.66c.08-1.83.85-2.49,2.47-2.63,3.63-.29,14.98-.29,19.23-.29,3.94,0,18.38.07,20.54.29,1.62.15,2.63.8,2.7,2.63.08,1.46.08,3.51.08,5.12s0,3.44-.08,4.9c-.08,1.53-.54,2.05-1.93,2.05h-18.77c-.69,0-.93.29-.93,1.32v4.09c0,1.02.23,1.17.93,1.17h17.07c1.31,0,1.85.22,1.93,1.46.08,1.46.08,3.29.08,4.75s0,3.29-.08,4.75c-.08,1.24-.62,1.46-1.93,1.46h-17.07c-.69,0-.93.29-.93,1.32v12.94c0,1.83-.69,2.49-2.32,2.63Z" style="stroke-width: 0px;"/>
    <path d="m386.88,503.43c5.64.58,7.49,1.39,8.65,6.36.85,3.51,1.62,10.45,1.62,19s-.77,15.49-1.62,19c-1.16,4.97-3.01,5.77-8.65,6.36-4.09.44-12.13.73-16.84.73s-12.74-.29-16.84-.73c-5.64-.58-7.49-1.39-8.65-6.36-.85-3.51-1.62-10.45-1.62-19s.77-15.49,1.62-19c1.16-4.97,3.01-5.77,8.65-6.36,4.09-.44,12.13-.73,16.84-.73s12.74.29,16.84.73Zm-18.77,12.72c-.77.15-1.16.37-1.23,1.17-.23,2.92-.23,7.38-.23,11.48s0,8.55.23,11.48c.08.88.46,1.02,1.24,1.17.46.07,1.31.15,1.93.15s1.47-.07,1.93-.15c.77-.15,1.16-.37,1.24-1.17.23-2.92.23-7.38.23-11.48s0-8.55-.23-11.48c-.08-.88-.46-1.02-1.24-1.17-.46-.07-1.31-.15-1.93-.15s-1.54.07-1.93.15Z" style="stroke-width: 0px;"/>
    <path d="m436.77,503.51c1.54-.15,5.33-.29,9.27-.29s7.72.15,9.27.29c1.62.15,2.39.8,2.47,2.63.23,6.14.31,19,.31,26.6,0,18.13-3.24,22.15-27.03,22.15s-27.03-3.58-27.03-22.15c0-7.6.08-20.46.31-26.6.08-1.83.85-2.49,2.47-2.63,1.54-.15,5.41-.29,9.27-.29s7.72.15,9.27.29c1.62.15,2.32.8,2.32,2.63v33.55c0,1.68.31,1.9,3.4,1.9s3.4-.22,3.4-1.9v-33.55c0-1.83.7-2.49,2.32-2.63Z" style="stroke-width: 0px;"/>
    <path d="m515.77,511.77c0,1.46,0,4.17-.08,5.63-.08,1.83-1.16,2.63-3.09,2.63-2.39,0-7.88-.15-11.04-.15v8.92c0,8.7,0,16.74-.23,22.66-.08,1.83-.85,2.49-2.47,2.63-1.54.15-5.48.29-9.35.29s-7.8-.15-9.35-.29c-1.62-.15-2.39-.8-2.47-2.63-.23-5.92-.23-13.96-.23-22.66v-8.92c-3.17,0-8.65.15-11.04.15-1.93,0-3.01-.8-3.09-2.63-.08-1.46-.08-4.17-.08-5.63s0-4.17.08-5.63c.08-1.83,1.16-2.49,2.7-2.63,2.16-.22,14.91-.29,23.48-.29s21.32.15,23.48.29c1.54.15,2.63.8,2.7,2.63.08,1.46.08,4.17.08,5.63Z" style="stroke-width: 0px;"/>
    <path d="m594.85,528.8c0,8.55-.77,15.49-1.62,19-1.16,4.97-3.01,5.77-8.65,6.36-2.39.29-6.18.44-9.81.58v1.97c0,1.17.46,1.53,1.78,1.68.7.07,2.63.07,4.94.07,1.16,0,1.54.37,1.54,1.46,0,.73,0,3.73-.16,5.12-.08,1.1-.46,1.39-1.7,1.53-1.93.07-5.79.15-8.73.15-2.55,0-5.1-.07-7.8-.22-2.93-.15-4.17-1.24-4.25-3.95-.03-.59-.06-1.5-.09-2.57-.07-2.94-2.39-5.34-5.32-5.53-1.55-.1-2.97-.2-4.09-.31-5.64-.58-7.49-1.39-8.65-6.36-.85-3.51-1.62-10.45-1.62-19s.77-15.49,1.62-19c1.16-4.97,3.01-5.77,8.65-6.36,4.09-.44,12.13-.73,16.84-.73s12.74.29,16.84.73c5.64.58,7.49,1.39,8.65,6.36.85,3.51,1.62,10.45,1.62,19Zm-30.51,0c0,4.09,0,8.55.23,11.48.08.88.46,1.02,1.24,1.17.46.07,1.31.15,1.93.15s1.47-.07,1.93-.15c.77-.15,1.16-.37,1.23-1.17.23-2.92.23-7.38.23-11.48s0-8.55-.23-11.48c-.08-.88-.46-1.02-1.23-1.17-.46-.07-1.31-.15-1.93-.15s-1.54.07-1.93.15c-.77.15-1.16.37-1.24,1.17-.23,2.92-.23,7.38-.23,11.48Z" style="stroke-width: 0px;"/>
    <path d="m206.25,547.82c-1.16,4.97-3.01,5.77-8.65,6.36-1.78.17-4.28.34-6.92.47-1.35.07-2.42,1.18-2.44,2.53-.03,2.19-.08,4.34-.14,5.4-.08,2.7-1.31,3.8-4.25,3.95-2.7.15-5.25.22-7.8.22-2.93,0-6.8-.07-8.73-.15-1.24-.15-1.62-.44-1.7-1.53-.16-1.39-.16-4.39-.16-5.12,0-1.1.39-1.46,1.54-1.46,2.32,0,4.25,0,4.94-.07,1.31-.15,1.78-.51,1.78-1.68v-1.97c-3.63-.15-7.41-.29-9.81-.58-5.64-.58-7.49-1.39-8.65-6.36" style="stroke-width: 0px;"/>
    <path d="m634.46,503.51c1.54-.15,5.33-.29,9.27-.29s7.72.15,9.27.29c1.62.15,2.39.8,2.47,2.63.23,6.14.31,19,.31,26.6,0,18.13-3.24,22.15-27.03,22.15s-27.03-3.58-27.03-22.15c0-7.6.08-20.46.31-26.6.08-1.83.85-2.49,2.47-2.63,1.54-.15,5.41-.29,9.27-.29s7.72.15,9.27.29c1.62.15,2.32.8,2.32,2.63v33.55c0,1.68.31,1.9,3.4,1.9s3.4-.22,3.4-1.9v-33.55c0-1.83.69-2.49,2.32-2.63Z" style="stroke-width: 0px;"/>
    <path d="m706.59,503.43c5.64.58,7.49,1.39,8.65,6.36.85,3.51,1.62,10.45,1.62,19s-.77,15.49-1.62,19c-1.16,4.97-3.01,5.77-8.65,6.36-4.09.44-12.13.73-16.84.73s-12.74-.29-16.84-.73c-5.64-.58-7.49-1.39-8.65-6.36-.85-3.51-1.62-10.45-1.62-19s.77-15.49,1.62-19c1.16-4.97,3.01-5.77,8.65-6.36,4.09-.44,12.13-.73,16.84-.73s12.74.29,16.84.73Zm-18.77,12.72c-.77.15-1.16.37-1.23,1.17-.23,2.92-.23,7.38-.23,11.48s0,8.55.23,11.48c.08.88.46,1.02,1.24,1.17.46.07,1.31.15,1.93.15s1.47-.07,1.93-.15c.77-.15,1.16-.37,1.24-1.17.23-2.92.23-7.38.23-11.48s0-8.55-.23-11.48c-.08-.88-.46-1.02-1.24-1.17-.46-.07-1.31-.15-1.93-.15s-1.54.07-1.93.15Z" style="stroke-width: 0px;"/>
    <path d="m745.98,503.51c1.62.15,2.39.8,2.47,2.63.23,5.92.23,14.11.23,22.66s0,16.74-.23,22.66c-.08,1.83-.85,2.49-2.47,2.63-1.54.15-5.79.29-9.65.29s-8.11-.15-9.65-.29c-1.62-.15-2.39-.8-2.47-2.63-.23-5.92-.23-13.96-.23-22.66s0-16.74.23-22.66c.08-1.83.85-2.49,2.47-2.63,1.54-.15,5.79-.29,9.65-.29s8.11.15,9.65.29Z" style="stroke-width: 0px;"/>
  </g>
</svg>