<?xml version="1.0" encoding="UTF-8" standalone="no"?>
<svg
   version="1.1"
   viewBox="-5.0 -10.0 110.0 135.0"
   id="svg3"
   sodipodi:docname="noun-edit-7537995.svg"
   inkscape:version="1.4 (e7c3feb1, 2024-10-09)"
   xmlns:inkscape="http://www.inkscape.org/namespaces/inkscape"
   xmlns:sodipodi="http://sodipodi.sourceforge.net/DTD/sodipodi-0.dtd"
   xmlns="http://www.w3.org/2000/svg"
   xmlns:svg="http://www.w3.org/2000/svg">
  <defs
     id="defs3" />
  <sodipodi:namedview
     id="namedview3"
     pagecolor="#ffffff"
     bordercolor="#000000"
     borderopacity="0.25"
     inkscape:showpageshadow="2"
     inkscape:pageopacity="0.0"
     inkscape:pagecheckerboard="0"
     inkscape:deskcolor="#d1d1d1"
     inkscape:zoom="2.1189977"
     inkscape:cx="-29.731038"
     inkscape:cy="133.31775"
     inkscape:window-width="1728"
     inkscape:window-height="1080"
     inkscape:window-x="0"
     inkscape:window-y="37"
     inkscape:window-maximized="0"
     inkscape:current-layer="svg3" />
  <path
     d="m 26.352,95.668 h 44.711 c 6.6289,0 12.02,-5.3906 12.02,-12.02 V 56.175 c 0,-1.1484 -0.93359,-2.082 -2.082,-2.082 -1.14841,0 -2.082,0.93359 -2.082,2.082 v 27.473 c 0,4.3281 -3.5234,7.8516 -7.8516,7.8516 h -44.715 c -4.3281,0 -7.8516,-3.5234 -7.8516,-7.8516 V 38.937 c 0,-4.3281 3.5234,-7.8516 7.8516,-7.8516 h 27.473 c 1.1484,0 2.082,-0.93359 2.082,-2.082 0,-1.1484 -0.93359,-2.082 -2.082,-2.082 h -27.473 c -6.6289,0 -12.02,5.3906 -12.02,12.02 v 44.711 c 0,6.6289 5.3906,12.02 12.02,12.02 z"
     id="path1" />
  <path
     d="m 94.047,21.844 -5.8906,-5.8906 c -2.4375,-2.4375 -6.4023,-2.4375 -8.8398,0 l -45.668,45.664 c -0.25781,0.25781 -0.44141,0.57422 -0.53906,0.92578 l -4.418,16.203 c -0.19531,0.72266 0.0078,1.4922 0.53906,2.0195 0.39453,0.39453 0.92578,0.60938 1.4727,0.60938 0.18359,0 0.36719,-0.02344 0.54688,-0.07422 l 16.203,-4.418 c 0.35156,-0.09766 0.66797,-0.28125 0.92578,-0.53906 l 45.668,-45.668 c 2.4375,-2.4336 2.4375,-6.4023 0,-8.8398 z M 38.07,63.09 76.371,24.789 l 8.8398,8.8398 -38.301,38.301 z m -1.8789,4.0117 6.707,6.707 -9.2227,2.5156 z m 54.91,-39.363 -2.9453,2.9453 -8.8398,-8.8398 2.9453,-2.9453 c 0.8125,-0.81641 2.1367,-0.8125 2.9492,0 l 5.8906,5.8906 c 0.8125,0.8125 0.8125,2.1328 0,2.9492 z"
     id="path2" />
</svg>
