<svg width="16" height="16" viewBox="0 0 16 16" fill="none" xmlns="http://www.w3.org/2000/svg">
<path d="M4.57175 5.1917V4.7917H4.36471L4.24517 4.96073L4.57175 5.1917ZM7.4962 5.1917H7.8962V4.7917H7.4962V5.1917ZM7.4962 7.51075V7.91075H7.8962V7.51075H7.4962ZM4.72931 7.51075L4.36907 7.68462L4.47821 7.91075H4.72931V7.51075ZM4.00014 5.99997L3.67356 5.769L3.53742 5.9615L3.6399 6.17383L4.00014 5.99997ZM12.1308 2.1329L12.4424 1.88214L12.4424 1.88213L12.1308 2.1329ZM11.4398 1.43821L11.2653 1.79811L11.2653 1.79813L11.4398 1.43821ZM11.4398 4.56175L11.2653 4.20183L11.2653 4.20185L11.4398 4.56175ZM12.1308 3.86705L12.4424 4.11782L12.4424 4.11781L12.1308 3.86705ZM12.2561 3.71129L11.9445 3.4605L11.9445 3.46053L12.2561 3.71129ZM12.2561 2.28867L11.9445 2.53942L11.9445 2.53946L12.2561 2.28867ZM12.1308 8.13291L11.8191 8.38368L11.8192 8.3837L12.1308 8.13291ZM11.4398 7.43825L11.2652 7.79812L11.2654 7.79819L11.4398 7.43825ZM8.00004 7.33331V6.93331C7.77913 6.93331 7.60004 7.1124 7.60004 7.33331H8.00004ZM8.00004 10.6666H7.60004C7.60004 10.8876 7.77913 11.0666 8.00004 11.0666V10.6666ZM11.4398 10.5617L11.2654 10.2018L11.2652 10.2018L11.4398 10.5617ZM12.1308 9.86705L11.8192 9.61626L11.8191 9.61628L12.1308 9.86705ZM12.2561 9.71131L12.5677 9.9621L12.5677 9.9621L12.2561 9.71131ZM12.2561 8.28865L12.5677 8.03786L12.5677 8.03786L12.2561 8.28865ZM3.86929 5.46623L3.55767 5.21545L3.55767 5.21545L3.86929 5.46623ZM8.00004 7.99998V8.39998C8.22095 8.39998 8.40004 8.22089 8.40004 7.99998H8.00004ZM4.56021 7.89505L4.73481 7.53516L4.73472 7.53512L4.56021 7.89505ZM3.86929 7.20038L4.18092 6.9496L4.18089 6.94957L3.86929 7.20038ZM3.74394 7.04465L3.43231 7.29542L3.43234 7.29546L3.74394 7.04465ZM3.74394 5.622L4.05556 5.87278L4.05556 5.87278L3.74394 5.622ZM7.60004 14.6666C7.60004 14.8876 7.77913 15.0666 8.00004 15.0666C8.22095 15.0666 8.40004 14.8876 8.40004 14.6666H7.60004ZM8.40004 1.99998C8.40004 1.77907 8.22095 1.59998 8.00004 1.59998C7.77913 1.59998 7.60004 1.77907 7.60004 1.99998H8.40004ZM6.00004 14.2666C5.77913 14.2666 5.60004 14.4457 5.60004 14.6666C5.60004 14.8876 5.77913 15.0666 6.00004 15.0666V14.2666ZM10 15.0666C10.221 15.0666 10.4 14.8876 10.4 14.6666C10.4 14.4457 10.221 14.2666 10 14.2666V15.0666ZM4.57175 5.5917H7.4962V4.7917H4.57175V5.5917ZM7.0962 5.1917V7.51075H7.8962V5.1917H7.0962ZM7.4962 7.11075H4.72931V7.91075H7.4962V7.11075ZM5.08954 7.33689L4.36038 5.8261L3.6399 6.17383L4.36907 7.68462L5.08954 7.33689ZM4.32672 6.23093L4.89834 5.42266L4.24517 4.96073L3.67356 5.769L4.32672 6.23093ZM12.4424 1.88213C12.1502 1.51899 11.9306 1.23164 11.6144 1.07829L11.2653 1.79813C11.3817 1.85459 11.4786 1.96044 11.8191 2.38367L12.4424 1.88213ZM11.6144 1.07832C11.2962 0.923966 10.9382 0.933313 10.4822 0.933313V1.73331C11.0147 1.73331 11.151 1.74266 11.2653 1.79811L11.6144 1.07832ZM10.4822 0.933313H9.07304V1.73331H10.4822V0.933313ZM9.07304 0.933313C8.83184 0.933313 8.60928 0.932403 8.4292 0.957474C8.23615 0.984351 8.03409 1.04767 7.86943 1.21817L8.44491 1.77389C8.44516 1.77363 8.44533 1.77347 8.44542 1.77339C8.44547 1.77334 8.4455 1.77331 8.44552 1.7733C8.44553 1.77329 8.44554 1.77328 8.44554 1.77328C8.44554 1.77328 8.44555 1.77328 8.44555 1.77327C8.44555 1.77327 8.44555 1.77327 8.44555 1.77327C8.44555 1.77327 8.44555 1.77327 8.44555 1.77327C8.44555 1.77327 8.44555 1.77328 8.44554 1.77328C8.44554 1.77328 8.44554 1.77328 8.44553 1.77329C8.44552 1.77329 8.44551 1.7733 8.4455 1.77331C8.44548 1.77332 8.44549 1.77332 8.44555 1.77328C8.44562 1.77323 8.44606 1.77293 8.44702 1.77242C8.44798 1.77189 8.44965 1.77105 8.45221 1.76996C8.46322 1.76527 8.48838 1.75695 8.53951 1.74983C8.65163 1.73422 8.80844 1.73331 9.07304 1.73331V0.933313ZM7.86943 1.21817C7.70668 1.38671 7.64809 1.59018 7.62301 1.78333C7.59925 1.96637 7.60004 2.19346 7.60004 2.44443H8.40004C8.40004 2.1716 8.40083 2.00586 8.41635 1.88633C8.42353 1.83104 8.4322 1.80168 8.43807 1.7869C8.44076 1.78012 8.44267 1.77694 8.44329 1.77596C8.44382 1.77511 8.44419 1.77465 8.44491 1.77389L7.86943 1.21817ZM7.60004 2.44443V4.66665H8.40004V2.44443H7.60004ZM8.00004 5.06665H10.4822V4.26665H8.00004V5.06665ZM10.4822 5.06665C10.9382 5.06665 11.2962 5.07599 11.6144 4.92164L11.2653 4.20185C11.151 4.2573 11.0147 4.26665 10.4822 4.26665V5.06665ZM11.6144 4.92166C11.9306 4.76832 12.1502 4.48097 12.4424 4.11782L11.8191 3.61628C11.4786 4.03952 11.3817 4.14537 11.2653 4.20183L11.6144 4.92166ZM12.4424 4.11781L12.5677 3.96205L11.9445 3.46053L11.8191 3.61629L12.4424 4.11781ZM12.5677 3.96209C12.6983 3.79981 12.8195 3.65035 12.9038 3.51458C12.9941 3.36921 13.0667 3.20251 13.0667 2.99998H12.2667C12.2667 3.00257 12.2667 3.00685 12.263 3.01759C12.2585 3.0306 12.2482 3.05389 12.2243 3.09246C12.1717 3.17703 12.0876 3.28266 11.9445 3.4605L12.5677 3.96209ZM13.0667 2.99998C13.0667 2.79745 12.9941 2.63075 12.9038 2.48538C12.8195 2.34961 12.6983 2.20015 12.5677 2.03787L11.9445 2.53946C12.0876 2.7173 12.1717 2.82293 12.2243 2.9075C12.2482 2.94607 12.2585 2.96936 12.263 2.98237C12.2667 2.99311 12.2667 2.99739 12.2667 2.99998H13.0667ZM12.5678 2.03791L12.4424 1.88214L11.8191 2.38365L11.9445 2.53942L12.5678 2.03791ZM12.4424 7.88215C12.1502 7.519 11.9306 7.23162 11.6143 7.07831L11.2654 7.79819C11.3818 7.85461 11.4786 7.96042 11.8191 8.38368L12.4424 7.88215ZM11.6145 7.07837C11.2962 6.92396 10.9381 6.93331 10.4822 6.93331V7.73331C11.0147 7.73331 11.1509 7.74266 11.2652 7.79812L11.6145 7.07837ZM10.4822 6.93331H8.00004V7.73331H10.4822V6.93331ZM7.60004 7.33331V10.6666H8.40004V7.33331H7.60004ZM8.00004 11.0666H10.4822V10.2666H8.00004V11.0666ZM10.4822 11.0666C10.9381 11.0666 11.2962 11.076 11.6145 10.9216L11.2652 10.2018C11.1509 10.2573 11.0147 10.2666 10.4822 10.2666V11.0666ZM11.6143 10.9217C11.9306 10.7683 12.1502 10.481 12.4424 10.1178L11.8191 9.61628C11.4786 10.0395 11.3818 10.1454 11.2654 10.2018L11.6143 10.9217ZM12.4424 10.1178L12.5677 9.9621L11.9445 9.46052L11.8192 9.61626L12.4424 10.1178ZM12.5677 9.9621C12.6983 9.79981 12.8195 9.65035 12.9038 9.51458C12.9941 9.36921 13.0667 9.2025 13.0667 8.99998H12.2667C12.2667 9.00257 12.2667 9.00685 12.263 9.01758C12.2585 9.0306 12.2482 9.05389 12.2243 9.09247C12.1717 9.17704 12.0876 9.28268 11.9445 9.46053L12.5677 9.9621ZM13.0667 8.99998C13.0667 8.79745 12.9941 8.63075 12.9038 8.48538C12.8195 8.34961 12.6983 8.20015 12.5677 8.03786L11.9445 8.53943C12.0876 8.71728 12.1717 8.82291 12.2243 8.90749C12.2482 8.94607 12.2585 8.96936 12.263 8.98238C12.2667 8.99311 12.2667 8.99739 12.2667 8.99998H13.0667ZM12.5677 8.03786L12.4424 7.88212L11.8192 8.3837L11.9445 8.53943L12.5677 8.03786ZM4.18092 5.71701C4.52151 5.29378 4.61836 5.18791 4.73477 5.13145L4.38566 4.41164C4.0695 4.56498 3.84991 4.85231 3.55767 5.21545L4.18092 5.71701ZM4.73477 5.13145C4.84911 5.07599 4.98536 5.06665 5.51791 5.06665V4.26665C5.06191 4.26665 4.70389 4.2573 4.38566 4.41164L4.73477 5.13145ZM5.51791 5.06665H8.00004V4.26665H5.51791V5.06665ZM7.60004 4.66665V7.99998H8.40004V4.66665H7.60004ZM8.00004 7.59998H5.51791V8.39998H8.00004V7.59998ZM5.51791 7.59998C4.98535 7.59998 4.84914 7.59063 4.73481 7.53516L4.38561 8.25493C4.70386 8.40933 5.06192 8.39998 5.51791 8.39998V7.59998ZM4.73472 7.53512C4.61835 7.4787 4.52153 7.37286 4.18092 6.9496L3.55767 7.45116C3.8499 7.8143 4.0695 8.10166 4.3857 8.25497L4.73472 7.53512ZM4.18089 6.94957L4.05554 6.79383L3.43234 7.29546L3.5577 7.45119L4.18089 6.94957ZM4.05557 6.79387C3.91245 6.61602 3.82834 6.51039 3.77581 6.42582C3.75185 6.38724 3.74162 6.36395 3.73713 6.35093C3.73342 6.34019 3.73337 6.33591 3.73337 6.33331H2.93337C2.93337 6.53583 3.00593 6.70253 3.09622 6.8479C3.18055 6.98367 3.30172 7.13313 3.43231 7.29542L4.05557 6.79387ZM3.73337 6.33331C3.73337 6.33072 3.73342 6.32643 3.73713 6.3157C3.74162 6.30268 3.75185 6.27939 3.77581 6.24082C3.82833 6.15625 3.91244 6.05062 4.05556 5.87278L3.43232 5.37122C3.30172 5.53349 3.18055 5.68295 3.09622 5.81873C3.00593 5.9641 2.93337 6.1308 2.93337 6.33331H3.73337ZM4.05556 5.87278L4.18092 5.71701L3.55767 5.21545L3.43232 5.37122L4.05556 5.87278ZM8.40004 14.6666V1.99998H7.60004V14.6666H8.40004ZM6.00004 15.0666H10V14.2666H6.00004V15.0666Z" fill="white"/>
</svg>
