<svg width="50" height="48" viewBox="0 0 50 48" fill="none" xmlns="http://www.w3.org/2000/svg">
<path fill-rule="evenodd" clip-rule="evenodd" d="M14.9222 34.57C13.3363 34.9254 11.8245 35.3395 10.3792 35.8122C8.92219 36.3356 7.31279 36.2262 5.94169 35.5075C4.57059 34.7926 3.55889 33.5309 3.16439 32.0466C2.40658 29.2849 1.40269 25.5349 0.68779 22.8786C-0.0856498 19.9919 1.5667 17.0114 4.42219 16.1325C17.3992 12.1559 27.3172 7.44888 34.5002 2.05048L34.5197 2.03485C35.9767 0.882555 37.9103 0.530953 39.6799 1.10907C41.4611 1.6911 42.8244 3.13247 43.3088 4.93327C44.9533 10.9919 47.6135 20.9213 49.2111 26.8943C49.6838 28.6677 49.2541 30.5584 48.0588 31.949C46.8596 33.3396 45.0549 34.0506 43.2307 33.8474L43.2229 33.8435C37.6643 33.2028 32.5859 32.9568 27.9529 33.07L30.281 38.3942C30.949 39.9176 30.9802 41.6442 30.3748 43.1911C29.7693 44.7419 28.574 45.9841 27.0467 46.652L27.0428 46.6559C25.5194 47.32 23.7928 47.3552 22.242 46.7497C20.6951 46.1442 19.449 44.9489 18.785 43.4216L14.9139 34.57L14.9222 34.57ZM25.3832 42.8356C25.8949 42.609 26.2972 42.1949 26.5004 41.6715C26.7035 41.1519 26.6918 40.5738 26.4652 40.0621L23.5121 33.3043C22.0004 33.4254 20.5394 33.5933 19.1293 33.8004L22.6059 41.7496C22.8286 42.2613 23.2466 42.6636 23.7661 42.8668C24.2857 43.0699 24.8677 43.0582 25.3755 42.8316H25.3794L25.3832 42.8356ZM30.4574 9.69857C23.8207 13.5697 15.6024 17.058 5.64539 20.1126C4.93055 20.3313 4.52039 21.0774 4.7118 21.7962C5.42274 24.4485 6.4227 28.1868 7.1806 30.9407L7.18451 30.9524C7.28607 31.3235 7.53607 31.636 7.87592 31.8118C8.21577 31.9876 8.6142 32.0188 8.97752 31.886C8.99705 31.8782 9.01658 31.8743 9.0322 31.8665C16.2431 29.5032 25.0832 28.4524 35.8992 29.0345L30.4578 9.69446L30.4574 9.69857ZM40.3129 29.3586C41.4223 29.4601 42.5473 29.5734 43.6918 29.7062C44.1488 29.757 44.6019 29.5773 44.8988 29.2297C45.1996 28.882 45.309 28.4094 45.1879 27.9641C43.5863 21.9993 40.9301 12.0771 39.2895 6.01907L39.2855 6.01126C39.1645 5.56595 38.8285 5.20657 38.3871 5.06204C37.9457 4.91751 37.4652 5.00735 37.1019 5.29642C37.0863 5.31204 37.0667 5.32376 37.0472 5.33939C36.1214 6.0347 35.1527 6.72219 34.137 7.39799L40.3089 29.351L40.3129 29.3586Z" fill="black"/>
</svg>
