<svg width="24" height="24" viewBox="0 0 24 24" fill="none" xmlns="http://www.w3.org/2000/svg">
<path d="M15.5306 8.46939C15.6004 8.53904 15.6557 8.62176 15.6934 8.71281C15.7312 8.80386 15.7506 8.90145 15.7506 9.00001C15.7506 9.09857 15.7312 9.19617 15.6934 9.28722C15.6557 9.37827 15.6004 9.46098 15.5306 9.53064L9.53065 15.5306C9.46097 15.6003 9.37824 15.6556 9.2872 15.6933C9.19615 15.731 9.09857 15.7504 9.00002 15.7504C8.90148 15.7504 8.8039 15.731 8.71285 15.6933C8.62181 15.6556 8.53908 15.6003 8.4694 15.5306C8.39972 15.461 8.34444 15.3782 8.30673 15.2872C8.26902 15.1961 8.24961 15.0986 8.24961 15C8.24961 14.9015 8.26902 14.8039 8.30673 14.7128C8.34444 14.6218 8.39972 14.5391 8.4694 14.4694L14.4694 8.46939C14.5391 8.39966 14.6218 8.34434 14.7128 8.30659C14.8039 8.26885 14.9015 8.24942 15 8.24942C15.0986 8.24942 15.1962 8.26885 15.2872 8.30659C15.3783 8.34434 15.461 8.39966 15.5306 8.46939ZM20.2125 3.78751C19.725 3.29995 19.1462 2.91319 18.5092 2.64932C17.8722 2.38545 17.1895 2.24963 16.5 2.24963C15.8105 2.24963 15.1278 2.38545 14.4908 2.64932C13.8538 2.91319 13.275 3.29995 12.7875 3.78751L9.9694 6.6047C9.82867 6.74543 9.74961 6.9363 9.74961 7.13533C9.74961 7.33435 9.82867 7.52522 9.9694 7.66595C10.1101 7.80668 10.301 7.88574 10.5 7.88574C10.699 7.88574 10.8899 7.80668 11.0306 7.66595L13.8488 4.85345C14.5546 4.16312 15.5042 3.779 16.4915 3.78443C17.4787 3.78987 18.4241 4.18443 19.1222 4.88249C19.8204 5.58055 20.2151 6.52579 20.2208 7.51306C20.2264 8.50034 19.8424 9.45 19.1522 10.156L16.3331 12.9741C16.1924 13.1147 16.1133 13.3054 16.1132 13.5044C16.1131 13.7033 16.1921 13.8941 16.3327 14.0349C16.4733 14.1756 16.664 14.2547 16.863 14.2548C17.0619 14.2549 17.2527 14.1759 17.3935 14.0353L20.2125 11.2125C20.7001 10.725 21.0868 10.1462 21.3507 9.50922C21.6146 8.87223 21.7504 8.1895 21.7504 7.50001C21.7504 6.81053 21.6146 6.1278 21.3507 5.4908C21.0868 4.85381 20.7001 4.27503 20.2125 3.78751ZM12.9694 16.3331L10.1513 19.1513C9.80447 19.5059 9.39077 19.7881 8.93413 19.9817C8.47749 20.1753 7.98698 20.2764 7.491 20.2792C6.99502 20.2819 6.50342 20.1862 6.04468 19.9976C5.58593 19.8091 5.16915 19.5314 4.81846 19.1806C4.46778 18.8299 4.19015 18.4131 4.00167 17.9543C3.81319 17.4955 3.71759 17.0039 3.72041 16.5079C3.72323 16.0119 3.82441 15.5214 4.01809 15.0648C4.21178 14.6082 4.49412 14.1946 4.84877 13.8478L7.66596 11.0306C7.80669 10.8899 7.88575 10.699 7.88575 10.5C7.88575 10.301 7.80669 10.1101 7.66596 9.96939C7.52523 9.82866 7.33436 9.7496 7.13534 9.7496C6.93631 9.7496 6.74544 9.82866 6.60471 9.96939L3.78752 12.7875C2.80291 13.7721 2.24976 15.1076 2.24976 16.5C2.24976 17.8925 2.80291 19.2279 3.78752 20.2125C4.77214 21.1971 6.10757 21.7503 7.50002 21.7503C8.89248 21.7503 10.2279 21.1971 11.2125 20.2125L14.0306 17.3935C14.1713 17.2527 14.2502 17.0619 14.2501 16.863C14.25 16.664 14.1709 16.4733 14.0302 16.3327C13.8894 16.1921 13.6986 16.1131 13.4997 16.1132C13.3008 16.1133 13.11 16.1924 12.9694 16.3331Z" fill="#F8F9FA"/>
</svg>
