<?xml version="1.0" encoding="UTF-8" standalone="no"?>
<svg
   version="1.1"
   x="0px"
   y="0px"
   viewBox="0 0 100 125"
   style="enable-background:new 0 0 100 100;"
   xml:space="preserve"
   id="svg2"
   sodipodi:docname="icon-accept.svg"
   inkscape:version="1.4 (e7c3feb1, 2024-10-09)"
   xmlns:inkscape="http://www.inkscape.org/namespaces/inkscape"
   xmlns:sodipodi="http://sodipodi.sourceforge.net/DTD/sodipodi-0.dtd"
   xmlns="http://www.w3.org/2000/svg"
   xmlns:svg="http://www.w3.org/2000/svg"><defs
     id="defs2" /><sodipodi:namedview
     id="namedview2"
     pagecolor="#ffffff"
     bordercolor="#000000"
     borderopacity="0.25"
     inkscape:showpageshadow="2"
     inkscape:pageopacity="0.0"
     inkscape:pagecheckerboard="0"
     inkscape:deskcolor="#d1d1d1"
     inkscape:zoom="3.202082"
     inkscape:cx="24.359151"
     inkscape:cy="94.625935"
     inkscape:window-width="1728"
     inkscape:window-height="1051"
     inkscape:window-x="0"
     inkscape:window-y="38"
     inkscape:window-maximized="0"
     inkscape:current-layer="svg2" /><style
     type="text/css"
     id="style1">
	.st0{fill-rule:evenodd;clip-rule:evenodd;}
</style><path
     d="M 32.781606,101.30391 3.297787,71.824415 C 2.5870727,71.113706 2.1877034,70.149129 2.1877034,69.143972 c 0,-1.005161 0.3993692,-1.969734 1.1100836,-2.680447 l 5.3600264,-5.360027 c 0.7107143,-0.710709 1.6744386,-1.110084 2.6804456,-1.110084 1.00516,0 1.968865,0.399375 2.67958,1.110084 L 32.781827,79.864023 85.357556,27.288297 h -8.47e-4 c 0.711586,-0.710712 1.675278,-1.110083 2.680443,-1.110083 1.005173,0 1.969734,0.399371 2.680451,1.110083 l 5.360016,5.360027 c 0.710708,0.710713 1.110084,1.675284 1.110084,2.680443 0,1.005162 -0.399376,1.969733 -1.110084,2.680447 z"
     id="path1" /></svg>
