<svg width="24" height="24" viewBox="0 0 24 24" fill="none" xmlns="http://www.w3.org/2000/svg">
<path d="M19.5 4H17.25V3.25C17.25 3.05109 17.171 2.86032 17.0303 2.71967C16.8897 2.57902 16.6989 2.5 16.5 2.5C16.3011 2.5 16.1103 2.57902 15.9697 2.71967C15.829 2.86032 15.75 3.05109 15.75 3.25V4H8.25V3.25C8.25 3.05109 8.17098 2.86032 8.03033 2.71967C7.88968 2.57902 7.69891 2.5 7.5 2.5C7.30109 2.5 7.11032 2.57902 6.96967 2.71967C6.82902 2.86032 6.75 3.05109 6.75 3.25V4H4.5C4.10218 4 3.72064 4.15804 3.43934 4.43934C3.15804 4.72064 3 5.10218 3 5.5V20.5C3 20.8978 3.15804 21.2794 3.43934 21.5607C3.72064 21.842 4.10218 22 4.5 22H19.5C19.8978 22 20.2794 21.842 20.5607 21.5607C20.842 21.2794 21 20.8978 21 20.5V5.5C21 5.10218 20.842 4.72064 20.5607 4.43934C20.2794 4.15804 19.8978 4 19.5 4ZM6.75 5.5V6.25C6.75 6.44891 6.82902 6.63968 6.96967 6.78033C7.11032 6.92098 7.30109 7 7.5 7C7.69891 7 7.88968 6.92098 8.03033 6.78033C8.17098 6.63968 8.25 6.44891 8.25 6.25V5.5H15.75V6.25C15.75 6.44891 15.829 6.63968 15.9697 6.78033C16.1103 6.92098 16.3011 7 16.5 7C16.6989 7 16.8897 6.92098 17.0303 6.78033C17.171 6.63968 17.25 6.44891 17.25 6.25V5.5H19.5V8.5H4.5V5.5H6.75ZM19.5 20.5H4.5V10H19.5V20.5Z" fill="#F8F9FA"/>
</svg>
