<svg width="24" height="24" viewBox="0 0 24 24" fill="none" xmlns="http://www.w3.org/2000/svg">
<path d="M12.9336 12.2063C12.9336 12.4288 12.8676 12.6463 12.744 12.8313C12.6204 13.0163 12.4447 13.1605 12.2391 13.2457C12.0335 13.3308 11.8073 13.3531 11.5891 13.3097C11.3709 13.2663 11.1704 13.1591 11.0131 13.0018C10.8558 12.8445 10.7486 12.644 10.7052 12.4258C10.6618 12.2075 10.6841 11.9813 10.7692 11.7758C10.8544 11.5702 10.9986 11.3945 11.1836 11.2709C11.3686 11.1473 11.5861 11.0813 11.8086 11.0813C12.107 11.0813 12.3931 11.1998 12.6041 11.4108C12.8151 11.6218 12.9336 11.9079 12.9336 12.2063ZM18.1836 11.0813C17.9611 11.0813 17.7436 11.1473 17.5586 11.2709C17.3736 11.3945 17.2294 11.5702 17.1442 11.7758C17.0591 11.9813 17.0368 12.2075 17.0802 12.4258C17.1236 12.644 17.2308 12.8445 17.3881 13.0018C17.5454 13.1591 17.7459 13.2663 17.9641 13.3097C18.1823 13.3531 18.4085 13.3308 18.6141 13.2457C18.8197 13.1605 18.9954 13.0163 19.119 12.8313C19.2426 12.6463 19.3086 12.4288 19.3086 12.2063C19.3086 11.9079 19.1901 11.6218 18.9791 11.4108C18.7681 11.1998 18.482 11.0813 18.1836 11.0813ZM5.43359 11.0813C5.21109 11.0813 4.99358 11.1473 4.80858 11.2709C4.62357 11.3945 4.47938 11.5702 4.39423 11.7758C4.30908 11.9813 4.2868 12.2075 4.33021 12.4258C4.37362 12.644 4.48077 12.8445 4.6381 13.0018C4.79543 13.1591 4.99589 13.2663 5.21412 13.3097C5.43235 13.3531 5.65855 13.3308 5.86411 13.2457C6.06968 13.1605 6.24538 13.0163 6.369 12.8313C6.49261 12.6463 6.55859 12.4288 6.55859 12.2063C6.55859 11.9079 6.44007 11.6218 6.22909 11.4108C6.01811 11.1998 5.73196 11.0813 5.43359 11.0813Z" fill="#F8F9FA"/>
</svg>
