<svg width="16" height="16" viewBox="0 0 16 16" fill="none" xmlns="http://www.w3.org/2000/svg">
<path d="M6.79199 5.66669C7.01376 4.80778 7.51475 4.04696 8.21615 3.50389C8.91756 2.96082 9.77959 2.66631 10.6667 2.66669C10.1362 3.19712 9.83823 3.91654 9.83823 4.66669C9.83823 5.03812 9.91139 5.40592 10.0535 5.74908C10.1957 6.09224 10.404 6.40404 10.6667 6.66669C10.9293 6.92933 11.2411 7.13767 11.5843 7.27981C11.9274 7.42195 12.2952 7.49511 12.6667 7.49511C13.4168 7.49511 14.1362 7.19712 14.6667 6.66669C14.6668 7.36893 14.482 8.05882 14.1309 8.66701C13.7798 9.27519 13.2748 9.78023 12.6667 10.1314" stroke="#F8F9FA" stroke-width="0.8" stroke-linecap="round" stroke-linejoin="round"/>
<path d="M7.86665 14.6667L8.08213 13.7101C8.26493 12.8986 8.89857 12.265 9.71001 12.0822L10.6666 11.8667L9.71001 11.6512C8.89857 11.4684 8.26493 10.8348 8.08213 10.0233L7.86665 9.06669L7.65117 10.0233C7.46837 10.8348 6.83473 11.4684 6.02329 11.6512L5.06665 11.8667L6.02329 12.0822C6.83469 12.265 7.46837 12.8986 7.65117 13.7101L7.86665 14.6667Z" stroke="#F8F9FA" stroke-width="0.5" stroke-linejoin="round"/>
<path d="M3.33337 10.6667L3.4873 9.98337C3.61786 9.40381 4.07047 8.95117 4.65005 8.82061L5.33337 8.66669L4.65005 8.51277C4.07047 8.38221 3.61786 7.92961 3.4873 7.35001L3.33337 6.66669L3.17945 7.35001C3.04889 7.92961 2.59627 8.38221 2.01668 8.51277L1.33337 8.66669L2.01668 8.82061C2.59627 8.95117 3.04889 9.40377 3.17945 9.98337L3.33337 10.6667Z" fill="#F8F9FA" stroke="#F8F9FA" stroke-width="0.5" stroke-linejoin="round"/>
</svg>
