<svg width="15" height="14" viewBox="0 0 15 14" fill="none" xmlns="http://www.w3.org/2000/svg">
<g clip-path="url(#clip0_9_606)">
<path d="M12.7762 9.23863C13.0711 8.5291 13.2223 7.76818 13.2214 6.99984C13.2223 6.2315 13.0711 5.47058 12.7762 4.76105C12.4814 4.05152 12.0489 3.40745 11.5037 2.86605C10.963 2.32627 10.3212 1.89834 9.615 1.60672C8.90881 1.31511 8.15206 1.16552 7.38803 1.16651C6.59666 1.16554 5.81342 1.32606 5.08623 1.63825M9.615 12.393C8.90881 12.6846 8.15206 12.8342 7.38803 12.8332C4.16628 12.8332 1.55469 10.2216 1.55469 6.99984" stroke="#FAFAFA" stroke-width="0.7875" stroke-linecap="round" stroke-linejoin="round"/>
<path d="M7.38773 1.16669C6.59637 1.16572 5.81312 1.32624 5.08594 1.63843M9.72107 1.65202C10.3854 1.94268 10.9898 2.35443 11.5034 2.86623C12.0486 3.40763 12.4811 4.0517 12.776 4.76123C13.0708 5.47076 13.2221 6.23168 13.2211 7.00002C13.2211 7.71811 13.0913 8.40615 12.8536 9.04169M7.38773 12.8334C8.15177 12.8343 8.90851 12.6848 9.61471 12.3931" stroke="#FAFAFA" stroke-width="0.7875" stroke-linecap="round" stroke-linejoin="round"/>
<path d="M9.72119 1.75012C10.7906 4.13805 11.4712 7.00012 10.8879 8.45846" stroke="#FAFAFA" stroke-width="0.65625"/>
<path d="M3.59672 7.29108C3.59672 9.62441 3.88839 10.4994 4.87305 12.3313" stroke="#FAFAFA" stroke-width="0.65625" stroke-linecap="round"/>
<path d="M6.38268 1.1665C5.9938 3.11095 4.92438 7.2915 6.38268 12.8332" stroke="#FAFAFA" stroke-width="0.65625"/>
<path d="M7.9723 1.1665C8.36118 3.11095 9.4306 7.2915 7.9723 12.8332" stroke="#FAFAFA" stroke-width="0.65625"/>
<path d="M5.93163 3.79165C8.55659 3.20831 10.8899 4.08331 12.6987 4.73072" stroke="#FAFAFA" stroke-width="0.65625"/>
<path d="M1.98047 9.27145C4.3365 10.4095 5.63933 11.0832 9.72267 10.7915" stroke="#FAFAFA" stroke-width="0.65625" stroke-linecap="round"/>
<path d="M1.44043 7.74659C3.37283 8.1915 7.52073 9.38128 13.1022 8.08371" stroke="#FAFAFA" stroke-width="0.65625"/>
<path d="M5.63806 5.83352C7.59293 5.50098 10.8881 5.83355 13.1475 6.49468" stroke="#FAFAFA" stroke-width="0.65625"/>
<path d="M3.39587 4.45299L3.42488 5.1551C3.43054 5.2921 3.43337 5.36061 3.41542 5.42231C3.39956 5.47688 3.37203 5.52737 3.33476 5.57027C3.29262 5.61878 3.2335 5.65351 3.11528 5.72298L2.50942 6.07898L3.21153 6.04997C3.34854 6.04431 3.41704 6.04148 3.47874 6.05942C3.53332 6.07529 3.5838 6.10282 3.6267 6.14009C3.67521 6.18223 3.70994 6.24135 3.77941 6.35957L4.13541 6.96543L4.1064 6.26332C4.10075 6.12631 4.09792 6.05781 4.11586 5.99611C4.13172 5.94153 4.15925 5.89105 4.19652 5.84815C4.23866 5.79964 4.29778 5.76491 4.416 5.69544L5.02186 5.33944L4.31975 5.36844C4.18274 5.3741 4.11424 5.37693 4.05254 5.35899C3.99797 5.34312 3.94748 5.3156 3.90458 5.27833C3.85607 5.23618 3.82134 5.17707 3.75187 5.05885L3.39587 4.45299Z" stroke="#FAFAFA" stroke-width="0.294641" stroke-linecap="round" stroke-linejoin="round"/>
<path d="M3.4302 0.711289L2.77334 1.76544C2.64516 1.97114 2.58107 2.07399 2.49343 2.14622C2.41591 2.21012 2.32544 2.25643 2.22828 2.28196C2.11844 2.31082 1.99753 2.30267 1.75571 2.28638L0.516464 2.20287L1.57062 2.85973C1.77632 2.9879 1.87917 3.05199 1.9514 3.13964C2.01529 3.21716 2.0616 3.30762 2.08713 3.40478C2.116 3.51463 2.10785 3.63554 2.09156 3.87735L2.00805 5.1166L2.66491 4.06245C2.79308 3.85675 2.85717 3.7539 2.94481 3.68166C3.02233 3.61777 3.1128 3.57146 3.20996 3.54593C3.3198 3.51707 3.44071 3.52521 3.68253 3.54151L4.92178 3.62502L3.86762 2.96816C3.66192 2.83998 3.55907 2.7759 3.48684 2.68825C3.42295 2.61073 3.37664 2.52027 3.35111 2.42311C3.32224 2.31326 3.33039 2.19235 3.34669 1.95054L3.4302 0.711289Z" stroke="#FAFAFA" stroke-width="0.520783" stroke-linecap="round" stroke-linejoin="round"/>
<path d="M11.8054 9.11307L11.7539 10.2944C11.7439 10.5249 11.7389 10.6402 11.7 10.7411C11.6656 10.8303 11.6122 10.911 11.5436 10.9776C11.466 11.0529 11.362 11.1028 11.1539 11.2024L10.0873 11.7128L11.2686 11.7643C11.4991 11.7744 11.6144 11.7794 11.7153 11.8183C11.8045 11.8527 11.8852 11.906 11.9518 11.9746C12.0271 12.0522 12.077 12.1563 12.1766 12.3644L12.687 13.431L12.7385 12.2497C12.7486 12.0192 12.7536 11.9039 12.7925 11.803C12.8269 11.7138 12.8802 11.6331 12.9488 11.5664C13.0264 11.4911 13.1305 11.4413 13.3386 11.3417L14.4052 10.8312L13.2239 10.7797C12.9934 10.7697 12.8781 10.7647 12.7772 10.7258C12.688 10.6914 12.6073 10.638 12.5406 10.5694C12.4653 10.4918 12.4155 10.3878 12.3159 10.1797L11.8054 9.11307Z" stroke="#FAFAFA" stroke-width="0.495787" stroke-linecap="round" stroke-linejoin="round"/>
</g>
<defs>
<clipPath id="clip0_9_606">
<rect width="14.7778" height="14" fill="white"/>
</clipPath>
</defs>
</svg>
