<svg width="24" height="24" viewBox="0 0 24 24" fill="none" xmlns="http://www.w3.org/2000/svg">
<path d="M16.1165 4.91079C16.1165 4.71188 16.1955 4.52111 16.3361 4.38046C16.4768 4.23981 16.6675 4.16079 16.8665 4.16079H21.3665C21.5654 4.16079 21.7561 4.23981 21.8968 4.38046C22.0374 4.52111 22.1165 4.71188 22.1165 4.91079C22.1165 5.1097 22.0374 5.30047 21.8968 5.44112C21.7561 5.58177 21.5654 5.66079 21.3665 5.66079H16.8665C16.6675 5.66079 16.4768 5.58177 16.3361 5.44112C16.1955 5.30047 16.1165 5.1097 16.1165 4.91079ZM21.5615 8.41048C22.2731 10.4261 22.3021 12.6198 21.6441 14.6535C20.9861 16.6873 19.6776 18.4482 17.9201 19.665C16.1627 20.8818 14.0539 21.4869 11.9187 21.387C9.78347 21.2872 7.74034 20.4879 6.10412 19.1125C4.4679 17.737 3.32941 15.8616 2.86407 13.7753C2.39872 11.6891 2.63236 9.50765 3.52898 7.56724C4.42559 5.62683 5.93543 4.03511 7.82583 3.03735C9.71622 2.0396 11.8823 1.69118 13.9902 2.04579C14.1849 2.08022 14.3581 2.19013 14.4722 2.35161C14.5862 2.5131 14.6319 2.71309 14.5993 2.90809C14.5667 3.10308 14.4584 3.27731 14.298 3.39287C14.1376 3.50843 13.938 3.55598 13.7427 3.52517C12.5597 3.32616 11.3475 3.38733 10.1906 3.70442C9.03364 4.02151 7.95967 4.58691 7.04344 5.36126C6.12722 6.13561 5.39073 7.10031 4.88524 8.18824C4.37975 9.27616 4.11741 10.4612 4.11646 11.6608C4.11468 13.6803 4.85694 15.6298 6.20146 17.1367C7.03792 15.9246 8.2141 14.9869 9.58208 14.4414C8.84725 13.8626 8.31105 13.0693 8.04802 12.1716C7.785 11.274 7.80824 10.3167 8.11451 9.43286C8.42077 8.54904 8.99485 7.78262 9.75689 7.24019C10.5189 6.69775 11.4311 6.40627 12.3665 6.40627C13.3018 6.40627 14.214 6.69775 14.976 7.24019C15.7381 7.78262 16.3121 8.54904 16.6184 9.43286C16.9247 10.3167 16.9479 11.274 16.6849 12.1716C16.4219 13.0693 15.8857 13.8626 15.1508 14.4414C16.5188 14.9869 17.695 15.9246 18.5315 17.1367C19.5112 16.0351 20.1779 14.6911 20.4622 13.2445C20.7464 11.7979 20.6378 10.3015 20.1477 8.9111C20.1148 8.81821 20.1006 8.71976 20.1058 8.62136C20.1109 8.52296 20.1354 8.42655 20.1779 8.33762C20.2203 8.24869 20.2799 8.169 20.3531 8.10308C20.4263 8.03716 20.5118 7.98632 20.6047 7.95345C20.6976 7.92058 20.7961 7.90632 20.8945 7.9115C20.9929 7.91668 21.0893 7.94119 21.1782 7.98362C21.2671 8.02606 21.3468 8.0856 21.4128 8.15884C21.4787 8.23208 21.5295 8.31759 21.5624 8.41048H21.5615ZM12.3665 13.9108C12.9598 13.9108 13.5398 13.7348 14.0332 13.4052C14.5265 13.0756 14.911 12.607 15.1381 12.0588C15.3652 11.5107 15.4246 10.9075 15.3088 10.3255C15.1931 9.74358 14.9073 9.20903 14.4878 8.78947C14.0682 8.36991 13.5337 8.08419 12.9517 7.96843C12.3698 7.85268 11.7666 7.91209 11.2184 8.13915C10.6702 8.36621 10.2017 8.75073 9.87205 9.24408C9.5424 9.73743 9.36646 10.3174 9.36646 10.9108C9.36646 11.7064 9.68253 12.4695 10.2451 13.0321C10.8077 13.5947 11.5708 13.9108 12.3665 13.9108ZM12.3665 19.9108C14.1977 19.9126 15.9771 19.3022 17.4215 18.1764C16.8789 17.3279 16.1315 16.6296 15.248 16.1458C14.3646 15.6621 13.3736 15.4086 12.3665 15.4086C11.3593 15.4086 10.3683 15.6621 9.48488 16.1458C8.60146 16.6296 7.85402 17.3279 7.31146 18.1764C8.75586 19.3022 10.5352 19.9126 12.3665 19.9108Z" fill="#F8F9FA"/>
</svg>
