<svg width="16" height="16" viewBox="0 0 16 16" fill="none" xmlns="http://www.w3.org/2000/svg">
<path fill-rule="evenodd" clip-rule="evenodd" d="M2.12386 6.10508C2.04222 6.28102 1.99995 6.47265 2 6.6666V12.6666C2 13.0202 2.14048 13.3594 2.39052 13.6094C2.64057 13.8595 2.97971 13.9999 3.33333 13.9999H5.3335V8.33333C5.3335 7.78105 5.78121 7.33333 6.3335 7.33333H9.66683C10.2191 7.33333 10.6668 7.78105 10.6668 8.33333V13.9999H12.6667C13.0203 13.9999 13.3594 13.8595 13.6095 13.6094C13.8595 13.3594 14 13.0202 14 12.6666V6.6666C14 6.47265 13.9578 6.28102 13.8761 6.10508C13.7945 5.92914 13.6755 5.77314 13.5273 5.64794L8.86067 1.6486C8.62001 1.44521 8.3151 1.33362 8 1.33362C7.6849 1.33362 7.37999 1.44521 7.13933 1.6486L2.47267 5.64794C2.32453 5.77314 2.20549 5.92914 2.12386 6.10508Z" fill="#F8F9FA"/>
<path d="M2 6.6666L2.5 6.6666L2.5 6.66648L2 6.6666ZM2.12386 6.10508L1.67031 5.89463L2.12386 6.10508ZM2.39052 13.6094L2.74408 13.2559L2.74408 13.2559L2.39052 13.6094ZM5.3335 13.9999V14.4999C5.60964 14.4999 5.8335 14.2761 5.8335 13.9999H5.3335ZM10.6668 13.9999H10.1668C10.1668 14.2761 10.3907 14.4999 10.6668 14.4999V13.9999ZM13.6095 13.6094L13.2559 13.2559L13.2559 13.2559L13.6095 13.6094ZM14 6.6666L13.5 6.66648V6.6666H14ZM13.8761 6.10508L14.3297 5.89463L14.3297 5.89463L13.8761 6.10508ZM13.5273 5.64794L13.202 6.0276L13.2046 6.02982L13.5273 5.64794ZM8.86067 1.6486L9.18604 1.26894L9.18342 1.26672L8.86067 1.6486ZM7.13933 1.6486L6.81658 1.26672L6.81397 1.26895L7.13933 1.6486ZM2.47267 5.64794L2.79542 6.02983L2.79803 6.02759L2.47267 5.64794ZM2.5 6.66648C2.49997 6.54526 2.52639 6.42549 2.57741 6.31553L1.67031 5.89463C1.55806 6.13655 1.49994 6.40004 1.5 6.66672L2.5 6.66648ZM2.5 12.6666V6.6666H1.5V12.6666H2.5ZM2.74408 13.2559C2.5878 13.0996 2.5 12.8876 2.5 12.6666H1.5C1.5 13.1528 1.69315 13.6192 2.03697 13.963L2.74408 13.2559ZM3.33333 13.4999C3.11232 13.4999 2.90036 13.4121 2.74408 13.2559L2.03697 13.963C2.38079 14.3068 2.8471 14.4999 3.33333 14.4999V13.4999ZM5.3335 13.4999H3.33333V14.4999H5.3335V13.4999ZM5.8335 13.9999V8.33333H4.8335V13.9999H5.8335ZM5.8335 8.33333C5.8335 8.05719 6.05735 7.83333 6.3335 7.83333V6.83333C5.50507 6.83333 4.8335 7.50491 4.8335 8.33333H5.8335ZM6.3335 7.83333H9.66683V6.83333H6.3335V7.83333ZM9.66683 7.83333C9.94297 7.83333 10.1668 8.05719 10.1668 8.33333H11.1668C11.1668 7.50491 10.4953 6.83333 9.66683 6.83333V7.83333ZM10.1668 8.33333V13.9999H11.1668V8.33333H10.1668ZM12.6667 13.4999H10.6668V14.4999H12.6667V13.4999ZM13.2559 13.2559C13.0996 13.4121 12.8877 13.4999 12.6667 13.4999V14.4999C13.1529 14.4999 13.6192 14.3068 13.963 13.963L13.2559 13.2559ZM13.5 12.6666C13.5 12.8876 13.4122 13.0996 13.2559 13.2559L13.963 13.963C14.3068 13.6192 14.5 13.1528 14.5 12.6666H13.5ZM13.5 6.6666V12.6666H14.5V6.6666H13.5ZM13.4226 6.31553C13.4736 6.42549 13.5 6.54526 13.5 6.66648L14.5 6.66672C14.5001 6.40004 14.4419 6.13655 14.3297 5.89463L13.4226 6.31553ZM13.2046 6.02982C13.2972 6.10807 13.3716 6.20557 13.4226 6.31553L14.3297 5.89463C14.2174 5.65272 14.0538 5.43821 13.8501 5.26606L13.2046 6.02982ZM8.5353 2.02826L13.202 6.02759L13.8527 5.26828L9.18603 1.26895L8.5353 2.02826ZM8 1.83362C8.19693 1.83362 8.38751 1.90336 8.53792 2.03048L9.18342 1.26672C8.85251 0.987057 8.43326 0.833618 8 0.833618V1.83362ZM7.46208 2.03048C7.61249 1.90336 7.80307 1.83362 8 1.83362V0.833618C7.56674 0.833618 7.14749 0.987058 6.81658 1.26672L7.46208 2.03048ZM2.79803 6.02759L7.4647 2.02826L6.81397 1.26895L2.1473 5.26828L2.79803 6.02759ZM2.57741 6.31553C2.62843 6.20557 2.70283 6.10807 2.79542 6.02982L2.14992 5.26606C1.94623 5.4382 1.78255 5.65272 1.67031 5.89463L2.57741 6.31553Z" fill="#F8F9FA"/>
</svg>
