<svg width="24" height="24" viewBox="0 0 24 24" fill="none" xmlns="http://www.w3.org/2000/svg">
<path d="M16.0681 19.3337C16.1378 19.4034 16.193 19.4861 16.2307 19.5771C16.2685 19.6682 16.2879 19.7658 16.2879 19.8643C16.2879 19.9629 16.2685 20.0604 16.2307 20.1515C16.193 20.2425 16.1378 20.3253 16.0681 20.3949C15.9984 20.4646 15.9157 20.5199 15.8246 20.5576C15.7336 20.5953 15.636 20.6147 15.5375 20.6147C15.4389 20.6147 15.3413 20.5953 15.2503 20.5576C15.1592 20.5199 15.0765 20.4646 15.0068 20.3949L7.50683 12.8949C7.4371 12.8253 7.38178 12.7426 7.34404 12.6515C7.30629 12.5605 7.28687 12.4629 7.28687 12.3643C7.28687 12.2657 7.30629 12.1682 7.34404 12.0771C7.38178 11.9861 7.4371 11.9033 7.50683 11.8337L15.0068 4.33368C15.1476 4.19295 15.3384 4.11389 15.5375 4.11389C15.7365 4.11389 15.9274 4.19295 16.0681 4.33368C16.2088 4.47441 16.2879 4.66529 16.2879 4.86431C16.2879 5.06333 16.2088 5.2542 16.0681 5.39493L9.09777 12.3643L16.0681 19.3337Z" fill="#F8F9FA"/>
</svg>
