<svg width="24" height="24" viewBox="0 0 24 24" fill="none" xmlns="http://www.w3.org/2000/svg">
<path d="M20.0307 5.03061L15.3104 9.74999H18.0001C18.199 9.74999 18.3897 9.82901 18.5304 9.96966C18.671 10.1103 18.7501 10.3011 18.7501 10.5C18.7501 10.6989 18.671 10.8897 18.5304 11.0303C18.3897 11.171 18.199 11.25 18.0001 11.25H13.5001C13.3011 11.25 13.1104 11.171 12.9697 11.0303C12.8291 10.8897 12.7501 10.6989 12.7501 10.5V5.99999C12.7501 5.80108 12.8291 5.61031 12.9697 5.46966C13.1104 5.32901 13.3011 5.24999 13.5001 5.24999C13.699 5.24999 13.8897 5.32901 14.0304 5.46966C14.171 5.61031 14.2501 5.80108 14.2501 5.99999V8.68968L18.9694 3.96936C19.1102 3.82863 19.301 3.74957 19.5001 3.74957C19.6991 3.74957 19.8899 3.82863 20.0307 3.96936C20.1714 4.1101 20.2505 4.30097 20.2505 4.49999C20.2505 4.69901 20.1714 4.88988 20.0307 5.03061ZM10.5001 12.75H6.00005C5.80114 12.75 5.61037 12.829 5.46972 12.9697C5.32907 13.1103 5.25005 13.3011 5.25005 13.5C5.25005 13.6989 5.32907 13.8897 5.46972 14.0303C5.61037 14.171 5.80114 14.25 6.00005 14.25H8.68974L3.96943 18.9694C3.8287 19.1101 3.74963 19.301 3.74963 19.5C3.74963 19.699 3.8287 19.8899 3.96943 20.0306C4.11016 20.1713 4.30103 20.2504 4.50005 20.2504C4.69907 20.2504 4.88995 20.1713 5.03068 20.0306L9.75005 15.3103V18C9.75005 18.1989 9.82907 18.3897 9.96972 18.5303C10.1104 18.671 10.3011 18.75 10.5001 18.75C10.699 18.75 10.8897 18.671 11.0304 18.5303C11.171 18.3897 11.2501 18.1989 11.2501 18V13.5C11.2501 13.3011 11.171 13.1103 11.0304 12.9697C10.8897 12.829 10.699 12.75 10.5001 12.75Z" fill="#F8F9FA"/>
</svg>
