<svg width="24" height="24" viewBox="0 0 24 24" fill="none" xmlns="http://www.w3.org/2000/svg">
<path d="M21.75 12.5C21.75 11.9033 21.5129 11.331 21.091 10.909C20.669 10.4871 20.0967 10.25 19.5 10.25H12.75V9.40625C13.3937 9.23904 13.9638 8.86303 14.371 8.33712C14.7782 7.81121 14.9994 7.1651 15 6.5C15 3.875 12.5213 2.19594 12.4163 2.12562C12.293 2.04339 12.1482 1.99951 12 1.99951C11.8518 1.99951 11.707 2.04339 11.5837 2.12562C11.4787 2.19594 9 3.875 9 6.5C9.00063 7.1651 9.22185 7.81121 9.629 8.33712C10.0362 8.86303 10.6063 9.23904 11.25 9.40625V10.25H4.5C3.90326 10.25 3.33097 10.4871 2.90901 10.909C2.48705 11.331 2.25 11.9033 2.25 12.5V14.6872C2.25077 15.5054 2.51361 16.3018 3 16.9597V20.75C3 21.3467 3.23705 21.919 3.65901 22.341C4.08097 22.7629 4.65326 23 5.25 23H18.75C19.3467 23 19.919 22.7629 20.341 22.341C20.7629 21.919 21 21.3467 21 20.75V16.9597C21.4864 16.3018 21.7492 15.5054 21.75 14.6872V12.5ZM10.5 6.5C10.5 5.22781 11.4375 4.20687 12 3.70719C12.5625 4.20687 13.5 5.22781 13.5 6.5C13.5 6.89782 13.342 7.27935 13.0607 7.56066C12.7794 7.84196 12.3978 8 12 8C11.6022 8 11.2206 7.84196 10.9393 7.56066C10.658 7.27935 10.5 6.89782 10.5 6.5ZM3.75 12.5C3.75 12.3011 3.82902 12.1103 3.96967 11.9697C4.11032 11.829 4.30109 11.75 4.5 11.75H19.5C19.6989 11.75 19.8897 11.829 20.0303 11.9697C20.171 12.1103 20.25 12.3011 20.25 12.5V14.6872C20.25 15.9294 19.2694 16.9663 18.0637 16.9991C17.763 17.0076 17.4637 16.9557 17.1833 16.8465C16.903 16.7373 16.6474 16.573 16.4317 16.3633C16.216 16.1537 16.0445 15.9028 15.9274 15.6257C15.8103 15.3486 15.75 15.0508 15.75 14.75C15.75 14.5511 15.671 14.3603 15.5303 14.2197C15.3897 14.079 15.1989 14 15 14C14.8011 14 14.6103 14.079 14.4697 14.2197C14.329 14.3603 14.25 14.5511 14.25 14.75C14.25 15.3467 14.0129 15.919 13.591 16.341C13.169 16.7629 12.5967 17 12 17C11.4033 17 10.831 16.7629 10.409 16.341C9.98705 15.919 9.75 15.3467 9.75 14.75C9.75 14.5511 9.67098 14.3603 9.53033 14.2197C9.38968 14.079 9.19891 14 9 14C8.80109 14 8.61032 14.079 8.46967 14.2197C8.32902 14.3603 8.25 14.5511 8.25 14.75C8.25012 15.0509 8.18988 15.3488 8.07284 15.626C7.9558 15.9032 7.78434 16.1542 7.56861 16.364C7.35288 16.5737 7.09726 16.7381 6.81688 16.8474C6.53649 16.9566 6.23705 17.0085 5.93625 17C4.73063 16.9662 3.75 15.9294 3.75 14.6872V12.5ZM18.75 21.5H5.25C5.05109 21.5 4.86032 21.421 4.71967 21.2803C4.57902 21.1397 4.5 20.9489 4.5 20.75V18.1775C4.93902 18.3764 5.41322 18.4861 5.895 18.5C6.39624 18.5156 6.89545 18.4297 7.36266 18.2475C7.82986 18.0653 8.25541 17.7905 8.61375 17.4397C8.75366 17.3033 8.88279 17.1563 9 17C9.3493 17.4657 9.80224 17.8437 10.3229 18.1041C10.8437 18.3645 11.4178 18.5 12 18.5C12.5822 18.5 13.1563 18.3645 13.6771 18.1041C14.1978 17.8437 14.6507 17.4657 15 17C15.1176 17.1557 15.247 17.3021 15.3872 17.4378C16.0849 18.1212 17.0234 18.5027 18 18.5C18.0356 18.5 18.0712 18.5 18.1069 18.5C18.588 18.4858 19.0616 18.3762 19.5 18.1775V20.75C19.5 20.9489 19.421 21.1397 19.2803 21.2803C19.1397 21.421 18.9489 21.5 18.75 21.5Z" fill="#F8F9FA"/>
</svg>
