<?xml version="1.0" encoding="UTF-8"?>
<svg id="Calque_1" data-name="Calque 1" xmlns="http://www.w3.org/2000/svg" viewBox="0 0 16 16">
  <path d="m12.7,13.12l-.13.36c.07.03.13.07.19.12l.27-.26c-.09-.1-.21-.18-.33-.23Zm-.54-.07l-.02.38c.26,0,.35,0,.43.05l.13-.36c-.14-.06-.3-.06-.54-.07Zm.87.29l-.27.26c.06.06.09.14.21.39l.34-.16c-.09-.22-.17-.37-.27-.48Zm-.59-1.32c-.03.08-.08.14-.13.2l.26.26c.09-.09.17-.21.22-.33l-.35-.13Zm.05-.44c-.02.27-.02.37-.05.44l.35.13c.06-.15.06-.31.08-.56l-.38-.02Zm-.18.64c-.06.06-.13.09-.37.21l.16.34c.22-.1.37-.17.47-.28l-.26-.26Zm1.36-.45l-.27.26c.09.1.2.18.32.23l.14-.35c-.08-.03-.14-.08-.19-.13Zm.19.13l-.14.35c.15.06.31.06.55.07l.02-.38c-.26,0-.35,0-.43-.04Zm-.41-.52l-.34.16c.1.22.17.37.28.48l.27-.26c-.06-.06-.09-.14-.22-.39Zm.39,1.5c-.09.09-.17.21-.21.33l.35.13c.03-.08.07-.14.12-.2l-.26-.26Zm-.21.33c-.06.15-.07.31-.08.56l.38.02c0-.27.02-.37.05-.44l-.35-.13Zm.68-.62c-.21.1-.36.17-.47.28l.26.26c.06-.06.14-.09.38-.21l-.17-.34Zm-.76,1.17l-.03.55-.03.77h.19s0,0,0,0h.18s.06-1.31.06-1.31l-.38-.02Zm2.01-1.57l-.09-.17-.66.32-.5.25.17.34,1.16-.57-.09-.17Zm-1.28-.26l-.02.38.55.03.74.04v-.19s.02-.19.02-.19l-1.29-.07Zm-1.38-1.75l-.17.09h0l-.17.08.33.71.23.48.34-.16-.55-1.19Zm-.17.09h-.19s-.06,1.31-.06,1.31l.38.02.02-.54.03-.78h-.18Zm-.79,2.16l-1.16.58.09.16h0s.08.17.08.17l.65-.32.51-.25-.16-.34Zm-.35.59l-.73-.03v.37s1.28.07,1.28.07l.02-.38-.57-.03Zm1.94,1.3l-.23-.49-.34.16.56,1.19.17-.09h0l.16-.08-.33-.7ZM2.14,3.49l-.29.24c.05.07.09.14.11.23l.36-.09c-.03-.13-.09-.26-.18-.37Zm-.46-.35l-.2.31c.24.15.31.21.37.27l.29-.24c-.1-.13-.25-.22-.46-.35Zm.64.72l-.36.09c.02.09,0,.18,0,.46l.38.03c.02-.26.04-.43,0-.59Zm.14-1.5c-.07.06-.14.09-.22.11l.09.37c.13-.04.26-.1.37-.19l-.25-.29Zm.26-.38c-.15.25-.2.32-.26.38l.25.29c.12-.1.21-.26.34-.47l-.32-.2Zm-.48.49c-.09.02-.18.02-.45,0l-.03.38c.26.02.43.03.58,0l-.09-.37Zm1.46.29l-.37.09c.04.13.09.26.19.37l.29-.24c-.06-.07-.09-.14-.11-.23Zm.11.23l-.29.24c.09.12.25.22.45.35l.21-.32c-.24-.14-.31-.2-.37-.26Zm-.11-.69l-.38-.03c-.02.26-.03.43,0,.59l.37-.09c-.02-.09-.02-.19,0-.46Zm-.39,1.58c-.13.04-.26.1-.36.19l.25.29c.06-.06.13-.09.21-.11l-.09-.37Zm-.36.19c-.12.1-.22.26-.35.47l.33.2c.14-.25.2-.32.26-.38l-.25-.29Zm.36-.19l.09.37c.09-.03.18-.02.45,0l.03-.38c-.25-.02-.42-.03-.58,0Zm-.71.66l-.31.52-.4.65.16.1.16.09.72-1.17-.33-.2Zm1.9-.62l-.62-.05-.03.38,1.35.09v-.18s0,0,0,0h0s0-.19,0-.19l-.74-.05Zm-.32-.66l-.21.32.53.34.62.4.09-.15h0s0-.02,0-.02l.09-.15-1.14-.74Zm-.58-2.36h-.19s-.06.76-.06.76l-.04.62.38.03.09-1.39h-.19Zm0,0h0l-.15-.09-.72,1.17.32.2.31-.52.41-.65-.16-.1ZM.44,2.38v.19s-.02.19-.02.19l.74.05.61.05.03-.38-1.35-.09Zm.72.43l-.62-.4-.1.16-.1.16,1.15.73.2-.31-.52-.34Zm.79,1.62l-.09,1.38.19.02h.19s.05-.76.05-.76l.04-.62-.38-.03Zm1.76,2.27l-.1.36s.06.03.09.05l.26-.28c-.08-.06-.15-.1-.24-.12Zm-.35-.02v.38c.18,0,.21,0,.25,0l.1-.36c-.1-.04-.22-.03-.35-.02Zm.59.14l-.26.28s.05.06.13.2l.32-.19c-.07-.11-.12-.22-.2-.29Zm-.54-.71s-.03.07-.06.09l.29.25c.06-.07.1-.15.12-.24l-.36-.1Zm0-.24c0,.17,0,.21,0,.24l.36.1c.03-.1.03-.22.02-.36l-.38.02Zm-.06.33s-.05.05-.19.13l.2.32c.11-.07.21-.12.28-.21l-.29-.25Zm.9-.34l-.26.28c.07.06.15.1.24.12l.1-.36s-.07-.03-.09-.05Zm.31.05c-.16,0-.2,0-.23,0l-.1.36c.1.04.22.03.35.02l-.02-.38Zm-.44-.25l-.33.19c.08.12.12.22.21.29l.26-.28s-.05-.06-.13-.2Zm.18.85c-.06.07-.1.15-.13.24l.37.1s.03-.07.05-.09l-.28-.25Zm.24.34l-.37-.1c-.03.1-.02.22,0,.36l.38-.02c0-.16,0-.21,0-.24Zm.05-.55c-.12.07-.22.12-.28.21l.28.25s.06-.05.2-.13l-.2-.32Zm-.05.79l-.38.02v.02l.03.76h.2s.18,0,.18,0l-.03-.79Zm.8-1.02l-.09-.16-.62.38-.04.02.2.32.65-.4-.09-.16Zm0-.19l-.77.03.02.38h.04l.73-.03-.02-.38Zm-1.6-.9l-.16.09h0s-.16.09-.16.09l.39.68.33-.19-.39-.68Zm.03.09h-.2s-.18,0-.18,0l.03.79.38-.02-.03-.78Zm-.6,1.26l-.66.4.09.15v.02s.1.15.1.15l.62-.38.04-.02-.2-.32Zm.21.72v-.38h-.05l-.73.03v.2s0,.18,0,.18l.77-.03Zm.79.08v-.02s-.33.19-.33.19l.39.68.16-.09h0s.15-.09.15-.09l-.38-.66Zm9.88,0c-.61-.18-1.28-.33-1.98-.45-.03-.18-.06-.37-.09-.56-.08-.4-.17-.81-.28-1.22-.13-.04-.27-.09-.43-.12.13.48.25.96.33,1.41.03.14.05.29.08.43-.71-.11-1.45-.21-2.17-.25-.13-.02-.26-.03-.38-.03-1.04-.07-2.03-.05-2.85.07-.09,0-.19.02-.28.04l.06.38.2-.03c.81-.12,1.83-.14,2.9-.08.06.89.06,1.85,0,2.89.12,0,.26,0,.38,0,.05-1.02.05-1.97,0-2.85.72.05,1.47.14,2.19.26.13.03.26.05.4.08.7.12,1.36.27,1.97.45.03,0,.05,0,.07.02l.11-.36c-.08-.02-.14-.05-.22-.06Zm-2.38-.52c-.71-.11-1.45-.21-2.17-.25.02.12.02.25.03.38.72.05,1.47.14,2.19.26,0-.12-.03-.26-.05-.39Zm2.44,2.35s-.07.02-.1.02c-.69.17-1.36.29-2.01.39-.14.02-.28.04-.42.06-.72.09-1.4.15-2.05.17-.12,0-.26,0-.38,0-1.06.03-2.02-.03-2.91-.12-.13-.02-.26-.03-.38-.05-.63-.08-1.22-.18-1.76-.28-.13-.03-.26-.06-.39-.09-.77-.16-1.41-.33-1.93-.45-.05,0-.09-.02-.12-.03l-.09.37c.09.02.18.05.27.07.52.12,1.14.29,1.89.44.06.55.13,1.12.26,1.71-.56-.24-1.14-.53-1.79-.84.08.19.16.37.26.55.58.28,1.1.54,1.64.75.14.07.28.11.43.17.31.11.63.22.97.3.21.06.44.1.66.14.12.02.26.05.39.06-.03-.13-.05-.26-.07-.39-.11-.71-.18-1.39-.23-2.04.86.09,1.82.14,2.85.11.12,0,.25,0,.38,0,1.34-.05,2.82-.22,4.43-.59.09-.02.18-.04.26-.06l-.09-.37Zm-8.5,2.77c-.42-.1-.8-.24-1.19-.38-.14-.62-.22-1.22-.27-1.82.53.11,1.11.21,1.74.28.05.65.11,1.32.23,2.02-.17-.04-.34-.08-.5-.11Zm6.1-4.73c0-.12-.03-.26-.05-.39-.71-.11-1.45-.21-2.17-.25.02.12.02.25.03.38.72.05,1.47.14,2.19.26Zm-.05-.39c-.71-.11-1.45-.21-2.17-.25.02.12.02.25.03.38.72.05,1.47.14,2.19.26,0-.12-.03-.26-.05-.39Zm-1.21,5.37c-.43.03-.83.05-1.2.06-.13,0-.26.02-.38,0-.93.02-1.7-.03-2.38-.13-.13-.02-.26-.04-.39-.07-.17-.04-.34-.08-.5-.11-.42-.1-.8-.24-1.19-.38-.13-.06-.27-.11-.42-.17h0c-.56-.25-1.14-.54-1.79-.85-.02-.02-.05-.03-.07-.04l-.17.34c.17.09.34.17.5.25.58.28,1.1.54,1.64.75.14.07.28.11.43.17.31.11.63.22.97.3.21.06.44.1.66.14.12.02.26.05.39.06.65.09,1.38.14,2.24.12.12,0,.25,0,.38,0,.41,0,.83-.04,1.3-.07l-.03-.38Zm2.98-6.88c-.58-.21-1.19-.44-1.86-.62-.14-.05-.28-.09-.44-.12-.61-.15-1.24-.28-1.9-.34-.12-.02-.26-.03-.39-.04-.74-.05-1.52,0-2.33.16-.08,0-.15.02-.23.04l.09.37s.06,0,.09-.02c.84-.18,1.66-.22,2.44-.16.13,0,.26.02.4.03.68.08,1.33.22,1.96.39.15.04.29.09.43.12.7.22,1.35.46,1.96.68h0s.04-.09.04-.09l.09-.26c-.11-.04-.23-.09-.34-.12Zm-3.91,1.65c0-.13,0-.26-.03-.38-.04-.71-.11-1.37-.2-1.98-.02-.13-.04-.26-.07-.38-.14-.93-.3-1.7-.43-2.32-.02-.1-.04-.21-.06-.3l-.38.08c0,.06.02.11.04.17.12.61.29,1.39.44,2.34-.74-.05-1.52,0-2.33.16-.02.12-.04.26-.06.39.84-.18,1.66-.22,2.44-.16.09.61.17,1.26.22,1.98,0,.12.02.25.02.38.06.89.06,1.85,0,2.89-.02.12-.02.26-.03.38-.06.66-.13,1.35-.25,2.06-.02.12-.05.25-.07.38-.1.59-.23,1.19-.39,1.82,0,.06-.03.1-.04.16l.36.09c.03-.1.06-.21.08-.31.15-.61.27-1.19.37-1.76.03-.13.05-.26.07-.39.11-.71.19-1.4.25-2.06,0-.13.02-.26.03-.38.05-1.02.05-1.97,0-2.85Zm0,0c0-.13,0-.26-.03-.38-.04-.71-.11-1.37-.2-1.98-.13,0-.26-.03-.4-.03.09.61.17,1.26.22,1.98-1.04-.07-2.03-.05-2.85.07.04-.68.1-1.31.19-1.88.02-.13.04-.26.06-.39.15-.98.32-1.8.45-2.43,0-.09.02-.16.04-.24l-.37-.08c-.03.12-.05.25-.09.39-.31,1.59-.87,4.24-.69,7.66,0,.13,0,.26.02.39.05.65.11,1.32.23,2.02-.17-.04-.34-.08-.5-.11-.42-.1-.8-.24-1.19-.38.04.14.08.29.12.44.31.11.63.22.97.3.21.06.44.1.66.14.09.6.21,1.21.37,1.85.03.13.06.27.09.41l.37-.09c-.02-.08-.04-.15-.06-.23-.16-.64-.28-1.27-.39-1.87-.03-.13-.05-.26-.07-.39-.11-.71-.18-1.39-.23-2.04.86.09,1.82.14,2.85.11,0-.12,0-.26.03-.38-1.06.03-2.02-.03-2.91-.12-.06-.97-.05-1.86,0-2.69.81-.12,1.83-.14,2.9-.08.06.89.06,1.85,0,2.89.12,0,.26,0,.38,0,.05-1.02.05-1.97,0-2.85Zm-4.24,6.9c-.34-.64-.58-1.26-.75-1.85-.05-.15-.09-.3-.12-.44-.14-.62-.22-1.22-.27-1.82,0-.12-.03-.26-.04-.39,0-.15-.03-.29-.04-.44l-.38.04c0,.1.02.21.03.32,0,.13.02.26.03.4.06.55.13,1.12.26,1.71-.56-.24-1.14-.53-1.79-.84.08.19.16.37.26.55.58.28,1.1.54,1.64.75.13.55.31,1.11.6,1.69.09.19.18.38.28.57l.33-.18s-.03-.05-.04-.07Zm6.82-6.57c-.02-.13-.04-.26-.05-.4-.03-.18-.06-.37-.09-.56-.08-.4-.17-.81-.28-1.22-.03-.14-.07-.28-.11-.43-.2-.71-.44-1.42-.72-2.1-.08-.16-.14-.32-.21-.48l-.17.08h0l-.17.08s.02.05.03.07c.31.72.59,1.49.81,2.24.05.14.09.28.12.43.13.48.25.96.33,1.41.03.14.05.29.08.43.02.13.04.26.05.39.12.97.09,1.83-.13,2.42,0,.03,0,.05-.02.07l.35.14c.03-.09.07-.17.09-.26.18-.62.2-1.42.11-2.29Zm1.99.86c0,.19,0,.39-.03.58,0,.13-.03.26-.06.4,0,.03,0,.05,0,.07-.02.14-.04.27-.08.41-.02.09-.04.17-.07.26-.04.15-.09.3-.14.45,0,.02,0,.04-.02.06l.35.12h0c.06-.15.1-.3.15-.46.03-.08.05-.16.07-.26.09-.32.14-.66.17-1.01.02-.2.03-.4.03-.61h-.38Zm-3.55-6.14l-.09.17-.08.17c.08.04.14.07.21.11.09.03.17.08.26.12.02,0,.04.02.05.03.17.09.33.2.49.31.31.22.61.46.88.74h0l.26-.26c-.58-.59-1.26-1.06-2-1.39Zm3.43,3.57l-.29.12-.06.02c-.06-.14-.11-.27-.19-.41-.58-.21-1.19-.44-1.86-.62-.14-.05-.28-.09-.44-.12.05.14.09.28.12.43.13.48.25.96.33,1.41.03.14.05.29.08.43.02.13.04.26.05.39.12.97.09,1.83-.13,2.42.13-.02.27-.04.42-.06.18-.62.2-1.42.11-2.29.7.12,1.36.27,1.97.45.02.13.02.27.02.41h.38c0-.88-.17-1.76-.5-2.57Zm-1.91,1.32c-.03-.18-.06-.37-.09-.56-.08-.4-.17-.81-.28-1.22.7.22,1.35.46,1.96.68.21.5.34,1.02.4,1.55-.61-.18-1.28-.33-1.98-.45Zm-1.21-4.31c-.09-.05-.17-.09-.26-.12-.07-.05-.13-.08-.21-.11l.08-.17-.17.08s.02.05.03.07c.31.72.59,1.49.81,2.24.15.04.29.08.44.12-.2-.71-.44-1.42-.72-2.1Zm.54.34c.31.22.61.46.88.74-.27-.27-.57-.53-.88-.74Zm1.15.47l-.26.26c.46.48.86,1.04,1.15,1.65.08.13.13.26.19.41l.06-.02.29-.12c-.33-.81-.81-1.55-1.43-2.18Zm-.27.26c-.27-.27-.57-.53-.88-.74.31.22.61.46.88.74Zm-1.67-1.2c-.07-.05-.13-.08-.21-.11l.08-.17-.17.08s.02.05.03.07c.31.72.59,1.49.81,2.24.15.04.29.08.44.12-.2-.71-.44-1.42-.72-2.1-.09-.05-.17-.09-.26-.12Zm.79.46c.31.22.61.46.88.74-.27-.27-.57-.53-.88-.74Zm-.54-.34c-.09-.05-.17-.09-.26-.12-.07-.05-.13-.08-.21-.11l.08-.17-.17.08s.02.05.03.07c.31.72.59,1.49.81,2.24.15.04.29.08.44.12-.2-.71-.44-1.42-.72-2.1Zm-.3-.58h0s-.08-.04-.11-.06l-.02.05-.11.26-.02.05s.03,0,.05.02c.02,0,.05.02.07.03.08.04.14.07.21.11.09.03.17.08.26.12.02,0,.04.02.05.03.17.09.33.19.49.31.31.21.61.46.88.74h0l.26-.26c-.58-.59-1.26-1.06-2-1.39Zm.59,2.55c-.61-.15-1.24-.28-1.9-.34-.14-.93-.3-1.7-.43-2.32.5.07.99.2,1.47.4.02,0,.03,0,.05.02,0-.02-.02-.05-.03-.07l.11-.26.02-.05c-.79-.33-1.65-.5-2.5-.5v.38c.16,0,.32,0,.48.02.12.61.29,1.39.44,2.34-.74-.05-1.52,0-2.33.16-.02.12-.04.26-.06.39.84-.18,1.66-.22,2.44-.16.13,0,.26.02.4.03.68.08,1.33.22,1.96.39-.04-.14-.08-.28-.12-.43ZM5.33,1.76l.16.35c.34-.15.7-.27,1.06-.35.14-.04.27-.07.42-.08.31-.06.63-.09.96-.09v-.38c-.89,0-1.77.18-2.59.54Zm1.16,10.13c.02.12.04.26.07.39.65.09,1.38.14,2.24.12.02-.13.05-.26.07-.38-.93.02-1.7-.03-2.38-.13Zm2.38.13c-.93.02-1.7-.03-2.38-.13.02.12.04.26.07.39.65.09,1.38.14,2.24.12.02-.13.05-.26.07-.38Zm-2.33,2.04c-.44-.09-.86-.25-1.26-.44-.34-.64-.58-1.26-.75-1.85-.14-.06-.28-.1-.43-.17.13.55.31,1.11.6,1.69-.95-.59-1.72-1.43-2.23-2.44-.1-.18-.19-.36-.26-.55-.16-.42-.28-.86-.36-1.32-.03-.13-.05-.26-.07-.41-.02-.22-.03-.44-.03-.67h-.38c0,.91.17,1.77.5,2.56,0,0,0,.03,0,.04,0,0,0,0,0,.02.62,1.47,1.71,2.67,3.11,3.36,0,0,.02.02.03.02.02.02.04.04.07.04.85.43,1.81.66,2.82.66v-.38c-.33,0-.66-.03-.97-.09-.16-.64-.28-1.27-.39-1.87-.13,0-.26-.04-.39-.06.09.6.21,1.21.37,1.85Zm-.05-2.18c.02.12.04.26.07.39.65.09,1.38.14,2.24.12.02-.13.05-.26.07-.38-.93.02-1.7-.03-2.38-.13Zm3.78,1.86c-.47.2-.96.34-1.46.41-.13.03-.26.05-.4.06-.17,0-.33.02-.49.02v.38c.85,0,1.7-.17,2.5-.51l-.15-.35Zm3.82-5.84c0,.19,0,.39-.03.58,0,.13-.03.26-.06.4,0,.03,0,.05,0,.07-.02.14-.04.27-.08.41-.02.09-.04.17-.07.26-.04.15-.09.3-.14.45,0,.02,0,.04-.02.06-.02.08-.05.14-.08.21l.35.14c.03-.07.06-.14.08-.22h0s0,0,0,0c.06-.15.1-.3.15-.46.03-.08.05-.16.07-.26.09-.32.14-.66.17-1.01.02-.2.03-.4.03-.61h-.38Zm-3.31,5.09c-.08.04-.12.12-.1.21.02.09.09.14.18.14v-.18s0,0,0,0l-.09-.16Zm2.92,2.08h0l-.17.09c.04.08.12.12.21.1.09-.02.15-.09.15-.18h-.18Zm1.87-3.08v.19s.08.17.08.17c.08-.05.11-.13.1-.22-.02-.08-.09-.14-.18-.14Zm-2.88-1.92c-.09.02-.15.09-.15.18h.18s0,0,0,0l.17-.09c-.04-.08-.12-.11-.21-.1ZM.25,2.51c-.03.08,0,.17.08.22l.1-.16v-.19c-.08,0-.15.05-.18.13Zm1.81,3.31l-.19-.02c0,.09.05.17.13.2.09.02.17,0,.22-.09l-.16-.09Zm3.27-1.83l-.09.15h0v.2c.08,0,.16-.05.18-.13.03-.09,0-.17-.08-.22ZM3.67.72c-.09-.03-.18,0-.22.09l.15.09h.2c0-.08-.06-.15-.13-.18Zm-1.07,6.16l-.09-.15c-.08.05-.1.13-.09.22.03.09.1.14.19.13v-.2Zm1.78,1l-.16.09c.04.08.13.1.21.09.09-.03.14-.1.14-.19h-.19Zm.96-2.01v.19s.1.16.1.16c.08-.05.11-.13.09-.22-.02-.09-.1-.13-.19-.13Zm-1.82-.98c-.09.03-.14.1-.13.19h.18s0,0,0,0l.16-.09c-.05-.08-.13-.1-.22-.09Zm6.94,7.07l.03.38c.1,0,.18-.1.17-.21,0-.1-.09-.18-.2-.17Zm-8.56-1.6s-.03.09,0,.12c0,0,0,.03,0,.04,0,0,0,0,0,.02.02.03.05.06.08.08l.17-.34c-.09-.05-.21,0-.26.09Zm3.43,3.33l-.33.18s0,.02.02.03c0,0,.02.02.03.02.02.02.04.04.07.04.05.02.09,0,.14,0,.09-.06.12-.17.08-.26Zm-1.47-5.18c-.1,0-.18.1-.17.21l.38-.04c0-.1-.1-.18-.21-.17Zm10.19,1.74l-.35-.12c-.03.09.02.21.11.24.1.04.2,0,.24-.1,0,0,0,0,0,0h0ZM10.54,1.78s-.09-.03-.13,0c-.03,0-.06.03-.08.05-.06.06-.07.14-.04.21l.17-.08.09-.17h0Zm-5.2-.02c-.09.05-.13.15-.09.25.05.1.15.14.26.1l-.16-.35ZM1.56,7.73c-.1,0-.19.09-.19.19h.38c0-.1-.09-.19-.19-.19Zm8.71,6.03l.15.35c.09-.04.14-.15.1-.25-.05-.09-.15-.14-.26-.1Zm3.35-3.42c-.04.09,0,.21.1.25.09.04.21,0,.25-.1l-.35-.14Z" style="fill: #f8f9fa; stroke-width: 0px;"/>
  <path d="m14.82,12.35l-.5.25c-.21.1-.36.17-.47.28-.09.09-.17.21-.21.33-.06.15-.07.31-.08.56l-.03.55-.23-.49c-.09-.22-.17-.37-.27-.48-.09-.1-.21-.18-.33-.23-.14-.06-.3-.06-.54-.07l-.57-.03.51-.25c.22-.1.37-.17.47-.28.09-.09.17-.21.22-.33.06-.15.06-.31.08-.56l.02-.54.23.48c.1.22.17.37.28.48.09.1.2.18.32.23.15.06.31.06.55.07l.55.03Z" style="fill: #f8f9fa; stroke-width: 0px;"/>
  <path d="m4.51,3.92l-.62-.05c-.25-.02-.42-.03-.58,0-.13.04-.26.1-.36.19-.12.1-.22.26-.35.47l-.31.52.04-.62c.02-.26.04-.43,0-.59-.03-.13-.09-.26-.18-.37-.1-.13-.25-.22-.46-.35l-.52-.34.61.05c.26.02.43.03.58,0,.13-.04.26-.1.37-.19.12-.1.21-.26.34-.47l.31-.52-.04.62c-.02.26-.03.43,0,.59.04.13.09.26.19.37.09.12.25.22.45.35l.53.34Z" style="fill: #f8f9fa; stroke-width: 0px;"/>
</svg>