<svg width="20" height="20" viewBox="0 0 20 20" fill="none" xmlns="http://www.w3.org/2000/svg">
<path d="M16.6362 10.4159L16.4362 10.4156V10.4159H16.6362ZM15.9382 12.9808C15.8966 13.0832 15.9459 13.1998 16.0482 13.2413C16.1506 13.2829 16.2672 13.2336 16.3088 13.1312L15.9382 12.9808ZM12.5596 16.96C12.6614 16.917 12.709 16.7997 12.666 16.698C12.623 16.5962 12.5056 16.5486 12.4039 16.5916L12.5596 16.96ZM9.91631 17.295L9.91658 17.095H9.91631V17.295ZM3.39639 10.4159C3.39639 10.3054 3.30684 10.2159 3.19639 10.2159C3.08593 10.2159 2.99639 10.3054 2.99639 10.4159H3.39639ZM7.1842 3.91003C7.08308 3.95447 7.03713 4.07247 7.08157 4.17359C7.12601 4.27472 7.24402 4.32067 7.34514 4.27623L7.1842 3.91003ZM9.91631 3.53682L9.91606 3.73682L9.91658 3.73682L9.91631 3.53682ZM12.4818 4.05596L12.5596 3.87174V3.87174L12.4818 4.05596ZM14.6576 5.54104L14.5147 5.68105L14.515 5.68129L14.6576 5.54104ZM16.1235 7.77576L15.9382 7.85097L16.1235 7.77576ZM12.6039 4.10943L12.6857 3.92691C12.6103 3.89312 12.5218 3.90921 12.4631 3.9674C12.4044 4.02558 12.3876 4.11388 12.4207 4.1896L12.6039 4.10943ZM16.0247 12.7552C15.9868 12.8589 16.0402 12.9738 16.1439 13.0117C16.2477 13.0496 16.3625 12.9962 16.4004 12.8925L16.0247 12.7552ZM5.83561 11.2327C5.82603 11.1226 5.72906 11.0412 5.61902 11.0508C5.50898 11.0603 5.42754 11.1573 5.43712 11.2673L5.83561 11.2327ZM6.81621 16.7072C6.86931 16.804 6.99087 16.8395 7.08773 16.7864C7.18459 16.7333 7.22006 16.6117 7.16697 16.5149L6.81621 16.7072ZM3.81114 12.9095C3.71212 12.8606 3.59217 12.9012 3.54321 13.0002C3.49425 13.0992 3.53483 13.2191 3.63384 13.2681L3.81114 12.9095ZM12.6199 15.0868C12.7301 15.0787 12.8129 14.9829 12.8048 14.8727C12.7968 14.7626 12.7009 14.6798 12.5908 14.6878L12.6199 15.0868ZM5.31706 7.41249L5.49051 7.31293C5.44466 7.23304 5.35016 7.1948 5.26165 7.22032C5.17314 7.24584 5.1135 7.32852 5.11722 7.42056L5.31706 7.41249ZM7.19018 8.45786L7.29327 8.62925C7.37161 8.58212 7.40803 8.48787 7.38172 8.40031C7.35541 8.31275 7.27307 8.25418 7.18173 8.25804L7.19018 8.45786ZM6.16899 10.3753L5.99554 10.4749C6.04139 10.5548 6.13589 10.593 6.2244 10.5675C6.31291 10.542 6.37254 10.4593 6.36883 10.3673L6.16899 10.3753ZM4.29587 9.32998L4.19278 9.15859C4.11444 9.20572 4.07802 9.29997 4.10433 9.38753C4.13064 9.47509 4.21298 9.53366 4.30432 9.5298L4.29587 9.32998ZM6.49223 8.87768L6.59532 9.04907L6.49223 8.87768ZM6.2394 9.05776L6.39188 9.18718L6.2394 9.05776ZM6.13558 9.54736L6.33542 9.5393L6.13558 9.54736ZM6.14647 9.23225L6.33886 9.2869L6.14647 9.23225ZM5.72716 8.12697L5.55371 8.22653L5.72716 8.12697ZM5.90308 8.38579L6.03599 8.23635L5.90308 8.38579ZM6.38135 8.49207L6.3898 8.69189L6.38135 8.49207ZM6.07353 8.48092L6.01647 8.67261L6.07353 8.48092ZM4.99382 8.91016L5.09691 9.08154L4.99382 8.91016ZM5.24665 8.73008L5.09417 8.60066L5.24665 8.73008ZM5.35047 8.24047L5.15063 8.24854L5.35047 8.24047ZM5.33958 8.55558L5.53197 8.61023L5.33958 8.55558ZM5.75889 9.66087L5.93234 9.56131L5.75889 9.66087ZM5.58297 9.40204L5.71588 9.2526L5.58297 9.40204ZM5.1047 9.29577L5.09625 9.09595L5.1047 9.29577ZM5.41252 9.30692L5.46958 9.11523L5.41252 9.30692ZM5.35658 3L5.55615 3.01314C5.5622 2.92123 5.5047 2.83708 5.41688 2.80931C5.32906 2.78154 5.23363 2.81733 5.18574 2.89601L5.35658 3ZM7.07486 6.43607L7.0611 6.6356C7.15232 6.64189 7.2362 6.58551 7.26481 6.49867C7.29343 6.41182 7.25951 6.31663 7.18242 6.26745L7.07486 6.43607ZM3.71828 8.19505L3.51871 8.18191C3.51266 8.27382 3.57016 8.35797 3.65798 8.38574C3.7458 8.41351 3.84123 8.37771 3.88912 8.29904L3.71828 8.19505ZM2 4.75897L2.01376 4.55945C1.92254 4.55316 1.83867 4.60953 1.81005 4.69638C1.78143 4.78322 1.81535 4.87842 1.89244 4.92759L2 4.75897ZM5.64727 6.33759L5.6335 6.53712L5.64727 6.33759ZM5.10287 6.34281L5.05092 6.14967L5.10287 6.34281ZM4.47498 6.95192L4.64582 7.05591L4.47498 6.95192ZM4.79742 6.50287L4.66846 6.35001L4.79742 6.50287ZM5.26038 4.46141L5.45995 4.47454L5.26038 4.46141ZM5.26547 5.01869L5.07175 5.06842L5.26547 5.01869ZM5.86049 5.66146L5.96805 5.49284L5.86049 5.66146ZM5.42183 5.33137L5.57762 5.20595L5.42183 5.33137ZM3.4276 4.85746L3.41383 5.05698L3.4276 4.85746ZM3.97199 4.85224L4.02394 5.04538L3.97199 4.85224ZM4.59989 4.24313L4.42905 4.13914L4.59989 4.24313ZM4.27744 4.69218L4.40641 4.84504L4.27744 4.69218ZM3.81448 6.73364L4.01405 6.74678L3.81448 6.73364ZM3.80939 6.17635L4.00311 6.12663L3.80939 6.17635ZM3.21437 5.53359L3.10682 5.70221L3.21437 5.53359ZM3.65303 5.86367L3.49724 5.9891L3.65303 5.86367ZM15.0051 12.908L15.1863 12.8233C15.1473 12.7398 15.0563 12.6938 14.9659 12.7119C14.8755 12.73 14.8092 12.8074 14.8053 12.8995L15.0051 12.908ZM18 14.9342L18.088 15.1138C18.1701 15.0736 18.2144 14.9829 18.1958 14.8934C18.1771 14.8039 18.1002 14.7385 18.0089 14.7344L18 14.9342ZM16.0207 18L15.8395 18.0847C15.8785 18.1682 15.9696 18.2142 16.0599 18.1961C16.1503 18.178 16.2166 18.1006 16.2205 18.0085L16.0207 18ZM13.0258 15.9738L12.9378 15.7942C12.8558 15.8344 12.8114 15.9252 12.83 16.0146C12.8487 16.1041 12.9256 16.1695 13.0169 16.1736L13.0258 15.9738ZM16.7713 15.5362L16.8593 15.7158L16.7713 15.5362ZM16.3223 15.8012L16.4633 15.943L16.3223 15.8012ZM16.08 16.6069L15.8802 16.5984V16.5984L16.08 16.6069ZM16.1422 16.0802L16.3294 16.1506L16.1422 16.0802ZM15.5932 14.1658L15.412 14.2505L15.5932 14.1658ZM15.8521 14.6254L15.9972 14.4878L15.8521 14.6254ZM16.6391 14.8735L16.6302 15.0733L16.6391 14.8735ZM16.1246 14.8098L16.198 14.6238L16.1246 14.8098ZM14.2545 15.3718L14.3425 15.5514L14.2545 15.3718ZM14.7035 15.1068L14.8445 15.2487L14.7035 15.1068ZM14.9458 14.3011L15.1456 14.3096L14.9458 14.3011ZM14.8836 14.8278L14.6964 14.7574L14.8836 14.8278ZM15.4326 16.7422L15.2515 16.8269L15.4326 16.7422ZM15.1738 16.2826L15.0287 16.4202H15.0287L15.1738 16.2826ZM14.3867 16.0346L14.3778 16.2344L14.3867 16.0346ZM14.9012 16.0982L14.9746 15.9121L14.9012 16.0982ZM16.4362 10.4161C16.4373 11.2964 16.268 12.1681 15.9382 12.9808L16.3088 13.1312C16.6582 12.2705 16.8374 11.3475 16.8362 10.4156L16.4362 10.4161ZM12.4039 16.5916C11.615 16.9251 10.7698 17.0961 9.91658 17.095L9.91605 17.495C10.8231 17.4962 11.7215 17.3144 12.5596 16.96L12.4039 16.5916ZM9.91631 17.095C6.31974 17.095 3.39639 14.1092 3.39639 10.4159H2.99639C2.99639 14.3212 6.09005 17.495 9.91631 17.495V17.095ZM7.34514 4.27623C8.15751 3.91921 9.03231 3.73571 9.91606 3.73682L9.91656 3.33682C8.97702 3.33564 8.04726 3.53074 7.1842 3.91003L7.34514 4.27623ZM9.91658 3.73682C10.7698 3.73569 11.615 3.90669 12.4039 4.24017L12.5596 3.87174C11.7215 3.51743 10.8231 3.33562 9.91605 3.33682L9.91658 3.73682ZM12.4039 4.24017C13.1928 4.57366 13.9101 5.06316 14.5146 5.68092L14.8005 5.40116C14.1592 4.74583 13.3978 4.22604 12.5596 3.87174L12.4039 4.24017ZM14.515 5.68129C15.1245 6.30092 15.6083 7.03831 15.9382 7.85097L16.3088 7.70054C15.9594 6.83975 15.4467 6.05807 14.8001 5.40078L14.515 5.68129ZM15.9382 7.85097C16.268 8.66365 16.4373 9.53534 16.4362 10.4156L16.8362 10.4161C16.8374 9.48428 16.6582 8.56132 16.3088 7.70054L15.9382 7.85097ZM12.5222 4.29196C13.2645 4.62444 13.9404 5.09527 14.5147 5.68105L14.8004 5.40102C14.1912 4.7797 13.4739 4.27995 12.6857 3.92691L12.5222 4.29196ZM16.4362 10.4159C16.4362 11.239 16.2906 12.0274 16.0247 12.7552L16.4004 12.8925C16.6822 12.1213 16.8362 11.2864 16.8362 10.4159H16.4362ZM12.4207 4.1896C13.0314 5.58548 13.5305 7.14748 13.7934 8.57013C14.0581 10.0023 14.0767 11.2579 13.762 12.0632L14.1346 12.2087C14.4919 11.2942 14.4542 9.9446 14.1868 8.49743C13.9175 7.04077 13.4085 5.44939 12.7872 4.02927L12.4207 4.1896ZM5.43712 11.2673C5.58119 12.9225 5.70524 14.6806 6.81621 16.7072L7.16697 16.5149C6.10092 14.5703 5.97992 12.8906 5.83561 11.2327L5.43712 11.2673ZM8.56183 3.49847C8.11416 5.78983 6.87195 10.761 8.56441 17.3447L8.95182 17.2452C7.28438 10.7587 8.50608 5.86985 8.9544 3.57517L8.56183 3.49847ZM10.3929 3.57517C10.8412 5.86985 12.0629 10.7587 10.3955 17.2452L10.7829 17.3447C12.4754 10.761 11.2332 5.78983 10.7855 3.49847L10.3929 3.57517ZM8.28246 6.82764C11.2402 6.15478 13.8733 7.16147 15.9649 7.92784L16.1025 7.55226C14.0267 6.79168 11.2838 5.73465 8.19373 6.43761L8.28246 6.82764ZM3.63384 13.2681C4.98571 13.9365 6.0507 14.4832 7.36901 14.8143C8.69025 15.1461 10.2555 15.2597 12.6199 15.0868L12.5908 14.6878C10.2512 14.8589 8.73211 14.7442 7.46645 14.4263C6.19784 14.1077 5.17338 13.5831 3.81114 12.9095L3.63384 13.2681ZM3.2051 11.4916C5.42864 12.0156 10.0636 13.431 16.5449 11.8886L16.4523 11.4995C10.0741 13.0174 5.52551 11.6275 3.29686 11.1022L3.2051 11.4916ZM7.93471 9.23749C10.1475 8.85216 13.9109 9.23807 16.4938 10.0117L16.6086 9.62855C13.9857 8.84291 10.1573 8.44444 7.86609 8.84342L7.93471 9.23749ZM6.34245 10.2758L5.93234 9.56131L5.58543 9.76043L5.99554 10.4749L6.34245 10.2758ZM5.09625 9.09595L4.28742 9.13015L4.30432 9.5298L5.11315 9.49559L5.09625 9.09595ZM4.39896 9.50136L5.09691 9.08154L4.89073 8.73877L4.19278 9.15859L4.39896 9.50136ZM5.55031 8.23241L5.51689 7.40443L5.11722 7.42056L5.15063 8.24854L5.55031 8.23241ZM5.1436 7.51206L5.55371 8.22653L5.90062 8.02741L5.49051 7.31293L5.1436 7.51206ZM6.3898 8.69189L7.19863 8.65768L7.18173 8.25804L6.3729 8.29224L6.3898 8.69189ZM7.08709 8.28648L6.38914 8.7063L6.59532 9.04907L7.29327 8.62925L7.08709 8.28648ZM5.93574 9.55543L5.96916 10.3834L6.36883 10.3673L6.33542 9.5393L5.93574 9.55543ZM6.38914 8.7063C6.26491 8.78102 6.16175 8.84017 6.08691 8.92835L6.39188 9.18718C6.41414 9.16095 6.44717 9.13818 6.59532 9.04907L6.38914 8.7063ZM6.33542 9.5393C6.32834 9.36399 6.32901 9.32157 6.33886 9.2869L5.95408 9.17761C5.92259 9.28846 5.92978 9.40761 5.93574 9.55543L6.33542 9.5393ZM6.08691 8.92835C6.02532 9.00091 5.9801 9.08599 5.95408 9.17761L6.33886 9.2869C6.3494 9.24979 6.36759 9.2158 6.39188 9.18718L6.08691 8.92835ZM5.55371 8.22653C5.62669 8.35369 5.68413 8.45872 5.77017 8.53524L6.03599 8.23635C6.01027 8.21347 5.98768 8.17909 5.90062 8.02741L5.55371 8.22653ZM6.3729 8.29224C6.20073 8.29953 6.16196 8.29857 6.13059 8.28923L6.01647 8.67261C6.12725 8.70558 6.24631 8.69796 6.3898 8.69189L6.3729 8.29224ZM5.77017 8.53524C5.84129 8.59849 5.92529 8.64547 6.01647 8.67261L6.13059 8.28923C6.09603 8.27895 6.06372 8.26101 6.03599 8.23635L5.77017 8.53524ZM5.09691 9.08154C5.22114 9.00681 5.3243 8.94767 5.39914 8.85949L5.09417 8.60066C5.07191 8.62689 5.03888 8.64966 4.89073 8.73877L5.09691 9.08154ZM5.15063 8.24854C5.15771 8.42385 5.15704 8.46627 5.14719 8.50094L5.53197 8.61023C5.56346 8.49938 5.55627 8.38023 5.55031 8.23241L5.15063 8.24854ZM5.39914 8.85949C5.46073 8.78692 5.50595 8.70185 5.53197 8.61023L5.14719 8.50094C5.13665 8.53804 5.11846 8.57203 5.09417 8.60066L5.39914 8.85949ZM5.93234 9.56131C5.85936 9.43415 5.80192 9.32911 5.71588 9.2526L5.45006 9.55149C5.47578 9.57437 5.49837 9.60875 5.58543 9.76043L5.93234 9.56131ZM5.11315 9.49559C5.28531 9.48831 5.32409 9.48927 5.35546 9.49861L5.46958 9.11523C5.35879 9.08225 5.23974 9.08988 5.09625 9.09595L5.11315 9.49559ZM5.71588 9.2526C5.64476 9.18934 5.56076 9.14237 5.46958 9.11523L5.35546 9.49861C5.39002 9.50889 5.42233 9.52683 5.45006 9.55149L5.71588 9.2526ZM3.91785 8.20818L4.01405 6.74678L3.61492 6.7205L3.51871 8.18191L3.91785 8.20818ZM3.32193 5.36497L2.10756 4.59036L1.89244 4.92759L3.10682 5.70221L3.32193 5.36497ZM1.98624 4.9585L3.41383 5.05698L3.44136 4.65793L2.01376 4.55945L1.98624 4.9585ZM4.77073 4.34712L5.52742 3.10399L5.18574 2.89601L4.42905 4.13914L4.77073 4.34712ZM5.15701 2.98686L5.06081 4.44827L5.45995 4.47454L5.55615 3.01314L5.15701 2.98686ZM5.75294 5.83007L6.96731 6.60469L7.18242 6.26745L5.96805 5.49284L5.75294 5.83007ZM7.08863 6.23655L5.66103 6.13807L5.6335 6.53712L7.0611 6.6356L7.08863 6.23655ZM4.30414 6.84793L3.54744 8.09106L3.88912 8.29904L4.64582 7.05591L4.30414 6.84793ZM5.66103 6.13807C5.39679 6.11984 5.21747 6.10487 5.05092 6.14967L5.15482 6.53594C5.24135 6.51266 5.3406 6.51691 5.6335 6.53712L5.66103 6.13807ZM4.64582 7.05591C4.80083 6.80123 4.85631 6.71486 4.92639 6.65573L4.66846 6.35001C4.53661 6.46124 4.44443 6.61745 4.30414 6.84793L4.64582 7.05591ZM5.05092 6.14967C4.91044 6.18746 4.77998 6.25591 4.66846 6.35001L4.92639 6.65573C4.99348 6.59914 5.07145 6.55837 5.15482 6.53594L5.05092 6.14967ZM5.06081 4.44827C5.04294 4.71972 5.02866 4.90054 5.07175 5.06842L5.45919 4.96897C5.43578 4.87777 5.44027 4.77342 5.45995 4.47454L5.06081 4.44827ZM5.96805 5.49284C5.71934 5.3342 5.63538 5.2777 5.57762 5.20595L5.26605 5.4568C5.37471 5.59176 5.52772 5.68641 5.75294 5.83007L5.96805 5.49284ZM5.07175 5.06842C5.1082 5.21042 5.1744 5.34296 5.26605 5.4568L5.57762 5.20595C5.52206 5.13695 5.48156 5.05612 5.45919 4.96897L5.07175 5.06842ZM3.41383 5.05698C3.67807 5.07521 3.85739 5.09018 4.02394 5.04538L3.92004 4.65911C3.83351 4.68238 3.73426 4.67813 3.44136 4.65793L3.41383 5.05698ZM4.42905 4.13914C4.27403 4.39381 4.21855 4.48018 4.14847 4.53931L4.40641 4.84504C4.53825 4.7338 4.63043 4.5776 4.77073 4.34712L4.42905 4.13914ZM4.02394 5.04538C4.16442 5.00759 4.29488 4.93913 4.40641 4.84504L4.14847 4.53931C4.08139 4.59591 4.00342 4.63668 3.92004 4.65911L4.02394 5.04538ZM4.01405 6.74678C4.03192 6.47532 4.04621 6.29451 4.00311 6.12663L3.61567 6.22608C3.63908 6.31727 3.63459 6.42162 3.61492 6.7205L4.01405 6.74678ZM3.10682 5.70221C3.35553 5.86085 3.43948 5.91735 3.49724 5.9891L3.80881 5.73825C3.70016 5.60329 3.54715 5.50863 3.32193 5.36497L3.10682 5.70221ZM4.00311 6.12663C3.96666 5.98462 3.90046 5.85209 3.80881 5.73825L3.49724 5.9891C3.5528 6.0581 3.5933 6.13893 3.61567 6.22608L4.00311 6.12663ZM16.2019 17.9153L15.6138 16.6575L15.2515 16.8269L15.8395 18.0847L16.2019 17.9153ZM14.3956 15.8348L13.0347 15.774L13.0169 16.1736L14.3778 16.2344L14.3956 15.8348ZM13.1138 16.1534L14.3425 15.5514L14.1665 15.1922L12.9378 15.7942L13.1138 16.1534ZM15.1456 14.3096L15.2049 12.9165L14.8053 12.8995L14.746 14.2926L15.1456 14.3096ZM14.8239 12.9927L15.412 14.2505L15.7743 14.0811L15.1863 12.8233L14.8239 12.9927ZM16.6302 15.0733L17.9911 15.134L18.0089 14.7344L16.6481 14.6736L16.6302 15.0733ZM17.912 14.7546L16.6833 15.3566L16.8593 15.7158L18.088 15.1138L17.912 14.7546ZM15.8802 16.5984L15.8209 17.9915L16.2205 18.0085L16.2799 16.6154L15.8802 16.5984ZM16.6833 15.3566C16.4561 15.4679 16.2996 15.5418 16.1813 15.6593L16.4633 15.943C16.5237 15.883 16.607 15.8394 16.8593 15.7158L16.6833 15.3566ZM16.2799 16.6154C16.292 16.3298 16.2986 16.2325 16.3294 16.1506L15.955 16.0097C15.8963 16.1658 15.8912 16.3403 15.8802 16.5984L16.2799 16.6154ZM16.1813 15.6593C16.0818 15.7583 16.0046 15.8779 15.955 16.0097L16.3294 16.1506C16.359 16.072 16.4048 16.0012 16.4633 15.943L16.1813 15.6593ZM15.412 14.2505C15.5208 14.4832 15.5925 14.6424 15.7069 14.7631L15.9972 14.4878C15.9381 14.4255 15.8951 14.3393 15.7743 14.0811L15.412 14.2505ZM16.6481 14.6736C16.3682 14.6612 16.2757 14.6544 16.198 14.6238L16.0512 14.9959C16.2059 15.0569 16.379 15.062 16.6302 15.0733L16.6481 14.6736ZM15.7069 14.7631C15.8036 14.865 15.921 14.9445 16.0512 14.9959L16.198 14.6238C16.1226 14.594 16.054 14.5477 15.9972 14.4878L15.7069 14.7631ZM14.3425 15.5514C14.5697 15.4401 14.7262 15.3663 14.8445 15.2487L14.5625 14.965C14.5021 15.025 14.4189 15.0686 14.1665 15.1922L14.3425 15.5514ZM14.746 14.2926C14.7338 14.5782 14.7273 14.6755 14.6964 14.7574L15.0708 14.8983C15.1296 14.7422 15.1346 14.5677 15.1456 14.3096L14.746 14.2926ZM14.8445 15.2487C14.9441 15.1497 15.0212 15.0301 15.0708 14.8983L14.6964 14.7574C14.6668 14.836 14.621 14.9068 14.5625 14.965L14.8445 15.2487ZM15.6138 16.6575C15.505 16.4248 15.4333 16.2656 15.3189 16.1449L15.0287 16.4202C15.0878 16.4825 15.1308 16.5687 15.2515 16.8269L15.6138 16.6575ZM14.3778 16.2344C14.6576 16.2469 14.7501 16.2536 14.8278 16.2842L14.9746 15.9121C14.8199 15.8511 14.6469 15.846 14.3956 15.8348L14.3778 16.2344ZM15.3189 16.1449C15.2222 16.043 15.1048 15.9635 14.9746 15.9121L14.8278 16.2842C14.9032 16.314 14.9718 16.3603 15.0287 16.4202L15.3189 16.1449Z" fill="white"/>
</svg>
