<svg width="16" height="16" viewBox="0 0 16 16" fill="none" xmlns="http://www.w3.org/2000/svg">
<path d="M10 1.33331L10.3592 2.92769C10.6638 4.28008 11.7199 5.33619 13.0723 5.64083L14.6667 5.99998L13.0723 6.35913C11.7199 6.66377 10.6638 7.71985 10.3592 9.07225L10 10.6666L9.64091 9.07225C9.33624 7.71985 8.28017 6.66377 6.92777 6.35913L5.33337 5.99998L6.92777 5.64083C8.28011 5.33619 9.33624 4.28008 9.64091 2.9277L10 1.33331Z" fill="#F8F9FA" stroke="#F8F9FA" stroke-width="0.5" stroke-linejoin="round"/>
<path d="M4.66671 8L4.92325 9.13887C5.14085 10.1048 5.89521 10.8592 6.86117 11.0768L8.00004 11.3333L6.86117 11.5899C5.89521 11.8075 5.14085 12.5618 4.92325 13.5278L4.66671 14.6667L4.41017 13.5278C4.19257 12.5618 3.43821 11.8075 2.47222 11.5899L1.33337 11.3333L2.47222 11.0768C3.43821 10.8592 4.19257 10.1049 4.41017 9.13887L4.66671 8Z" stroke="#F8F9FA" stroke-width="0.5" stroke-linejoin="round"/>
</svg>
