<svg width="44" height="45" viewBox="0 0 44 45" fill="none" xmlns="http://www.w3.org/2000/svg">
<rect x="0.5" y="1" width="43" height="43" rx="11.5" stroke="#F8F9FA" stroke-opacity="0.5"/>
<path d="M29 31.5V29.5C29 28.4391 28.5786 27.4217 27.8284 26.6716C27.0783 25.9214 26.0609 25.5 25 25.5H19C17.9391 25.5 16.9217 25.9214 16.1716 26.6716C15.4214 27.4217 15 28.4391 15 29.5V31.5M26 17.5C26 19.7091 24.2091 21.5 22 21.5C19.7909 21.5 18 19.7091 18 17.5C18 15.2909 19.7909 13.5 22 13.5C24.2091 13.5 26 15.2909 26 17.5Z" stroke="#F8F9FA" stroke-width="1.5" stroke-linecap="round" stroke-linejoin="round"/>
</svg>
