<svg width="24" height="24" viewBox="0 0 24 24" fill="none" xmlns="http://www.w3.org/2000/svg">
<path d="M22.713 9.04549C22.6192 8.75723 22.4422 8.50317 22.2043 8.31532C21.9664 8.12747 21.6783 8.01423 21.3761 7.98986L15.8449 7.54361L13.7092 2.37892C13.5937 2.0975 13.3972 1.85678 13.1445 1.68736C12.8919 1.51795 12.5945 1.42749 12.2903 1.42749C11.9861 1.42749 11.6888 1.51795 11.4361 1.68736C11.1835 1.85678 10.9869 2.0975 10.8714 2.37892L8.73767 7.54267L3.20361 7.98986C2.90096 8.01546 2.6126 8.1298 2.37465 8.31855C2.13669 8.50731 1.95974 8.76209 1.86595 9.05097C1.77215 9.33986 1.7657 9.65 1.84739 9.94253C1.92908 10.2351 2.09528 10.497 2.32517 10.6955L6.54392 14.3358L5.25861 19.7789C5.18672 20.0746 5.20432 20.385 5.30918 20.6707C5.41403 20.9564 5.6014 21.2045 5.84751 21.3835C6.09362 21.5625 6.38736 21.6644 6.69146 21.6761C6.99556 21.6879 7.29629 21.609 7.55548 21.4495L12.2899 18.5358L17.027 21.4495C17.2863 21.6071 17.5864 21.6845 17.8896 21.6718C18.1928 21.6592 18.4854 21.5572 18.7307 21.3785C18.9759 21.1999 19.1629 20.9527 19.2679 20.6681C19.373 20.3834 19.3915 20.0741 19.3211 19.7789L18.0311 14.3349L22.2499 10.6945C22.4816 10.4964 22.6493 10.2339 22.7318 9.94033C22.8142 9.64676 22.8077 9.33533 22.713 9.04549ZM21.2749 9.5583L16.7092 13.4958C16.6051 13.5855 16.5277 13.7022 16.4853 13.833C16.443 13.9637 16.4374 14.1036 16.4692 14.2374L17.8642 20.1249C17.8678 20.133 17.8682 20.1422 17.8652 20.1505C17.8623 20.1589 17.8562 20.1658 17.8483 20.1699C17.8314 20.183 17.8267 20.1802 17.8127 20.1699L12.6827 17.0152C12.5645 16.9425 12.4285 16.9041 12.2899 16.9041C12.1512 16.9041 12.0152 16.9425 11.897 17.0152L6.76705 20.1717C6.75298 20.1802 6.74923 20.183 6.73142 20.1717C6.72351 20.1677 6.71744 20.1608 6.71448 20.1524C6.71151 20.144 6.71187 20.1349 6.71548 20.1267L8.11048 14.2392C8.14228 14.1055 8.13671 13.9656 8.09438 13.8348C8.05205 13.704 7.9746 13.5874 7.87048 13.4977L3.30486 9.56017C3.29361 9.5508 3.2833 9.54236 3.29267 9.5133C3.30205 9.48424 3.30955 9.48799 3.32361 9.48611L9.31611 9.00236C9.45355 8.99057 9.58509 8.9411 9.69624 8.85939C9.80739 8.77769 9.89385 8.6669 9.94611 8.53924L12.2542 2.9508C12.2617 2.93486 12.2645 2.92736 12.287 2.92736C12.3095 2.92736 12.3124 2.93486 12.3199 2.9508L14.6336 8.53924C14.6864 8.66695 14.7734 8.77761 14.885 8.85901C14.9967 8.9404 15.1287 8.98936 15.2664 9.00049L21.2589 9.48424C21.273 9.48424 21.2814 9.48424 21.2899 9.51142C21.2983 9.53861 21.2899 9.54892 21.2749 9.5583Z" fill="#F8F9FA"/>
</svg>
