<svg width="25" height="25" viewBox="0 0 25 25" fill="none" xmlns="http://www.w3.org/2000/svg">
<path d="M19.8285 10.8765L23.2876 8.28691L22.029 6.60918L18.9534 8.90801C18.1917 7.56201 17.1706 6.45493 15.9788 5.6891C16.5945 4.6052 18.2081 2.42102 21.1936 2.42102V0.324219C17.0042 0.324219 14.8403 3.39981 14.0718 4.81138C13.4534 4.62982 12.8063 4.53154 12.1388 4.53154C11.4536 4.53154 10.7928 4.63665 10.1567 4.82913C9.39495 3.42444 7.23125 0.328336 3.02824 0.328336V2.42514C6.04104 2.42514 7.6517 4.64755 8.25942 5.72052C7.1059 6.47131 6.11757 7.54841 5.36541 8.84797L2.37718 6.61194L1.11854 8.28966L4.4808 10.8055C4.20096 11.6274 4.00846 12.501 3.91428 13.4129H0.227051V15.5097H3.88283C3.94972 16.5267 4.13811 17.4987 4.4316 18.4106L1.12532 20.8841L2.38396 22.5618L5.28482 20.3913C6.77688 23.082 9.29671 24.8579 12.1487 24.8579C15.0209 24.8579 17.5585 23.0587 19.0465 20.3284L22.0347 22.5645L23.2934 20.8867L19.8902 18.3394C20.17 17.4521 20.3475 16.5006 20.4144 15.5123H24.2271V13.4155L20.3693 13.4169C20.2751 12.5255 20.0935 11.6763 19.8287 10.8764L19.8285 10.8765ZM17.0395 9.75715C15.8683 10.8684 14.0582 11.54 12.1428 11.54C10.2274 11.54 8.41749 10.8684 7.24607 9.75715C8.38184 7.85283 10.1537 6.62561 12.1428 6.62561C14.1318 6.62697 15.9066 7.85692 17.0395 9.75715ZM5.94675 14.692C5.94675 13.6613 6.09691 12.6757 6.36992 11.7666C7.64904 12.7631 9.29808 13.406 11.0947 13.5835V22.6382C8.17747 21.9884 5.94707 18.6725 5.94707 14.692L5.94675 14.692ZM13.1912 22.6396V13.5849C14.9836 13.406 16.634 12.7631 17.916 11.7679C18.189 12.6771 18.3392 13.6627 18.3392 14.6933C18.3392 18.6727 16.11 21.9885 13.1915 22.6395L13.1912 22.6396Z" fill="black"/>
</svg>
