<?xml version="1.0" encoding="UTF-8" standalone="no"?>
<svg
   version="1.1"
   viewBox="-5.0 -10.0 110.0 135.0"
   id="svg2"
   sodipodi:docname="icon-crown.svg"
   inkscape:version="1.4 (e7c3feb1, 2024-10-09)"
   xmlns:inkscape="http://www.inkscape.org/namespaces/inkscape"
   xmlns:sodipodi="http://sodipodi.sourceforge.net/DTD/sodipodi-0.dtd"
   xmlns="http://www.w3.org/2000/svg"
   xmlns:svg="http://www.w3.org/2000/svg">
  <defs
     id="defs2" />
  <sodipodi:namedview
     id="namedview2"
     pagecolor="#ffffff"
     bordercolor="#000000"
     borderopacity="0.25"
     inkscape:showpageshadow="2"
     inkscape:pageopacity="0.0"
     inkscape:pagecheckerboard="0"
     inkscape:deskcolor="#d1d1d1"
     inkscape:zoom="3.6656077"
     inkscape:cx="36.010401"
     inkscape:cy="115.53337"
     inkscape:window-width="1728"
     inkscape:window-height="1080"
     inkscape:window-x="0"
     inkscape:window-y="37"
     inkscape:window-maximized="0"
     inkscape:current-layer="svg2" />
  <path
     d="M 17.922,78.184 H 82.07 c 2.2305,0 4.0469,1.8281 4.0469,4.0469 v 8.125 c 0,2.2305 -1.8281,4.0469 -4.0469,4.0469 L 17.922,94.3989 c -2.2266,0 -4.0469,-1.8281 -4.0469,-4.0469 v -8.125 c 0.0039,-2.2305 1.8203,-4.043 4.0469,-4.043 z m 32.074,-7.6641 h 28.527 l 9.2461,-27.531 -17.742,9.7891 c -1.125,0.61719 -2.5312,0.23828 -3.1953,-0.84375 l -0.0039,0.0039 -16.832,-27.363 -16.836,27.359 c -0.69141,1.1211 -2.1211,1.4805 -3.3086,0.78125 l -17.629,-9.7266 9.2461,27.531 z m 30.246,4.8008 H 19.754 v -0.0078 c -1,0 -1.9336,-0.63281 -2.2695,-1.6328 L 5.7695,38.8011 C 4.96091,36.5863 7.2734,34.7855 9.1523,35.8206 l 21.121,11.652 17.668,-28.703 c 0.94141,-1.5547 3.168,-1.5508 4.1055,-0.02734 l 17.684,28.73 21.121,-11.652 0.0039,0.0039 c 1.8945,-1.0391 4.1133,0.79297 3.4219,2.8555 l -11.703,34.812 c -0.25781,1.0508 -1.2031,1.8281 -2.332,1.8281 z m 1.0742,7.6602 h -62.641 v 6.6172 h 62.641 z"
     fill-rule="evenodd"
     id="path1" />
  <path
     style="fill:#ffcc00;stroke-width:0.272806"
     d="m 26.453169,80.001642 c -0.173785,-0.46014 -8.857178,-26.512175 -8.857178,-26.573426 0,-0.02649 3.985041,2.151108 8.855647,4.839111 9.573586,5.283495 10.123415,5.487835 11.363003,4.223005 0.358058,-0.36535 4.333896,-6.682176 8.835196,-14.037392 4.5013,-7.355216 8.245563,-13.377988 8.320585,-13.383937 0.07502,-0.0059 3.880666,6.080018 8.456988,13.524371 4.576322,7.444354 8.613358,13.766047 8.971189,14.04821 0.357832,0.282161 1.02015,0.51302 1.471822,0.51302 0.55214,0 3.674498,-1.573275 9.529386,-4.801609 4.789495,-2.640885 8.763464,-4.746314 8.831046,-4.678733 0.06758,0.06758 -1.877997,6.064642 -4.323504,13.326798 l -4.446385,13.203923 -28.439263,0.06947 c -22.60789,0.05522 -28.46577,-7.15e-4 -28.568532,-0.272806 z"
     id="path2"
     transform="translate(-5,-10)" />
  <path
     style="fill:#ffcc00;stroke-width:0.272806"
     d="m 22.279232,66.975149 c -2.401496,-7.202773 -4.321721,-13.095951 -4.267167,-13.095951 0.05455,0 3.389921,1.799637 7.411926,3.999194 8.723046,4.770465 9.930959,5.331668 11.239891,5.222115 1.176889,-0.09851 1.134374,-0.03867 8.490127,-11.94937 8.887549,-14.391043 9.620304,-15.549946 9.831944,-15.549946 0.114873,0 3.004596,4.511531 6.421606,10.025623 7.103063,11.462347 10.679133,17.030295 11.12331,17.319009 0.624726,0.406069 2.137982,0.189625 3.52289,-0.503891 0.78274,-0.39197 4.591623,-2.430697 8.464182,-4.530505 3.872561,-2.099808 7.122483,-3.73637 7.222046,-3.636804 0.09957,0.09956 -1.728242,5.913246 -4.061798,12.919292 l -4.242827,12.738262 -28.394886,0.06946 -28.394887,0.06946 z"
     id="path3"
     transform="translate(-5,-10)" />
  <path
     style="fill:#ffcc00;stroke-width:0.272806"
     d="m 22.279232,66.975149 c -2.401496,-7.202773 -4.311244,-13.095951 -4.243885,-13.095951 0.06736,0 3.464108,1.824295 7.54833,4.05399 9.916331,5.413613 10.838775,5.789491 11.977048,4.880408 0.638479,-0.509921 2.425841,-3.293007 10.161736,-15.822751 3.867599,-6.26431 7.129874,-11.389654 7.249502,-11.389654 0.119626,0 2.522996,3.713573 5.340826,8.252384 7.701053,12.404455 11.00375,17.59589 11.784395,18.523634 1.198268,1.424063 1.979066,1.157253 11.2696,-3.850958 4.511604,-2.432053 8.281963,-4.342869 8.378575,-4.246257 0.09661,0.09661 -1.733614,5.907875 -4.06717,12.913921 l -4.242827,12.738262 -28.394886,0.06946 -28.394887,0.06946 z"
     id="path4"
     transform="translate(-5,-10)" />
  <path
     style="fill:#28220b;stroke-width:0.272806"
     d="M 23.997462,84.992315 C 23.692167,84.868565 23.287094,84.580209 23.0973,84.351523 22.623204,83.78027 10.77584,48.546533 10.77584,47.707834 c 0,-0.915664 1.150785,-2.014338 2.101846,-2.006668 0.47516,0.0038 4.824416,2.255136 11.538457,5.972644 7.998545,4.42873 10.853014,5.886104 11.075274,5.654576 0.16469,-0.171554 4.137843,-6.572818 8.829235,-14.225028 4.691388,-7.65221 8.780683,-14.187215 9.08732,-14.522234 0.75483,-0.824691 1.450698,-1.003791 2.389396,-0.61497 0.636353,0.263586 2.515018,3.135894 9.829085,15.027784 4.973301,8.086052 9.121757,14.657254 9.218791,14.602671 10.010103,-5.630942 21.748332,-11.901593 22.278964,-11.901593 0.93498,0 2.040663,1.138476 2.041307,2.101847 2.81e-4,0.419439 -2.654889,8.680813 -5.900375,18.358608 -5.019637,14.968184 -6.018517,17.70803 -6.688561,18.346208 L 85.7889,85.251895 55.170722,85.234602 c -16.839997,-0.0095 -30.867964,-0.11854 -31.17326,-0.242287 z M 88.280384,66.837486 c 2.532131,-7.502167 4.574581,-13.725319 4.538778,-13.829228 -0.03581,-0.103908 -4.175515,2.07513 -9.199356,4.842309 -5.653453,3.113972 -9.421952,5.031231 -9.88922,5.031231 -0.41523,0 -0.971585,-0.216622 -1.236346,-0.481383 -0.264759,-0.264758 -4.271805,-6.64842 -8.904543,-14.185914 -4.632741,-7.537493 -8.49798,-13.703892 -8.589422,-13.703109 -0.09144,7.84e-4 -4.018449,6.265852 -8.726689,13.922373 -4.708237,7.656521 -8.782027,14.039541 -9.052866,14.184489 -0.270839,0.14495 -0.776722,0.261656 -1.124183,0.259348 -0.347462,-0.0023 -4.73697,-2.270521 -9.754462,-5.040468 -5.017492,-2.76995 -9.160298,-4.998687 -9.206235,-4.95275 -0.06767,0.06767 7.093622,21.612768 8.786703,26.435226 l 0.455381,1.297078 28.649294,-0.06945 28.649293,-0.06945 z"
     id="path5"
     transform="translate(-5,-10)" />
  <path
     style="fill:#ffcc00;stroke-width:0.272806"
     d="m 22.279232,66.975149 c -2.401496,-7.202773 -4.313686,-13.095951 -4.249311,-13.095951 0.06437,0 2.847309,1.489915 6.184299,3.310923 10.585668,5.77664 12.256269,6.479915 13.358332,5.623475 0.563217,-0.43769 2.431639,-3.359022 10.556101,-16.504766 3.639702,-5.889201 6.718376,-10.707639 6.841499,-10.707639 0.123123,0 2.475352,3.623191 5.22718,8.051535 7.624695,12.269957 11.410255,18.211413 12.034406,18.888064 0.681409,0.738729 1.709822,0.786358 3.121681,0.144577 0.567753,-0.258081 4.447773,-2.295299 8.622265,-4.527151 4.174492,-2.231853 7.669937,-3.97796 7.767659,-3.880239 0.09772,0.09772 -1.731598,5.909892 -4.065154,12.915938 l -4.242827,12.738262 -28.394886,0.06946 -28.394887,0.06946 z"
     id="path7"
     transform="translate(-5,-10)" />
  <path
     style="fill:#ffcc00;stroke-width:0.272806"
     d="M 22.279232,66.975149 C 19.877736,59.772376 17.9743,53.879198 18.049374,53.879198 c 0.07507,0 3.097816,1.612408 6.717204,3.583129 8.063641,4.390573 10.72907,5.692277 11.655763,5.692277 1.274563,0 1.259892,0.02134 12.796863,-18.619014 3.041343,-4.913919 5.629986,-8.934399 5.752539,-8.934399 0.122555,0 3.263589,4.879819 6.980081,10.844042 10.109388,16.223536 10.452949,16.709371 11.816128,16.709371 0.6481,0 4.187688,-1.748096 11.574919,-5.716506 3.42072,-1.837606 6.300188,-3.260404 6.398819,-3.161774 0.09863,0.09863 -1.729945,5.911545 -4.063501,12.917591 l -4.242827,12.738262 -28.394886,0.06946 -28.394887,0.06946 z"
     id="path8"
     transform="translate(-5,-10)" />
  <path
     style="fill:#ffcc00;stroke-width:0.272806"
     d="m 23.870531,96.300541 v -3.13727 h 31.099891 31.099892 v 3.13727 3.13727 H 54.970422 23.870531 Z"
     id="path9"
     transform="translate(-5,-10)" />
</svg>
