<svg width="16" height="16" viewBox="0 0 16 16" fill="none" xmlns="http://www.w3.org/2000/svg">
<path d="M5.99445 15C5.75003 15 5.55799 14.9365 5.41833 14.8094C5.27867 14.6823 5.21077 14.5048 5.21465 14.2768L5.32522 7.98146C5.32522 7.88429 5.30388 7.8002 5.26121 7.72919C5.21853 7.65445 5.15064 7.59839 5.05753 7.56102C4.80148 7.45264 4.59199 7.33491 4.42904 7.20785C4.26998 7.07704 4.15553 6.91074 4.0857 6.70893C4.01587 6.50712 3.98871 6.24177 4.00423 5.91289L4.16135 2.47089C4.16911 2.34756 4.20791 2.25226 4.27774 2.18499C4.34757 2.11772 4.44262 2.08409 4.56289 2.08409C4.67928 2.08409 4.76851 2.11959 4.83058 2.1906C4.89653 2.25787 4.92951 2.35504 4.92951 2.4821L4.88877 5.82881C4.88877 6.04183 4.9974 6.14834 5.21465 6.14834C5.31164 6.14834 5.39117 6.12218 5.45325 6.06986C5.5192 6.0138 5.55218 5.93905 5.55218 5.84562L5.61037 2.3812C5.61037 2.26161 5.64529 2.16818 5.71512 2.10091C5.78495 2.03364 5.87806 2 5.99445 2C6.11471 2 6.20782 2.03364 6.27377 2.10091C6.34361 2.16818 6.38046 2.26161 6.38434 2.3812L6.44253 5.84562C6.44253 5.93905 6.47357 6.0138 6.53564 6.06986C6.59772 6.12218 6.67919 6.14834 6.78006 6.14834C6.87316 6.14834 6.94882 6.12031 7.00701 6.06425C7.06908 6.00819 7.10012 5.92971 7.10012 5.82881L7.05938 2.4821C7.05938 2.35504 7.09236 2.25787 7.15831 2.1906C7.22427 2.11959 7.31349 2.08409 7.426 2.08409C7.68205 2.08409 7.8159 2.21302 7.82754 2.47089L7.99048 5.91289C8.00212 6.24177 7.97302 6.50712 7.90319 6.70893C7.83336 6.91074 7.71697 7.07704 7.55403 7.20785C7.39497 7.33491 7.18741 7.45264 6.93136 7.56102C6.84213 7.59839 6.77424 7.65445 6.72768 7.72919C6.68501 7.8002 6.66367 7.88429 6.66367 7.98146L6.78006 14.2768C6.78006 14.5048 6.71022 14.6823 6.57056 14.8094C6.4309 14.9365 6.23886 15 5.99445 15ZM10.551 10.1117C10.5549 10.0108 10.5316 9.92109 10.4812 9.8426C10.4346 9.76039 10.3609 9.68377 10.26 9.61276L9.91086 9.38853C9.76731 9.2951 9.65869 9.17738 9.58498 9.03536C9.51126 8.89334 9.47441 8.72517 9.47441 8.53083V8.25615C9.47441 7.69556 9.51126 7.13497 9.58498 6.57439C9.65869 6.0138 9.76344 5.47377 9.89922 4.95429C10.0389 4.43108 10.2038 3.95084 10.3939 3.51358C10.584 3.07259 10.7954 2.69326 11.0282 2.37559C11.1252 2.24479 11.2144 2.14949 11.2959 2.08969C11.3773 2.0299 11.4724 2 11.581 2C11.6896 2 11.7866 2.0355 11.872 2.10651C11.9573 2.17378 12 2.27842 12 2.42044V14.3105C12 14.5347 11.9282 14.7048 11.7847 14.8206C11.6411 14.9402 11.4472 15 11.2028 15C10.9622 15 10.7702 14.9346 10.6266 14.8038C10.4831 14.6767 10.4152 14.4917 10.423 14.2488L10.551 10.1117Z" fill="white"/>
</svg>
