<?xml version="1.0" encoding="UTF-8"?>
<svg id="Calque_1" data-name="Calque 1" xmlns="http://www.w3.org/2000/svg" viewBox="0 0 16 16">
  <path d="m11.33,5.33v8c0,.36-.14.7-.39.95s-.59.39-.94.39h-5.33c-.36,0-.7-.14-.95-.39s-.39-.59-.39-.95V5.33m5.34,6.67v-4m-2.67,4v-4m5.33-.67h.67c.53,0,1.04.21,1.41.59.38.37.59.88.59,1.41s-.21,1.04-.59,1.42-.88.58-1.41.58h-.67" style="fill: none; stroke: #f8f9fa; stroke-linecap: round; stroke-linejoin: round; stroke-width: .8px;"/>
  <path d="m12.67,3.67c0,.44-.18.86-.49,1.18-.31.31-.74.48-1.18.48-.52,0-1-.33-1.67-.33s-.96.33-2,.33-1.33-.33-2-.33-1.14.33-1.66.33c-.45,0-.87-.17-1.18-.48-.31-.32-.49-.74-.49-1.18s.18-.87.49-1.18.73-.49,1.18-.49c.52,0,1.04.33,1.66.33s.96-1,2-1,1.34,1,2,1,1.15-.33,1.67-.33c.44,0,.87.18,1.18.49s.49.73.49,1.18Z" style="fill: #f8f9fa; stroke: #f8f9fa; stroke-linecap: round; stroke-linejoin: round; stroke-width: .8px;"/>
</svg>