<?xml version="1.0" encoding="UTF-8"?>
<svg id="Calque_1" data-name="Calque 1" xmlns="http://www.w3.org/2000/svg" viewBox="0 0 16 16">
  <path d="m6,14.27v.8h4v-.8h-4Zm1.6-12.27v12.67h.8V2h-.8Zm-3.72,3.48l-.32-.26-.13.15.33.27h.01l.29.23.12-.15-.3-.24Zm1.1,1.63l-.52-1.07-.13.19-.33-.23-.03-.02s.06-.07.09-.11l-.29-.23h-.01l-.33-.27c-.13.16-.25.31-.33.45-.09.14-.17.31-.17.51h.8s0,.01.01.02c0,.01.01.04.04.08.05.08.13.19.28.36l.12.16c.32.39.43.52.53.57h.02s.36-.18.36-.18l-.11-.23Zm-1.2-.68s-.04-.07-.04-.08t-.01-.02h-.8c0,.21.08.37.17.52.08.13.2.28.33.45l.54-.44.09-.07c-.15-.17-.23-.28-.28-.36Zm.28.36l-.09.07-.54.44.13.15.5-.41.12-.09-.12-.16Zm.65.73c-.1-.05-.21-.18-.53-.57l-.12.09-.5.41c.29.36.51.65.83.8l.16-.34.18-.37v-.03h-.02Zm.27-.41l.11.23-.36.17v.03l-.18.37-.16.34c.31.16.67.15,1.13.15v-.8h1.98v-.49h-2.52Zm3.02.62v-.4h-.4v.18h-.1v.09h-1.98v.8h2.48v-.4h.4v-.27h-.4Zm-.4-3.06v3.33h.8v-3.33h-.8Zm-2.08-.4v.8c-.53,0-.67.01-.79.06l-.16-.34v.4l.04.03s-.03.02-.04.04v.33h2.53v1.52h.4v.4h.1v-2.44h.4v-.8h-2.48Zm-1.13.14l.18.38.16.34c.12-.05.26-.06.79-.06v-.8c-.46,0-.82-.01-1.13.14Zm.18,1.18v-.33s.03-.03.04-.04c.04-.04.08-.07.12-.09l-.16-.34-.18-.38c-.32.15-.54.44-.83.81l.32.26.3.24-.12.15s-.07.08-.09.11l.03.02.33.23.13-.19.32-.45h-.21Zm7.87,2.29l-.62.5.12.16.63-.5-.13-.16Zm.46.61c-.08-.14-.2-.29-.33-.45l-.63.5c.15.18.23.28.28.37.03.04.04.06.04.07.01.01.01.02.01.02h.8c0-.2-.08-.37-.17-.51Zm-.63.51s0,.01-.01.02c0,.01-.01.03-.04.07-.05.09-.13.19-.28.37l.63.5c.13-.16.25-.31.33-.45.09-.14.17-.31.17-.51h-.8Zm-.33.46l-.12.16.62.5.13-.16-.63-.5Zm-.12.16c-.34.42-.44.53-.55.58l.34.72c.32-.15.54-.44.83-.8l-.62-.5Zm-.55.58c-.12.06-.26.07-.79.07v.8c.46,0,.82.01,1.13-.15l-.34-.72Zm-3.27.07v.8h2.48v-.8h-2.48Zm-.4-2.94v3.34h.8v-3.34h-.8Zm.4-.4v.8h2.48v-.8h-2.48Zm2.48,0v.8c.53,0,.67.01.79.07l.34-.72c-.31-.16-.67-.15-1.13-.15Zm1.13.15l-.34.72c.11.05.21.16.55.58l.62-.5c-.29-.36-.51-.65-.83-.8Zm.83-5.2l-.62.5.12.16.63-.5-.13-.16Zm.46.61c-.08-.14-.2-.29-.33-.45l-.63.5c.15.18.23.28.28.37.03.04.04.06.04.07.01.01.01.02.01.02h.8c0-.2-.08-.37-.17-.51Zm-.63.51s0,.01-.01.02c0,.01-.01.03-.04.07-.05.09-.13.19-.28.37l.63.5c.13-.16.25-.31.33-.45.09-.14.17-.31.17-.51h-.8Zm-.33.46l-.12.16.62.5.13-.16-.63-.5Zm-.12.16c-.34.42-.44.53-.55.58l.34.72c.32-.15.54-.44.83-.8l-.62-.5Zm-.55.58c-.12.06-.26.07-.79.07v.8c.46,0,.82.01,1.13-.15l-.34-.72Zm-3.27.07v.8h2.48v-.8h-2.48Zm-.4-1.83v2.23h.8v-2.23h-.8Zm.27-1.22c-.16.17-.22.37-.25.56,0,.04-.01.09,0,.14-.01.03-.01.05-.01.08-.01.13-.01.28-.01.44h.8c0-.27,0-.43.02-.55,0-.06.01-.09.02-.1h0v-.02l-.57-.55Zm.56-.26c-.19.02-.4.09-.56.26l.57.55h.01s.04-.01.09-.02c.11-.02.27-.02.53-.02v-.8c-.24,0-.46,0-.64.03Zm.64-.03v.8h1.41v-.8h-1.41Zm1.41,0v.8c.53,0,.67.01.79.07l.34-.72c-.31-.16-.67-.15-1.13-.15Zm1.13.15l-.34.72c.11.05.21.16.55.58l.62-.5c-.29-.36-.51-.65-.83-.8Zm-7,4.14l-.04-.03-.32-.23-.37.52-.11.16h-.01l-.09.13.3.21.03.02.33.23.13-.19.32-.45.12-.17-.29-.2Zm.37,1.89l-.52-1.07-.1-.21-.36.17-.08.04-.28.13.08.16.25.53.09.18.31.64.34-.16h.02s.36-.18.36-.18l-.11-.23Zm-.25,0v.8h2.77v-.8h-2.77Zm2.37-1.92v2.32h.8v-2.32h-.8Zm-2.53-.4v.8h2.93v-.8h-2.93Zm5.43,9.48v.8c.22,0,.4-.18.4-.4s-.18-.4-.4-.4Zm-4.4.4c0,.22.18.4.4.4v-.8c-.22,0-.4.18-.4.4ZM8,1.6c-.19,0-.35.14-.38.32-.02.03-.02.05-.02.08h.8c0-.22-.18-.4-.4-.4Zm-.4,13.07c0,.22.18.4.4.4s.4-.18.4-.4h-.8Zm.4-6.67v.4c.22,0,.4-.18.4-.4h-.4Zm-.4,2.67c0,.22.18.4.4.4v-.4h-.4Zm.3-3.72c-.17.04-.3.19-.3.38h.4v-.4s-.07,0-.1.02Zm-3.93-.97l-.3-.21-.13.19.1.21.28-.13.08-.04-.03-.02Zm.74,1.54l-.34.16.11.23h.25v-.4h-.02Zm2.79-.01v.4h.4v-.4h-.4Zm0-2.72v.8h-.4v1.52h.4v.4h.1v-2.32h.3v-.4h-.4Zm-3.14,0l-.11.17.32.23v-.4h-.21Z" style="fill: #f8f9fa; stroke-width: 0px;"/>
  <polygon points="7.1 5.59 7.1 7.11 4.98 7.11 4.46 6.04 4.78 5.59 7.1 5.59" style="fill: #f8f9fa; stroke-width: 0px;"/>
</svg>