<svg width="17" height="16" viewBox="0 0 17 16" fill="none" xmlns="http://www.w3.org/2000/svg">
<path d="M15.5001 6C15.5001 6.13261 15.4475 6.25979 15.3537 6.35355C15.2599 6.44732 15.1327 6.5 15.0001 6.5H14.0001V7.5C14.0001 7.63261 13.9475 7.75979 13.8537 7.85355C13.7599 7.94732 13.6327 8 13.5001 8C13.3675 8 13.2403 7.94732 13.1466 7.85355C13.0528 7.75979 13.0001 7.63261 13.0001 7.5V6.5H12.0001C11.8675 6.5 11.7403 6.44732 11.6466 6.35355C11.5528 6.25979 11.5001 6.13261 11.5001 6C11.5001 5.86739 11.5528 5.74021 11.6466 5.64645C11.7403 5.55268 11.8675 5.5 12.0001 5.5H13.0001V4.5C13.0001 4.36739 13.0528 4.24021 13.1466 4.14645C13.2403 4.05268 13.3675 4 13.5001 4C13.6327 4 13.7599 4.05268 13.8537 4.14645C13.9475 4.24021 14.0001 4.36739 14.0001 4.5V5.5H15.0001C15.1327 5.5 15.2599 5.55268 15.3537 5.64645C15.4475 5.74021 15.5001 5.86739 15.5001 6ZM9.50013 3.5H10.0001V4C10.0001 4.13261 10.0528 4.25979 10.1466 4.35355C10.2403 4.44732 10.3675 4.5 10.5001 4.5C10.6327 4.5 10.7599 4.44732 10.8537 4.35355C10.9475 4.25979 11.0001 4.13261 11.0001 4V3.5H11.5001C11.6327 3.5 11.7599 3.44732 11.8537 3.35355C11.9475 3.25979 12.0001 3.13261 12.0001 3C12.0001 2.86739 11.9475 2.74021 11.8537 2.64645C11.7599 2.55268 11.6327 2.5 11.5001 2.5H11.0001V2C11.0001 1.86739 10.9475 1.74021 10.8537 1.64645C10.7599 1.55268 10.6327 1.5 10.5001 1.5C10.3675 1.5 10.2403 1.55268 10.1466 1.64645C10.0528 1.74021 10.0001 1.86739 10.0001 2V2.5H9.50013C9.36752 2.5 9.24034 2.55268 9.14657 2.64645C9.05281 2.74021 9.00013 2.86739 9.00013 3C9.00013 3.13261 9.05281 3.25979 9.14657 3.35355C9.24034 3.44732 9.36752 3.5 9.50013 3.5ZM14.0483 9.5625C14.1065 9.63026 14.1454 9.71238 14.1612 9.80031C14.1769 9.88824 14.1688 9.97877 14.1376 10.0625C13.7907 11.0087 13.211 11.8522 12.4521 12.5153C11.6931 13.1784 10.7794 13.6396 9.7952 13.8564C8.811 14.0732 7.78805 14.0386 6.82075 13.7558C5.85345 13.473 4.97296 12.9512 4.26055 12.2383C3.54813 11.5255 3.02675 10.6447 2.7445 9.67728C2.46226 8.70982 2.42825 7.68685 2.64562 6.70277C2.86299 5.7187 3.32473 4.80524 3.98823 4.04668C4.65174 3.28812 5.49562 2.70891 6.442 2.3625C6.5253 2.33199 6.61522 2.3242 6.70252 2.33991C6.78983 2.35562 6.87138 2.39428 6.93882 2.45192C7.00625 2.50956 7.05714 2.5841 7.08625 2.66789C7.11537 2.75169 7.12167 2.84172 7.1045 2.92875C6.92929 3.81561 6.97519 4.73196 7.23817 5.59687C7.50114 6.46177 7.97309 7.24859 8.61231 7.88781C9.25154 8.52704 10.0384 8.99899 10.9033 9.26196C11.7682 9.52494 12.6845 9.57084 13.5714 9.39563C13.6585 9.37859 13.7486 9.38507 13.8324 9.4144C13.9163 9.44373 13.9907 9.49485 14.0483 9.5625ZM12.8364 10.4925C12.7245 10.4981 12.612 10.5013 12.5001 10.5013C10.7766 10.4994 9.12413 9.81385 7.9055 8.59499C6.68688 7.37613 6.00162 5.72357 6.00013 4C6.00013 3.88812 6.00013 3.77562 6.00888 3.66375C5.34362 4.04657 4.77542 4.57741 4.34831 5.21514C3.92121 5.85287 3.64665 6.58037 3.54592 7.34127C3.44519 8.10218 3.52099 8.87606 3.76745 9.60295C4.01391 10.3299 4.42441 10.9903 4.96714 11.533C5.50988 12.0757 6.17028 12.4862 6.89717 12.7327C7.62407 12.9791 8.39795 13.0549 9.15886 12.9542C9.91976 12.8535 10.6473 12.5789 11.285 12.1518C11.9227 11.7247 12.4536 11.1565 12.8364 10.4913V10.4925Z" fill="#F8F9FA"/>
</svg>
