<svg width="25" height="24" viewBox="0 0 25 24" fill="none" xmlns="http://www.w3.org/2000/svg">
<path d="M15.0621 20.4226C19.0359 20.1592 22.2013 16.9578 22.4618 12.9387C22.5127 12.1522 22.5127 11.3377 22.4618 10.5512C22.2013 6.53215 19.0359 3.33075 15.0621 3.06733C13.7063 2.97746 12.2909 2.97765 10.9379 3.06733C6.96407 3.33075 3.79869 6.53215 3.53823 10.5512C3.48726 11.3377 3.48726 12.1522 3.53823 12.9387C3.63309 14.4025 4.28226 15.7578 5.04651 16.9022C5.49026 17.7034 5.1974 18.7034 4.7352 19.5769C4.40194 20.2067 4.23531 20.5216 4.3691 20.749C4.50289 20.9765 4.80174 20.9838 5.39946 20.9983C6.58148 21.027 7.37854 20.6928 8.01124 20.2275C8.37008 19.9637 8.5495 19.8317 8.67317 19.8165C8.79682 19.8014 9.04018 19.9013 9.52681 20.1012C9.96418 20.2808 10.472 20.3917 10.9379 20.4226C12.2909 20.5123 13.7063 20.5125 15.0621 20.4226Z" stroke="#F8F9FA" stroke-width="1.5" stroke-linejoin="round"/>
</svg>
