<svg width="24" height="24" viewBox="0 0 24 24" fill="none" xmlns="http://www.w3.org/2000/svg">
<path d="M15.7501 5.25001C15.7501 5.0511 15.8292 4.86033 15.9698 4.71968C16.1105 4.57903 16.3012 4.50001 16.5001 4.50001H18.0001V3.00001C18.0001 2.8011 18.0792 2.61033 18.2198 2.46968C18.3605 2.32903 18.5512 2.25001 18.7501 2.25001C18.9491 2.25001 19.1398 2.32903 19.2805 2.46968C19.4211 2.61033 19.5001 2.8011 19.5001 3.00001V4.50001H21.0001C21.1991 4.50001 21.3898 4.57903 21.5305 4.71968C21.6711 4.86033 21.7501 5.0511 21.7501 5.25001C21.7501 5.44892 21.6711 5.63969 21.5305 5.78034C21.3898 5.92099 21.1991 6.00001 21.0001 6.00001H19.5001V7.50001C19.5001 7.69892 19.4211 7.88969 19.2805 8.03034C19.1398 8.17099 18.9491 8.25001 18.7501 8.25001C18.5512 8.25001 18.3605 8.17099 18.2198 8.03034C18.0792 7.88969 18.0001 7.69892 18.0001 7.50001V6.00001H16.5001C16.3012 6.00001 16.1105 5.92099 15.9698 5.78034C15.8292 5.63969 15.7501 5.44892 15.7501 5.25001ZM21.6151 10.3763C21.9578 12.413 21.6443 14.506 20.7199 16.353C19.7954 18.2 18.308 19.7054 16.4722 20.6518C14.6364 21.5983 12.5474 21.9369 10.5067 21.6187C8.46592 21.3005 6.57911 20.342 5.11866 18.8815C3.65821 17.421 2.69968 15.5342 2.38147 13.4935C2.06326 11.4528 2.40184 9.36371 3.34832 7.52795C4.2948 5.69218 5.8002 4.20471 7.64718 3.2803C9.49415 2.35589 11.5871 2.04237 13.6239 2.38501C13.8186 2.41944 13.9918 2.52935 14.1059 2.69083C14.2199 2.85232 14.2656 3.05231 14.233 3.24731C14.2004 3.4423 14.0921 3.61653 13.9317 3.73209C13.7712 3.84766 13.5717 3.8952 13.3764 3.86439C12.1934 3.66538 10.9812 3.72655 9.82428 4.04364C8.66733 4.36073 7.59336 4.92613 6.67713 5.70048C5.76091 6.47483 5.02442 7.43954 4.51893 8.52746C4.01344 9.61538 3.7511 10.8004 3.75015 12C3.74837 14.0196 4.49063 15.969 5.83515 17.4759C6.67161 16.2638 7.84779 15.3261 9.21577 14.7806C8.48095 14.2019 7.94474 13.4085 7.68171 12.5109C7.41869 11.6132 7.44193 10.6559 7.7482 9.77208C8.05446 8.88826 8.62854 8.12184 9.39058 7.57941C10.1526 7.03697 11.0648 6.74549 12.0001 6.74549C12.9355 6.74549 13.8477 7.03697 14.6097 7.57941C15.3718 8.12184 15.9458 8.88826 16.2521 9.77208C16.5584 10.6559 16.5816 11.6132 16.3186 12.5109C16.0556 13.4085 15.5193 14.2019 14.7845 14.7806C16.1525 15.3261 17.3287 16.2638 18.1651 17.4759C19.5097 15.969 20.2519 14.0196 20.2501 12C20.2502 11.5389 20.2119 11.0786 20.1358 10.6238C20.1185 10.5262 20.1208 10.4262 20.1424 10.3295C20.164 10.2328 20.2046 10.1414 20.2617 10.0604C20.3189 9.97951 20.3915 9.91072 20.4754 9.85802C20.5593 9.80533 20.6528 9.76978 20.7506 9.75343C20.8483 9.73709 20.9483 9.74026 21.0447 9.76278C21.1412 9.78529 21.2323 9.8267 21.3127 9.88461C21.3931 9.94252 21.4612 10.0158 21.5131 10.1002C21.565 10.1846 21.5997 10.2784 21.6151 10.3763ZM12.0001 14.25C12.5935 14.25 13.1735 14.0741 13.6669 13.7444C14.1602 13.4148 14.5447 12.9462 14.7718 12.3981C14.9988 11.8499 15.0583 11.2467 14.9425 10.6647C14.8267 10.0828 14.541 9.54825 14.1215 9.12869C13.7019 8.70913 13.1674 8.42341 12.5854 8.30765C12.0035 8.1919 11.4003 8.25131 10.8521 8.47837C10.3039 8.70543 9.83538 9.08995 9.50574 9.5833C9.17609 10.0766 9.00015 10.6567 9.00015 11.25C9.00015 12.0457 9.31622 12.8087 9.87883 13.3713C10.4414 13.9339 11.2045 14.25 12.0001 14.25ZM12.0001 20.25C13.8314 20.2519 15.6107 19.6414 17.0551 18.5156C16.5126 17.6671 15.7651 16.9688 14.8817 16.4851C13.9983 16.0014 13.0073 15.7478 12.0001 15.7478C10.993 15.7478 10.002 16.0014 9.11857 16.4851C8.23515 16.9688 7.48771 17.6671 6.94515 18.5156C8.38955 19.6414 10.1689 20.2519 12.0001 20.25Z" fill="#F8F9FA"/>
</svg>
