<svg width="24" height="24" viewBox="0 0 24 24" fill="none" xmlns="http://www.w3.org/2000/svg">
<path d="M22.2257 2.01957C22.0371 1.83106 21.8016 1.69625 21.5436 1.62902C21.2855 1.56179 21.0142 1.56457 20.7576 1.63707H20.7435L2.74916 7.09707C2.45703 7.18126 2.19738 7.35223 2.00462 7.58732C1.81185 7.82242 1.69508 8.11054 1.66976 8.4135C1.64445 8.71647 1.71179 9.01997 1.86286 9.28379C2.01394 9.54762 2.24162 9.75931 2.51572 9.89082L10.477 13.7683L14.3488 21.7249C14.4693 21.9819 14.6607 22.199 14.9006 22.3507C15.1405 22.5024 15.4188 22.5822 15.7026 22.5808C15.7457 22.5808 15.7888 22.5789 15.832 22.5752C16.1347 22.5507 16.4227 22.4342 16.6573 22.2413C16.8919 22.0484 17.0619 21.7884 17.1445 21.4961L22.6007 3.50175C22.6007 3.49707 22.6007 3.49238 22.6007 3.48769C22.6742 3.23172 22.6781 2.96081 22.6122 2.7028C22.5463 2.44478 22.4129 2.20896 22.2257 2.01957ZM15.711 21.0668L15.7063 21.0799V21.0733L11.9507 13.3577L16.4507 8.85769C16.5854 8.71589 16.6594 8.52708 16.6569 8.33151C16.6544 8.13594 16.5756 7.94908 16.4373 7.81078C16.299 7.67248 16.1122 7.59368 15.9166 7.59117C15.721 7.58867 15.5322 7.66266 15.3904 7.79738L10.8904 12.2974L3.17197 8.54175H3.16541H3.17854L21.1645 3.08082L15.711 21.0668Z" fill="#F8F9FA"/>
</svg>
