<svg width="24" height="24" viewBox="0 0 24 24" fill="none" xmlns="http://www.w3.org/2000/svg">
<path d="M12.4048 7.63566C11.5148 7.63566 10.6448 7.89958 9.90476 8.39405C9.16474 8.88852 8.58797 9.59132 8.24737 10.4136C7.90678 11.2359 7.81766 12.1407 7.9913 13.0136C8.16493 13.8865 8.59351 14.6883 9.22285 15.3176C9.85218 15.947 10.654 16.3756 11.5269 16.5492C12.3998 16.7228 13.3046 16.6337 14.1269 16.2931C14.9492 15.9525 15.652 15.3758 16.1464 14.6357C16.6409 13.8957 16.9048 13.0257 16.9048 12.1357C16.9036 10.9426 16.4291 9.7987 15.5854 8.95505C14.7418 8.11141 13.5979 7.6369 12.4048 7.63566ZM12.4048 15.1357C11.8115 15.1357 11.2315 14.9597 10.7381 14.6301C10.2448 14.3004 9.86025 13.8319 9.63319 13.2837C9.40613 12.7355 9.34672 12.1323 9.46247 11.5504C9.57823 10.9684 9.86395 10.4339 10.2835 10.0143C10.7031 9.59479 11.2376 9.30906 11.8196 9.19331C12.4015 9.07755 13.0047 9.13696 13.5529 9.36402C14.1011 9.59109 14.5696 9.97561 14.8992 10.469C15.2289 10.9623 15.4048 11.5423 15.4048 12.1357C15.4048 12.9313 15.0888 13.6944 14.5261 14.257C13.9635 14.8196 13.2005 15.1357 12.4048 15.1357ZM20.6548 12.3382C20.6586 12.2032 20.6586 12.0682 20.6548 11.9332L22.0536 10.1857C22.1269 10.0939 22.1777 9.98622 22.2018 9.87125C22.2259 9.75629 22.2226 9.63727 22.1923 9.52379C21.963 8.66185 21.62 7.83427 21.1723 7.06285C21.1137 6.9619 21.0323 6.87602 20.9347 6.81206C20.837 6.7481 20.7258 6.70781 20.6098 6.69441L18.3861 6.44691C18.2936 6.34941 18.1998 6.25566 18.1048 6.16566L17.8423 3.93629C17.8288 3.82024 17.7884 3.70895 17.7243 3.61129C17.6601 3.51363 17.5741 3.4323 17.473 3.37379C16.7012 2.92693 15.8737 2.58426 15.012 2.35473C14.8985 2.32454 14.7794 2.32145 14.6644 2.34571C14.5495 2.36997 14.4418 2.42091 14.3501 2.49441L12.6073 3.88566C12.4723 3.88566 12.3373 3.88566 12.2023 3.88566L10.4548 2.48973C10.3631 2.41638 10.2554 2.36562 10.1404 2.34152C10.0255 2.31742 9.90644 2.32066 9.79295 2.35098C8.93116 2.58069 8.10363 2.92368 7.33202 3.37098C7.23106 3.42959 7.14519 3.51097 7.08123 3.60862C7.01726 3.70627 6.97698 3.81751 6.96358 3.93348L6.71608 6.16098C6.61858 6.2541 6.52483 6.34785 6.43483 6.44223L4.20545 6.69816C4.0894 6.71167 3.97811 6.75209 3.88045 6.81622C3.78279 6.88035 3.70146 6.96641 3.64295 7.06754C3.19609 7.83925 2.85342 8.66676 2.62389 9.52848C2.5937 9.64203 2.59061 9.76109 2.61488 9.87606C2.63914 9.99102 2.69008 10.0987 2.76358 10.1904L4.15483 11.9332C4.15483 12.0682 4.15483 12.2032 4.15483 12.3382L2.75889 14.0857C2.68555 14.1774 2.63478 14.2851 2.61068 14.4001C2.58658 14.515 2.58982 14.6341 2.62014 14.7475C2.84944 15.6095 3.19246 16.4371 3.64014 17.2085C3.69876 17.3094 3.78013 17.3953 3.87779 17.4593C3.97544 17.5232 4.08668 17.5635 4.20264 17.5769L6.42639 17.8244C6.51952 17.9219 6.61327 18.0157 6.70764 18.1057L6.96733 20.335C6.98083 20.4511 7.02126 20.5624 7.08539 20.66C7.14952 20.7577 7.23558 20.839 7.3367 20.8975C8.10842 21.3444 8.93593 21.6871 9.79764 21.9166C9.9112 21.9468 10.0303 21.9499 10.1452 21.9256C10.2602 21.9014 10.3678 21.8504 10.4595 21.7769L12.2023 20.3857C12.3373 20.3894 12.4723 20.3894 12.6073 20.3857L14.3548 21.7844C14.4466 21.8578 14.5543 21.9085 14.6692 21.9326C14.7842 21.9567 14.9032 21.9535 15.0167 21.9232C15.8786 21.6939 16.7062 21.3509 17.4776 20.9032C17.5786 20.8445 17.6645 20.7632 17.7284 20.6655C17.7924 20.5679 17.8327 20.4566 17.8461 20.3407L18.0936 18.1169C18.1911 18.0244 18.2848 17.9307 18.3748 17.8357L20.6042 17.5732C20.7203 17.5597 20.8315 17.5192 20.9292 17.4551C21.0269 17.391 21.1082 17.3049 21.1667 17.2038C21.6136 16.4321 21.9562 15.6046 22.1858 14.7429C22.216 14.6293 22.219 14.5102 22.1948 14.3953C22.1705 14.2803 22.1196 14.1726 22.0461 14.081L20.6548 12.3382ZM19.1455 11.7288C19.1614 11.9998 19.1614 12.2715 19.1455 12.5425C19.1343 12.7281 19.1924 12.9112 19.3086 13.0563L20.6389 14.7185C20.4862 15.2036 20.2908 15.6742 20.0548 16.1247L17.9361 16.3647C17.7516 16.3852 17.5812 16.4734 17.458 16.6122C17.2775 16.8152 17.0853 17.0074 16.8823 17.1879C16.7435 17.3111 16.6553 17.4815 16.6348 17.666L16.3995 19.7829C15.949 20.0189 15.4784 20.2144 14.9933 20.3669L13.3301 19.0366C13.1971 18.9303 13.0317 18.8724 12.8614 18.8725H12.8164C12.5454 18.8885 12.2737 18.8885 12.0026 18.8725C11.8171 18.8614 11.634 18.9195 11.4889 19.0357L9.82202 20.3669C9.33689 20.2143 8.86629 20.0188 8.41577 19.7829L8.17577 17.6669C8.15528 17.4824 8.0671 17.312 7.92827 17.1888C7.72531 17.0083 7.5331 16.8161 7.35264 16.6132C7.22939 16.4743 7.05903 16.3861 6.87452 16.3657L4.75764 16.1294C4.52157 15.6789 4.32611 15.2083 4.17358 14.7232L5.50389 13.06C5.62005 12.9149 5.67818 12.7318 5.66702 12.5463C5.65108 12.2753 5.65108 12.0036 5.66702 11.7325C5.67818 11.547 5.62005 11.3639 5.50389 11.2188L4.17358 9.55285C4.32623 9.06773 4.52168 8.59712 4.75764 8.1466L6.87358 7.9066C7.05809 7.88612 7.22845 7.79793 7.3517 7.6591C7.53216 7.45614 7.72437 7.26394 7.92733 7.08348C8.06671 6.96014 8.15526 6.78939 8.17577 6.60441L8.41108 4.48848C8.86155 4.25241 9.33216 4.05695 9.81733 3.90441L11.4805 5.23473C11.6256 5.35089 11.8087 5.40902 11.9942 5.39785C12.2652 5.38191 12.5369 5.38191 12.808 5.39785C12.9935 5.40902 13.1766 5.35089 13.3217 5.23473L14.9876 3.90441C15.4728 4.05706 15.9434 4.25252 16.3939 4.48848L16.6339 6.60441C16.6544 6.78893 16.7426 6.95929 16.8814 7.08254C17.0844 7.263 17.2766 7.4552 17.457 7.65816C17.5803 7.79699 17.7506 7.88518 17.9351 7.90566L20.052 8.14098C20.2881 8.59145 20.4835 9.06206 20.6361 9.54723L19.3058 11.2104C19.1885 11.3567 19.1303 11.5417 19.1426 11.7288H19.1455Z" fill="#F8F9FA"/>
</svg>
