<?xml version="1.0" encoding="UTF-8" standalone="no"?>
<svg
   version="1.1"
   x="0px"
   y="0px"
   viewBox="0 0 100 125"
   id="svg2"
   sodipodi:docname="noun-star-2206034.svg"
   inkscape:export-filename="noun-star-2206034.svg"
   inkscape:export-xdpi="96"
   inkscape:export-ydpi="96"
   inkscape:version="1.4 (e7c3feb1, 2024-10-09)"
   xmlns:inkscape="http://www.inkscape.org/namespaces/inkscape"
   xmlns:sodipodi="http://sodipodi.sourceforge.net/DTD/sodipodi-0.dtd"
   xmlns="http://www.w3.org/2000/svg"
   xmlns:svg="http://www.w3.org/2000/svg">
  <defs
     id="defs2" />
  <sodipodi:namedview
     id="namedview2"
     pagecolor="#ffffff"
     bordercolor="#000000"
     borderopacity="0.25"
     inkscape:showpageshadow="2"
     inkscape:pageopacity="0.0"
     inkscape:pagecheckerboard="0"
     inkscape:deskcolor="#d1d1d1"
     inkscape:zoom="1.6779624"
     inkscape:cx="24.434397"
     inkscape:cy="60.490031"
     inkscape:window-width="1728"
     inkscape:window-height="1080"
     inkscape:window-x="0"
     inkscape:window-y="37"
     inkscape:window-maximized="0"
     inkscape:current-layer="svg2" />
  <g
     transform="matrix(1.6701721,0,0,1.6701721,-33.816883,-1611.9001)"
     id="g1"
     inkscape:export-filename="1.svg"
     inkscape:export-xdpi="96"
     inkscape:export-ydpi="96">
    <path
       style="color:#000000;text-indent:0;text-transform:none;direction:ltr;baseline-shift:baseline;enable-background:accumulate"
       d="m 66.205024,1030.3708 a 2.9839018,3.0167884 0 0 0 2.79746,-3.4711 l -2.43718,-16.177 11.57132,-12.17021 a 2.9839018,3.0167884 0 0 0 -1.65304,-5.0781 l -16.02183,-2.6569 -7.84138,-14.86995 a 2.9839018,3.0167884 0 0 0 -5.27699,0.0214 l -7.43874,14.57005 -16.424529,2.9568 a 2.9839018,3.0167884 0 0 0 -1.61066,5.0781 l 11.40184,11.67741 -2.31006,16.6913 a 2.9839018,3.0167884 0 0 0 4.30213,3.1068 l 14.495939,-7.3492 15.00461,7.3707 a 2.9839018,3.0167884 0 0 0 1.44111,0.2999 z m -3.96307,-8.2277 -11.21108,-5.5281 a 2.9839018,3.0167884 0 0 0 -2.64907,0.021 l -10.723609,5.4637 1.716659,-12.513 a 2.9839018,3.0167884 0 0 0 -0.826559,-2.5283 l -8.43477,-8.63491 12.291879,-2.2069 a 2.9839018,3.0167884 0 0 0 2.11929,-1.5856 l 5.51015,-10.7775 5.87047,11.1203 a 2.9839018,3.0167884 0 0 0 2.14045,1.5642 l 11.86802,1.9712 -8.66786,9.08481 a 2.9839018,3.0167884 0 0 0 -0.8054,2.5498 l 1.80143,11.9988 z"
       fill="#000000"
       fill-opacity="1"
       stroke="none"
       marker="none"
       visibility="visible"
       display="inline"
       overflow="visible"
       id="path1" />
  </g>
</svg>
