<svg width="24" height="24" viewBox="0 0 24 24" fill="none" xmlns="http://www.w3.org/2000/svg">
<path d="M3 17.3243C3 17.0016 3.09221 16.6886 3.27663 16.3853C3.46105 16.082 3.68998 15.7851 3.96343 15.4947C4.24324 15.2043 4.51987 14.9138 4.79332 14.6234C5.00318 14.404 5.16534 14.1168 5.27981 13.7619C5.40064 13.4069 5.48967 13.0294 5.5469 12.6292C5.60413 12.2291 5.64547 11.8419 5.67091 11.4676C5.68998 10.1962 5.82035 9.0797 6.062 8.1181C6.30366 7.15005 6.68204 6.34334 7.19714 5.69797C7.7186 5.0526 8.40223 4.57502 9.24801 4.26525C9.407 3.63278 9.72814 3.09713 10.2114 2.65828C10.7011 2.21943 11.2957 2 11.9952 2C12.7011 2 13.2957 2.21943 13.779 2.65828C14.2687 3.09713 14.593 3.63278 14.752 4.26525C15.5978 4.57502 16.2782 5.0526 16.7933 5.69797C17.3084 6.34334 17.6868 7.15005 17.9285 8.1181C18.1765 9.0797 18.31 10.1962 18.3291 11.4676C18.3545 11.8419 18.3959 12.2291 18.4531 12.6292C18.5103 13.0294 18.5962 13.4069 18.7107 13.7619C18.8315 14.1168 18.9968 14.404 19.2067 14.6234C19.4801 14.9138 19.7536 15.2043 20.027 15.4947C20.3068 15.7851 20.539 16.082 20.7234 16.3853C20.9078 16.6886 21 17.0016 21 17.3243C21 17.6793 20.8728 17.9632 20.6184 18.1762C20.3641 18.3892 20.0111 18.4956 19.5596 18.4956H15.5342C15.5087 19.1217 15.3402 19.6993 15.0286 20.2285C14.7234 20.7641 14.31 21.1933 13.7886 21.516C13.2671 21.8387 12.6693 22 11.9952 22C11.3275 22 10.7329 21.8354 10.2114 21.5063C9.68998 21.1836 9.27345 20.7577 8.96184 20.2285C8.6566 19.6993 8.49126 19.1217 8.46582 18.4956H4.44038C3.98887 18.4956 3.63593 18.3892 3.38156 18.1762C3.12719 17.9632 3 17.6793 3 17.3243ZM4.85056 17.0339H19.1399V16.9177C19.0827 16.8274 18.9873 16.708 18.8537 16.5595C18.7266 16.4046 18.5771 16.2369 18.4054 16.0561C18.2401 15.8754 18.0715 15.6915 17.8998 15.5044C17.7281 15.3107 17.5787 15.0881 17.4515 14.8364C17.3243 14.5783 17.2162 14.2878 17.1272 13.9652C17.0445 13.6425 16.9746 13.2843 16.9173 12.8906C16.8665 12.4969 16.8315 12.0645 16.8124 11.5934C16.787 10.1865 16.6407 9.07002 16.3736 8.24395C16.1129 7.41788 15.7631 6.80478 15.3243 6.40465C14.8919 5.99806 14.4022 5.71733 13.8553 5.56244C13.7409 5.53662 13.6486 5.49145 13.5787 5.42691C13.5151 5.35592 13.4833 5.25912 13.4833 5.1365C13.4642 4.63311 13.3211 4.2233 13.0541 3.90707C12.7933 3.58438 12.4404 3.42304 11.9952 3.42304C11.5564 3.42304 11.2035 3.58438 10.9364 3.90707C10.6757 4.2233 10.5358 4.63311 10.5167 5.1365C10.5103 5.25912 10.4754 5.35592 10.4118 5.42691C10.3482 5.49145 10.256 5.53662 10.1351 5.56244C9.58824 5.71733 9.09539 5.99806 8.6566 6.40465C8.22417 6.80478 7.87758 7.41788 7.61685 8.24395C7.35612 9.07002 7.21304 10.1865 7.1876 11.5934C7.16216 12.0645 7.12401 12.4969 7.07313 12.8906C7.02226 13.2843 6.95231 13.6425 6.86328 13.9652C6.77424 14.2878 6.66614 14.5783 6.53895 14.8364C6.41176 15.0881 6.26232 15.3107 6.09062 15.5044C5.92528 15.6915 5.75676 15.8754 5.58506 16.0561C5.41971 16.2369 5.27027 16.4046 5.13672 16.5595C5.00318 16.708 4.90779 16.8274 4.85056 16.9177V17.0339ZM9.9539 18.4956C9.98569 19.1539 10.1892 19.6734 10.5644 20.0542C10.9459 20.4414 11.4229 20.635 11.9952 20.635C12.5739 20.635 13.0509 20.4414 13.4261 20.0542C13.8013 19.6734 14.0079 19.1539 14.0461 18.4956H9.9539Z" fill="#F8F9FA"/>
</svg>
