<svg width="16" height="16" viewBox="0 0 16 16" fill="none" xmlns="http://www.w3.org/2000/svg">
<path d="M7.99995 1.33331V2.66665M3.28662 3.28665L4.22662 4.22665M13.3333 7.99998H14.6666M12.7133 3.28665L11.7733 4.22665M10.6313 8.43331C10.7133 7.93631 10.6529 7.42624 10.4571 6.96214C10.2612 6.49805 9.93794 6.09892 9.52463 5.81097C9.11132 5.52301 8.62491 5.35801 8.1217 5.33506C7.6185 5.31212 7.11909 5.43217 6.68129 5.68131" stroke="#F8F9FA" stroke-width="0.8" stroke-linecap="round" stroke-linejoin="round"/>
<path d="M7.86665 14.6667L8.08213 13.7101C8.26493 12.8986 8.89857 12.265 9.71001 12.0822L10.6666 11.8667L9.71001 11.6512C8.89857 11.4684 8.26493 10.8348 8.08213 10.0233L7.86665 9.06669L7.65117 10.0233C7.46837 10.8348 6.83473 11.4684 6.02329 11.6512L5.06665 11.8667L6.02329 12.0822C6.83469 12.265 7.46837 12.8986 7.65117 13.7101L7.86665 14.6667Z" fill="#F8F9FA" stroke="#F8F9FA" stroke-width="0.5" stroke-linejoin="round"/>
<path d="M3.33337 11.3333L3.4873 10.65C3.61786 10.0704 4.07047 9.61779 4.65005 9.48723L5.33337 9.33331L4.65005 9.17939C4.07047 9.04883 3.61786 8.59623 3.4873 8.01663L3.33337 7.33331L3.17945 8.01663C3.04889 8.59623 2.59627 9.04883 2.01668 9.17939L1.33337 9.33331L2.01668 9.48723C2.59627 9.61779 3.04889 10.0704 3.17945 10.65L3.33337 11.3333Z" stroke="#F8F9FA" stroke-width="0.5" stroke-linejoin="round"/>
</svg>
